<svg width="81" height="81" viewBox="0 0 81 81" fill="none" xmlns="http://www.w3.org/2000/svg">
<path d="M40.5 80.057C62.5914 80.057 80.5 62.1484 80.5 40.057C80.5 17.9656 62.5914 0.0570068 40.5 0.0570068C18.4086 0.0570068 0.5 17.9656 0.5 40.057C0.5 62.1484 18.4086 80.057 40.5 80.057Z" fill="url(#paint0_radial_0_1)"/>
<path d="M30.1861 50.4669L30.3949 52.0528C30.2679 52.0528 30.1522 52.033 30.0281 52.033C29.6264 52.0333 29.2269 52.0932 28.8429 52.2108L28.6341 50.6475L24.9402 23.9272C24.8224 23.052 24.3714 22.256 23.6811 21.705C22.9909 21.1541 22.1147 20.8908 21.2351 20.9699L15.075 21.5343C14.9723 21.5432 14.8689 21.5318 14.7707 21.5007C14.6724 21.4696 14.5813 21.4195 14.5024 21.3532C14.3431 21.2193 14.2435 21.0277 14.2256 20.8203C14.2076 20.613 14.2728 20.4071 14.4066 20.2478C14.5405 20.0885 14.7322 19.9889 14.9395 19.971L21.0884 19.4066C22.3709 19.2892 23.6493 19.6707 24.6578 20.4716C25.6664 21.2725 26.3274 22.4313 26.5035 23.7071L30.1861 50.4669Z" fill="white"/>
<path d="M65.0476 51.2654C65.0719 51.4736 65.0142 51.6831 64.8867 51.8495C64.7593 52.016 64.5721 52.1263 64.3647 52.1571L35.6014 56.0823L34.0155 56.2912C34.0208 56.2038 34.0208 56.1161 34.0155 56.0287C34.0183 55.5893 33.9438 55.1528 33.7954 54.7391L35.3813 54.5303L64.1446 50.5938C64.2482 50.5771 64.3541 50.5812 64.456 50.6061C64.558 50.631 64.6539 50.6761 64.7381 50.7388C64.8223 50.8014 64.893 50.8803 64.9462 50.9707C64.9994 51.0612 65.0339 51.1614 65.0476 51.2654Z" fill="white"/>
<path d="M54.502 27.5082C54.5217 27.4777 54.5387 27.4456 54.5528 27.4122C54.7198 26.9155 54.7692 26.3869 54.6973 25.8678C54.6253 25.3488 54.4338 24.8535 54.138 24.421C53.9414 23.9276 53.6216 23.4929 53.2091 23.1584C52.7965 22.8239 52.3051 22.6009 51.7817 22.5106C49.9418 22.3526 48.1697 24.3053 45.5736 27.59C45.0635 26.7857 44.3653 26.1175 43.5394 25.6431C42.7135 25.1687 41.7846 24.9023 40.8328 24.8669C40.1847 24.9669 39.5833 25.2645 39.1106 25.719C38.6378 26.1735 38.3169 26.7629 38.1916 27.4066C38.0339 27.7866 37.9858 28.2031 38.0526 28.6091C38.1194 29.015 38.2986 29.3941 38.5697 29.7036L33.7725 30.4006C33.4571 30.4458 33.1538 30.5529 32.8798 30.7157C32.6059 30.8784 32.3668 31.0936 32.1762 31.3489C31.9856 31.6043 31.8473 31.8947 31.7692 32.2036C31.6911 32.5125 31.6747 32.8338 31.721 33.1491L32.1895 36.3745C32.2046 36.48 32.2405 36.5814 32.295 36.6731C32.3495 36.7647 32.4216 36.8446 32.507 36.9083C32.5925 36.972 32.6897 37.0182 32.7931 37.0443C32.8964 37.0704 33.0039 37.0758 33.1094 37.0602L33.7838 36.9614L35.5898 49.3776C35.653 49.8155 35.802 50.2366 36.0282 50.6168C36.2544 50.997 36.5534 51.3289 36.9081 51.5934C37.2627 51.8579 37.6661 52.0498 38.095 52.1581C38.524 52.2665 38.9701 52.2892 39.4078 52.2249L54.5048 50.0295C55.3914 49.8983 56.1899 49.421 56.7252 48.7022C57.2605 47.9833 57.4889 47.0816 57.3605 46.1946L55.5545 33.7783L56.2177 33.6824C56.3235 33.6679 56.4254 33.6325 56.5174 33.5782C56.6094 33.5239 56.6896 33.4519 56.7534 33.3662C56.8173 33.2806 56.8634 33.1831 56.8892 33.0794C56.9149 32.9758 56.9197 32.868 56.9034 32.7625L56.435 29.5371C56.3601 29.0413 56.1345 28.5806 55.7886 28.2176C55.4428 27.8546 54.9935 27.6069 54.502 27.5082ZM39.7408 27.8835C40.023 27.0369 40.4237 26.56 40.9711 26.4725H41.0134C41.735 26.5684 42.424 26.832 43.0253 27.2421C43.6265 27.6523 44.1234 28.1976 44.4759 28.8344L44.5182 28.8937C43.9066 29.0039 43.288 29.0718 42.6671 29.0969C41.6714 29.2597 40.6499 29.0807 39.769 28.5889C39.7238 28.5325 39.5828 28.3773 39.7408 27.8835ZM43.6519 49.9505L39.1849 50.5995C38.9584 50.6327 38.7277 50.6208 38.5058 50.5647C38.2839 50.5086 38.0753 50.4093 37.8918 50.2725C37.7084 50.1357 37.5537 49.9641 37.4366 49.7674C37.3195 49.5708 37.2424 49.353 37.2096 49.1265L35.4036 36.7103L41.5976 35.8101L43.6519 49.9505ZM41.3605 34.2016L33.6879 35.3304L33.3351 32.9092C33.3196 32.805 33.3248 32.6988 33.3504 32.5966C33.3761 32.4945 33.4217 32.3984 33.4846 32.3139C33.5476 32.2295 33.6266 32.1583 33.7172 32.1045C33.8078 32.0508 33.9081 32.0154 34.0124 32.0006L40.8921 30.9988L41.3605 34.2016ZM48.9316 49.1716L45.2632 49.705L43.206 35.5731L46.8745 35.0397L48.9316 49.1716ZM46.6402 33.4313L42.9718 33.9646L42.5034 30.7505L46.1718 30.2171L46.6402 33.4313ZM51.4374 24.1191C51.5022 24.1138 51.5673 24.1138 51.6321 24.1191C51.9764 24.1445 52.3348 24.5085 52.6932 25.1801C52.9753 25.6768 53.2575 26.3484 53.0769 26.6898C52.7242 27.4207 50.3341 27.844 47.5602 28.335C47.357 28.3745 47.1454 28.4168 46.9309 28.4478C48.6297 26.3371 50.3679 24.2912 51.4487 24.1332L51.4374 24.1191ZM55.7436 46.4119C55.7767 46.6383 55.7649 46.8691 55.7088 47.0909C55.6527 47.3128 55.5534 47.5214 55.4166 47.7049C55.2798 47.8884 55.1082 48.043 54.9115 48.1601C54.7149 48.2772 54.4971 48.3543 54.2706 48.3872L50.5316 48.9318L48.4716 34.8168L53.9348 34.021L55.7436 46.4119ZM55.1792 32.184L48.2459 33.1914L47.7775 29.9773L53.9263 29.0828C54.1354 29.0546 54.3471 29.1103 54.5152 29.2377C54.6834 29.3652 54.7942 29.5539 54.8237 29.7628L55.1792 32.184Z" fill="white"/>
<path d="M59.1809 25.5301C58.4872 25.5301 57.809 25.3243 57.2322 24.9389C56.6554 24.5535 56.2058 24.0057 55.9403 23.3648C55.6749 22.7238 55.6054 22.0186 55.7407 21.3382C55.8761 20.6578 56.2101 20.0328 56.7007 19.5422C57.1912 19.0517 57.8162 18.7176 58.4966 18.5823C59.177 18.447 59.8823 18.5164 60.5232 18.7819C61.1641 19.0474 61.712 19.497 62.0974 20.0738C62.4828 20.6506 62.6885 21.3287 62.6885 22.0225C62.687 22.9523 62.317 23.8436 61.6595 24.5011C61.002 25.1585 60.1107 25.5286 59.1809 25.5301ZM59.1809 20.0867C58.7981 20.0867 58.4238 20.2002 58.1055 20.4129C57.7871 20.6256 57.539 20.928 57.3925 21.2817C57.246 21.6354 57.2076 22.0246 57.2823 22.4001C57.357 22.7756 57.5414 23.1206 57.8121 23.3913C58.0828 23.662 58.4278 23.8464 58.8033 23.9211C59.1788 23.9958 59.568 23.9574 59.9217 23.8109C60.2754 23.6644 60.5778 23.4163 60.7905 23.098C61.0032 22.7796 61.1167 22.4053 61.1167 22.0225C61.1152 21.51 60.9106 21.0191 60.5478 20.6573C60.1849 20.2955 59.6934 20.0923 59.1809 20.0923V20.0867Z" fill="#FE6A84"/>
<path d="M35.3923 54.5191C35.0729 53.3749 34.3953 52.3632 33.4588 51.6324C32.5223 50.9015 31.3762 50.4901 30.1887 50.4584C30.1362 50.4532 30.0833 50.4532 30.0307 50.4584C29.554 50.4568 29.0793 50.5204 28.6198 50.6475C27.6153 50.9107 26.7044 51.4495 25.9901 52.2032C25.2758 52.9568 24.7864 53.8952 24.5774 54.9123C24.3683 55.9294 24.4479 56.9848 24.8071 57.959C25.1662 58.9333 25.7907 59.7877 26.61 60.4258C27.4292 61.0638 28.4105 61.46 29.4431 61.5697C30.4757 61.6793 31.5184 61.498 32.4533 61.0462C33.3883 60.5944 34.1782 59.8901 34.734 59.013C35.2897 58.1358 35.5891 57.1207 35.5983 56.0824V56.0288C35.5998 55.5184 35.5305 55.0104 35.3923 54.5191ZM30.0307 60.0189C29.0736 60.0209 28.1476 59.6796 27.4208 59.0569C26.694 58.4341 26.2146 57.5714 26.0698 56.6253C25.925 55.6793 26.1243 54.7126 26.6316 53.901C27.1388 53.0894 27.9204 52.4867 28.8342 52.2023C29.2183 52.0847 29.6177 52.0248 30.0194 52.0246C30.1464 52.0246 30.2621 52.0246 30.3863 52.0443C31.1543 52.1128 31.8858 52.4032 32.4916 52.8802C33.0973 53.3572 33.5512 54.0002 33.7979 54.7307C33.9463 55.1444 34.0208 55.5809 34.018 56.0203C34.0233 56.1077 34.0233 56.1954 34.018 56.2828C33.9521 57.2967 33.5033 58.2477 32.7624 58.943C32.0215 59.6383 31.044 60.0259 30.0279 60.0274L30.0307 60.0189Z" fill="#FE6A84"/>
<path d="M30.6095 27.2739C30.1072 27.2739 29.6162 27.125 29.1985 26.8459C28.7809 26.5669 28.4554 26.1702 28.2631 25.7062C28.0709 25.2421 28.0206 24.7314 28.1186 24.2388C28.2166 23.7461 28.4585 23.2936 28.8137 22.9384C29.1689 22.5833 29.6214 22.3414 30.114 22.2434C30.6067 22.1454 31.1173 22.1957 31.5814 22.3879C32.0455 22.5801 32.4421 22.9056 32.7212 23.3233C33.0002 23.7409 33.1492 24.232 33.1492 24.7343C33.1492 25.4078 32.8816 26.0538 32.4053 26.5301C31.9291 27.0064 31.2831 27.2739 30.6095 27.2739ZM30.6095 23.7889C30.4209 23.7889 30.2365 23.8449 30.0796 23.9497C29.9228 24.0545 29.8005 24.2034 29.7283 24.3777C29.6561 24.552 29.6372 24.7438 29.674 24.9288C29.7108 25.1138 29.8017 25.2838 29.9351 25.4172C30.0685 25.5506 30.2384 25.6414 30.4234 25.6782C30.6084 25.715 30.8002 25.6961 30.9745 25.6239C31.1488 25.5517 31.2978 25.4295 31.4026 25.2726C31.5074 25.1158 31.5633 24.9314 31.5633 24.7427C31.5626 24.49 31.4618 24.2478 31.2831 24.0691C31.1044 23.8904 30.8622 23.7897 30.6095 23.7889Z" fill="#FE6A84"/>
<path d="M21.9772 37.142C21.4749 37.142 20.9839 36.993 20.5662 36.714C20.1486 36.4349 19.823 36.0383 19.6308 35.5742C19.4386 35.1101 19.3883 34.5995 19.4863 34.1068C19.5843 33.6142 19.8262 33.1617 20.1814 32.8065C20.5365 32.4513 20.9891 32.2094 21.4817 32.1114C21.9744 32.0134 22.485 32.0637 22.9491 32.2559C23.4131 32.4482 23.8098 32.7737 24.0889 33.1913C24.3679 33.609 24.5169 34.1 24.5169 34.6023C24.5169 35.2759 24.2493 35.9219 23.773 36.3981C23.2967 36.8744 22.6507 37.142 21.9772 37.142ZM21.9772 33.657C21.7885 33.657 21.6041 33.7129 21.4473 33.8177C21.2904 33.9225 21.1682 34.0715 21.096 34.2458C21.0238 34.4201 21.0049 34.6118 21.0417 34.7968C21.0785 34.9819 21.1694 35.1518 21.3028 35.2852C21.4361 35.4186 21.6061 35.5094 21.7911 35.5462C21.9761 35.583 22.1679 35.5642 22.3422 35.492C22.5165 35.4198 22.6654 35.2975 22.7702 35.1407C22.875 34.9838 22.931 34.7994 22.931 34.6108C22.9302 34.358 22.8295 34.1159 22.6508 33.9372C22.4721 33.7585 22.2299 33.6577 21.9772 33.657Z" fill="#FE6A84"/>
<path d="M46.9252 21.5399C47.399 21.5399 47.7831 21.1558 47.7831 20.6821C47.7831 20.2083 47.399 19.8242 46.9252 19.8242C46.4515 19.8242 46.0674 20.2083 46.0674 20.6821C46.0674 21.1558 46.4515 21.5399 46.9252 21.5399Z" fill="white"/>
<path d="M61.9008 29.0912C62.3746 29.0912 62.7587 28.7071 62.7587 28.2333C62.7587 27.7596 62.3746 27.3755 61.9008 27.3755C61.427 27.3755 61.043 27.7596 61.043 28.2333C61.043 28.7071 61.427 29.0912 61.9008 29.0912Z" fill="white"/>
<path d="M24.977 49.8065C25.4508 49.8065 25.8348 49.4224 25.8348 48.9487C25.8348 48.4749 25.4508 48.0908 24.977 48.0908C24.5032 48.0908 24.1191 48.4749 24.1191 48.9487C24.1191 49.4224 24.5032 49.8065 24.977 49.8065Z" fill="white"/>
<defs>
<radialGradient id="paint0_radial_0_1" cx="0" cy="0" r="1" gradientUnits="userSpaceOnUse" gradientTransform="translate(40.5 40.057) scale(39.5824)">
<stop stop-color="#FE6A84"/>
<stop offset="0.993" stop-color="#FE6A84" stop-opacity="0"/>
</radialGradient>
</defs>
</svg>
