<svg width="81" height="81" viewBox="0 0 81 81" fill="none" xmlns="http://www.w3.org/2000/svg">
<path d="M40.5 80.057C62.5914 80.057 80.5 62.1484 80.5 40.057C80.5 17.9656 62.5914 0.0570068 40.5 0.0570068C18.4086 0.0570068 0.5 17.9656 0.5 40.057C0.5 62.1484 18.4086 80.057 40.5 80.057Z" fill="url(#paint0_radial_0_1)"/>
<path d="M39.5658 63.6478C35.5033 63.6478 31.532 62.4431 28.1542 60.1861C24.7763 57.9291 22.1436 54.7211 20.5889 50.9679C19.0343 47.2146 18.6275 43.0846 19.4201 39.1002C20.2126 35.1157 22.1689 31.4558 25.0415 28.5832C27.9142 25.7105 31.5741 23.7543 35.5586 22.9617C39.543 22.1691 43.673 22.5759 47.4263 24.1306C51.1795 25.6852 54.3875 28.3179 56.6445 31.6958C58.9015 35.0736 60.1062 39.0449 60.1062 43.1074C60.1002 48.5532 57.9342 53.7743 54.0834 57.6251C50.2327 61.4758 45.0116 63.6418 39.5658 63.6478ZM39.5658 24.6665C35.9185 24.6665 32.3532 25.748 29.3206 27.7744C26.288 29.8007 23.9244 32.6807 22.5286 36.0504C21.1329 39.42 20.7677 43.1279 21.4792 46.7051C22.1908 50.2822 23.9471 53.5681 26.5261 56.1471C29.1051 58.7261 32.391 60.4824 35.9681 61.194C39.5453 61.9055 43.2532 61.5403 46.6228 60.1446C49.9925 58.7488 52.8725 56.3852 54.8989 53.3526C56.9252 50.32 58.0067 46.7547 58.0067 43.1074C58.0007 38.2184 56.0559 33.5314 52.5989 30.0743C49.1418 26.6173 44.4548 24.6725 39.5658 24.6665Z" fill="white"/>
<path d="M39.5687 28.4225C36.6666 28.4225 33.8295 29.2831 31.4165 30.8955C29.0034 32.5078 27.1226 34.7995 26.012 37.4808C24.9014 40.1621 24.6108 43.1125 25.177 45.9589C25.7432 48.8053 27.1407 51.4199 29.1929 53.4721C31.245 55.5243 33.8596 56.9218 36.706 57.488C39.5525 58.0542 42.5029 57.7636 45.1841 56.653C47.8654 55.5423 50.1571 53.6616 51.7695 51.2485C53.3819 48.8354 54.2425 45.9984 54.2425 43.0962C54.2358 39.2066 52.6876 35.4781 49.9372 32.7277C47.1868 29.9773 43.4584 28.4292 39.5687 28.4225ZM40.6185 55.6366V54.1241C40.6259 53.9818 40.6042 53.8396 40.5549 53.706C40.5055 53.5723 40.4295 53.4502 40.3314 53.3469C40.2334 53.2436 40.1153 53.1613 39.9844 53.1051C39.8535 53.0489 39.7126 53.0199 39.5702 53.0199C39.4277 53.0199 39.2868 53.0489 39.1559 53.1051C39.025 53.1613 38.907 53.2436 38.8089 53.3469C38.7108 53.4502 38.6348 53.5723 38.5854 53.706C38.5361 53.8396 38.5145 53.9818 38.5218 54.1241V55.6479C35.5583 55.4034 32.7777 54.1151 30.6751 52.0125C28.5724 49.9098 27.2842 47.1292 27.0396 44.1657H28.5493C28.6916 44.1731 28.8338 44.1514 28.9675 44.1021C29.1011 44.0527 29.2232 43.9767 29.3265 43.8786C29.4298 43.7806 29.5121 43.6625 29.5683 43.5316C29.6245 43.4008 29.6535 43.2598 29.6535 43.1174C29.6535 42.9749 29.6245 42.834 29.5683 42.7031C29.5121 42.5722 29.4298 42.4542 29.3265 42.3561C29.2232 42.258 29.1011 42.182 28.9675 42.1327C28.8338 42.0833 28.6916 42.0617 28.5493 42.069H27.0396C27.2864 39.1063 28.5753 36.327 30.6775 34.2248C32.7798 32.1225 35.5591 30.8336 38.5218 30.5869V32.1107C38.5358 32.3793 38.6523 32.6323 38.8474 32.8175C39.0424 33.0027 39.3012 33.106 39.5702 33.106C39.8391 33.106 40.0979 33.0027 40.2929 32.8175C40.488 32.6323 40.6045 32.3793 40.6185 32.1107V30.5869C43.5812 30.8336 46.3606 32.1225 48.4628 34.2248C50.565 36.327 51.8539 39.1063 52.1007 42.069H50.5769C50.3082 42.083 50.0552 42.1995 49.87 42.3946C49.6848 42.5897 49.5815 42.8484 49.5815 43.1174C49.5815 43.3864 49.6848 43.6451 49.87 43.8402C50.0552 44.0352 50.3082 44.1518 50.5769 44.1657H52.1007C51.8561 47.1292 50.5679 49.9098 48.4652 52.0125C46.3626 54.1151 43.582 55.4034 40.6185 55.6479V55.6366Z" fill="#FE6A84"/>
<path d="M39.5658 46.9988C38.7967 46.9988 38.0449 46.7707 37.4054 46.3434C36.766 45.9161 36.2676 45.3088 35.9732 44.5983C35.6789 43.8878 35.6019 43.1059 35.752 42.3516C35.902 41.5973 36.2724 40.9044 36.8162 40.3606C37.36 39.8168 38.0529 39.4464 38.8072 39.2964C39.5615 39.1464 40.3433 39.2234 41.0539 39.5177C41.7644 39.812 42.3717 40.3104 42.799 40.9499C43.2263 41.5893 43.4543 42.3411 43.4543 43.1102C43.4528 44.1411 43.0427 45.1293 42.3137 45.8582C41.5848 46.5871 40.5966 46.9973 39.5658 46.9988ZM39.5658 41.3183C39.2114 41.3183 38.8649 41.4234 38.5703 41.6203C38.2756 41.8172 38.0459 42.0971 37.9103 42.4245C37.7747 42.7519 37.7392 43.1122 37.8083 43.4598C37.8775 43.8074 38.0481 44.1267 38.2987 44.3773C38.5493 44.6279 38.8686 44.7985 39.2162 44.8677C39.5638 44.9368 39.9241 44.9013 40.2515 44.7657C40.5789 44.6301 40.8588 44.4004 41.0557 44.1057C41.2526 43.8111 41.3577 43.4646 41.3577 43.1102C41.3577 42.6347 41.169 42.1787 40.833 41.8422C40.497 41.5057 40.0413 41.3163 39.5658 41.3155V41.3183Z" fill="white"/>
<path d="M31.2584 36.1177C31.1123 36.1184 30.9677 36.0883 30.834 36.0295C30.7003 35.9707 30.5805 35.8844 30.4823 35.7762L27.779 32.7907C27.6761 32.6909 27.5947 32.5711 27.5398 32.4387C27.485 32.3063 27.4579 32.164 27.4601 32.0207C27.4623 31.8773 27.4939 31.736 27.5528 31.6053C27.6118 31.4747 27.6969 31.3575 27.8029 31.2609C27.9088 31.1644 28.0335 31.0906 28.1691 31.0441C28.3046 30.9976 28.4483 30.9793 28.5912 30.9905C28.7341 31.0016 28.8733 31.0419 29 31.1088C29.1268 31.1758 29.2384 31.268 29.3282 31.3798L32.0372 34.3512C32.175 34.5012 32.2661 34.6882 32.2992 34.8892C32.3324 35.0902 32.3061 35.2965 32.2238 35.4828C32.1414 35.6692 32.0064 35.8274 31.8355 35.9382C31.6645 36.0489 31.4649 36.1074 31.2612 36.1064L31.2584 36.1177Z" fill="white"/>
<path d="M50.32 54.6969C50.174 54.6974 50.0295 54.6673 49.8958 54.6085C49.7621 54.5497 49.6423 54.4635 49.544 54.3555L46.835 51.384C46.7353 51.2834 46.6569 51.1636 46.6047 51.032C46.5525 50.9003 46.5274 50.7593 46.5311 50.6177C46.5348 50.4761 46.5671 50.3367 46.6261 50.2079C46.6851 50.079 46.7695 49.9635 46.8744 49.8682C46.9792 49.7729 47.1022 49.6998 47.2361 49.6533C47.3699 49.6068 47.5118 49.5879 47.6531 49.5977C47.7944 49.6075 47.9323 49.6458 48.0585 49.7103C48.1846 49.7749 48.2964 49.8642 48.3871 49.9731L51.0961 52.9445C51.2326 53.095 51.3225 53.2818 51.355 53.4824C51.3874 53.683 51.361 53.8886 51.2788 54.0745C51.1966 54.2603 51.0623 54.4183 50.8921 54.5293C50.722 54.6402 50.5232 54.6995 50.32 54.6997V54.6969Z" fill="white"/>
<path d="M28.4365 54.5643C28.2248 54.564 28.0182 54.4997 27.8437 54.3799C27.6692 54.2601 27.535 54.0903 27.4587 53.8929C27.3825 53.6955 27.3676 53.4796 27.4162 53.2736C27.4648 53.0676 27.5745 52.8811 27.731 52.7385L30.7024 50.0296C30.9103 49.8564 31.177 49.7702 31.4469 49.7889C31.7168 49.8076 31.969 49.9298 32.151 50.13C32.333 50.3302 32.4307 50.5929 32.4237 50.8633C32.4166 51.1338 32.3055 51.3911 32.1134 51.5816L29.1419 54.2906C28.9491 54.4666 28.6975 54.5642 28.4365 54.5643Z" fill="white"/>
<path d="M47.6113 36.1176C47.3996 36.1173 47.193 36.0531 47.0185 35.9333C46.844 35.8134 46.7098 35.6437 46.6335 35.4463C46.5573 35.2488 46.5424 35.0329 46.591 34.8269C46.6396 34.6209 46.7493 34.4344 46.9058 34.2919L49.8772 31.5829C50.0851 31.4097 50.3518 31.3235 50.6217 31.3422C50.8916 31.3609 51.1438 31.4831 51.3258 31.6833C51.5078 31.8835 51.6055 32.1462 51.5985 32.4167C51.5915 32.6871 51.4803 32.9444 51.2882 33.1349L48.3167 35.8439C48.1241 36.0202 47.8724 36.1178 47.6113 36.1176Z" fill="white"/>
<path d="M45.1225 18.1988V15.82C45.1225 14.9968 44.7954 14.2072 44.2133 13.6251C43.6312 13.043 42.8417 12.7159 42.0184 12.7159H37.193C36.3747 12.7234 35.5924 13.0537 35.0163 13.635C34.4403 14.2163 34.1171 15.0016 34.1172 15.82V18.1706C30.1174 19.0456 26.3868 20.8699 23.2403 23.4897C20.0938 26.1094 17.6237 29.4477 16.0385 33.2227C14.4533 36.9977 13.7995 41.0987 14.1323 45.1795C14.4651 49.2603 15.7748 53.2011 17.9507 56.6694C18.7636 58.1735 19.3927 59.7699 19.8244 61.4242C20.8459 64.6694 21.8928 68.0105 24.6498 69.4666C26.5517 70.474 33.5161 70.9904 40.3676 70.9904C45.3755 71.2545 50.3949 70.7733 55.2614 69.5625C58.0438 68.0951 58.8142 64.7935 59.5676 61.5907C59.8741 59.8322 60.4449 58.1301 61.2607 56.5424C63.4025 53.0799 64.6851 49.1554 65.0014 45.0964C65.3178 41.0373 64.6588 36.9615 63.0794 33.209C61.5 29.4564 59.0461 26.1361 55.9223 23.5249C52.7986 20.9138 49.0956 19.0876 45.1225 18.1988ZM36.2279 15.8228C36.2279 15.5618 36.3306 15.3113 36.5139 15.1254C36.6971 14.9395 36.9461 14.8332 37.2071 14.8295H42.0325C42.2957 14.8303 42.5479 14.9352 42.7341 15.1213C42.9202 15.3074 43.0251 15.5596 43.0258 15.8228V17.8348C41.8812 17.6779 40.7272 17.5987 39.5718 17.5978C38.4543 17.5941 37.3379 17.6686 36.2308 17.8207L36.2279 15.8228ZM59.4773 55.439C58.5366 57.2197 57.8761 59.1347 57.5189 61.1166C56.8473 63.9837 56.2039 66.6814 54.2738 67.7029C51.2121 69.3114 28.7105 69.2408 25.6318 67.6182C23.6311 66.5544 22.7084 63.6338 21.8279 60.795C21.3368 58.9736 20.6281 57.218 19.7172 55.566C17.497 52.027 16.2638 47.9584 16.1456 43.7822C16.0273 39.6061 17.0283 35.4743 19.0446 31.8152C21.061 28.1562 24.0194 25.1031 27.6131 22.9725C31.2069 20.8418 35.3051 19.7112 39.4829 19.6979C43.6607 19.6846 47.7661 20.7889 51.3733 22.8966C54.9806 25.0042 57.9584 28.0384 59.9981 31.6844C62.0378 35.3305 63.0652 39.4559 62.9736 43.6327C62.882 47.8095 61.6749 51.8859 59.4773 55.439Z" fill="white"/>
<path d="M18.5798 27.0087C18.3805 27.0111 18.1846 26.9563 18.0155 26.8506C17.0565 26.2914 16.3124 25.4271 15.9019 24.3956C15.4532 22.5953 18.3541 19.9201 20.4169 19.1921C21.9839 18.7136 23.6479 18.6475 25.2479 19.0002C25.5089 19.0738 25.7313 19.2455 25.8686 19.4794C26.0058 19.7132 26.0472 19.9911 25.9841 20.2549C25.921 20.5186 25.7583 20.7477 25.53 20.8941C25.3018 21.0405 25.0258 21.093 24.7597 21.0404C23.5552 20.7843 22.3061 20.8279 21.1223 21.1674C19.7569 21.6975 18.632 22.708 17.959 24.009C18.2818 24.4329 18.6809 24.7927 19.1358 25.07C19.329 25.1915 19.4775 25.3726 19.5586 25.5859C19.6397 25.7993 19.6491 26.0332 19.5853 26.2524C19.5215 26.4715 19.388 26.6639 19.205 26.8004C19.0221 26.9369 18.7996 27.01 18.5714 27.0087H18.5798Z" fill="#FE6A84"/>
<path d="M60.5521 27.0086C60.3239 27.0099 60.1014 26.9368 59.9185 26.8003C59.7355 26.6639 59.602 26.4715 59.5382 26.2523C59.4744 26.0332 59.4838 25.7992 59.5649 25.5859C59.646 25.3725 59.7944 25.1914 59.9877 25.07C60.4824 24.7861 60.8939 24.3774 61.1814 23.8848C60.4463 22.6573 59.3307 21.7031 58.0039 21.1674C56.821 20.8288 55.5731 20.7852 54.3694 21.0404C54.1034 21.0929 53.8273 21.0405 53.5991 20.894C53.3708 20.7476 53.2081 20.5185 53.145 20.2548C53.0819 19.9911 53.1233 19.7132 53.2606 19.4793C53.3978 19.2454 53.6202 19.0737 53.8812 19.0002C55.4786 18.6497 57.1393 18.7158 58.7038 19.192C60.7637 19.9201 63.6674 22.598 63.2188 24.3984C62.8072 25.4293 62.0621 26.2927 61.1024 26.8506C60.9372 26.9534 60.7466 27.0081 60.5521 27.0086Z" fill="#FE6A84"/>
<path d="M64.0402 18.4443C63.1181 18.4443 62.2168 18.1709 61.4502 17.6587C60.6836 17.1464 60.0861 16.4184 59.7333 15.5665C59.3804 14.7147 59.2881 13.7774 59.468 12.8731C59.6479 11.9688 60.0919 11.1382 60.7438 10.4862C61.3958 9.83429 62.2264 9.3903 63.1307 9.21043C64.035 9.03055 64.9723 9.12287 65.8241 9.4757C66.6759 9.82854 67.404 10.426 67.9162 11.1927C68.4285 11.9593 68.7019 12.8606 68.7019 13.7826C68.7004 15.0185 68.2088 16.2034 67.3348 17.0773C66.4609 17.9512 65.2761 18.4428 64.0402 18.4443ZM64.0402 11.2203C63.5334 11.2203 63.038 11.3706 62.6166 11.6521C62.1953 11.9337 61.8669 12.3339 61.6729 12.802C61.479 13.2702 61.4283 13.7854 61.5271 14.2825C61.626 14.7795 61.87 15.236 62.2284 15.5944C62.5867 15.9527 63.0432 16.1967 63.5403 16.2956C64.0373 16.3945 64.5525 16.3437 65.0207 16.1498C65.4889 15.9559 65.889 15.6275 66.1706 15.2061C66.4521 14.7847 66.6024 14.2893 66.6024 13.7826C66.6017 13.1033 66.3315 12.452 65.8511 11.9716C65.3708 11.4913 64.7195 11.2211 64.0402 11.2203Z" fill="#FE6A84"/>
<path d="M68.9556 58.6841C68.2427 58.6841 67.5459 58.4727 66.9533 58.0766C66.3606 57.6805 65.8987 57.1176 65.6261 56.4589C65.3534 55.8003 65.2822 55.0756 65.4215 54.3765C65.5608 53.6774 65.9043 53.0354 66.4085 52.5315C66.9127 52.0277 67.5551 51.6847 68.2543 51.546C68.9535 51.4072 69.6781 51.479 70.3365 51.7522C70.995 52.0253 71.5576 52.4877 71.9532 53.0806C72.3488 53.6736 72.5597 54.3706 72.5591 55.0834C72.5576 56.0384 72.1774 56.9538 71.5018 57.6288C70.8263 58.3039 69.9106 58.6834 68.9556 58.6841ZM68.9556 53.5737C68.6575 53.5737 68.3662 53.6621 68.1184 53.8277C67.8706 53.9932 67.6775 54.2286 67.5634 54.5039C67.4494 54.7793 67.4195 55.0822 67.4777 55.3746C67.5358 55.6669 67.6793 55.9354 67.8901 56.1461C68.1008 56.3568 68.3693 56.5004 68.6616 56.5585C68.9539 56.6166 69.2569 56.5868 69.5322 56.4728C69.8076 56.3587 70.0429 56.1656 70.2085 55.9178C70.3741 55.67 70.4625 55.3786 70.4625 55.0806C70.4617 54.6814 70.3026 54.2989 70.0201 54.0169C69.7376 53.7349 69.3547 53.5765 68.9556 53.5765V53.5737Z" fill="#FE6A84"/>
<path d="M12.2898 70.9819C11.528 70.9819 10.7833 70.756 10.1499 70.3327C9.51643 69.9095 9.02273 69.3079 8.73119 68.6041C8.43966 67.9003 8.36338 67.1258 8.512 66.3786C8.66063 65.6314 9.02748 64.9451 9.56617 64.4064C10.1049 63.8677 10.7912 63.5008 11.5384 63.3522C12.2856 63.2036 13.06 63.2799 13.7639 63.5714C14.4677 63.8629 15.0693 64.3566 15.4925 64.9901C15.9158 65.6235 16.1417 66.3682 16.1417 67.1301C16.1409 68.1514 15.7349 69.1307 15.0127 69.8529C14.2905 70.5751 13.3112 70.9812 12.2898 70.9819ZM12.2898 65.3777C11.9433 65.3777 11.6044 65.4804 11.3163 65.673C11.0281 65.8656 10.8035 66.1392 10.6709 66.4594C10.5382 66.7797 10.5035 67.132 10.5711 67.4719C10.6387 67.8119 10.8056 68.1241 11.0507 68.3692C11.2958 68.6142 11.608 68.7811 11.948 68.8488C12.2879 68.9164 12.6402 68.8817 12.9604 68.749C13.2807 68.6164 13.5543 68.3918 13.7469 68.1036C13.9394 67.8154 14.0422 67.4766 14.0422 67.1301C14.0415 66.6655 13.8566 66.2202 13.5281 65.8918C13.1997 65.5633 12.7544 65.3784 12.2898 65.3777Z" fill="#FE6A84"/>
<defs>
<radialGradient id="paint0_radial_0_1" cx="0" cy="0" r="1" gradientUnits="userSpaceOnUse" gradientTransform="translate(40.5 40.057) scale(39.5824)">
<stop stop-color="#FE6A84"/>
<stop offset="0.993" stop-color="#FE6A84" stop-opacity="0"/>
</radialGradient>
</defs>
</svg>
