<svg width="81" height="81" viewBox="0 0 81 81" fill="none" xmlns="http://www.w3.org/2000/svg">
<path d="M40.5 80.057C62.5914 80.057 80.5 62.1484 80.5 40.057C80.5 17.9656 62.5914 0.0570068 40.5 0.0570068C18.4086 0.0570068 0.5 17.9656 0.5 40.057C0.5 62.1484 18.4086 80.057 40.5 80.057Z" fill="url(#paint0_radial_0_1)"/>
<path d="M55.3684 62.5755H24.7681C24.6372 62.5756 24.5083 62.5444 24.392 62.4845C24.2757 62.4245 24.1755 62.3375 24.0998 62.2308C24.024 62.1241 23.975 62.0008 23.9567 61.8713C23.9385 61.7417 23.9516 61.6097 23.9949 61.4862L25.0869 58.3568C25.1427 58.1961 25.2471 58.0567 25.3856 57.9581C25.5242 57.8595 25.69 57.8065 25.8601 57.8065H54.2764C54.4464 57.8065 54.6123 57.8595 54.7509 57.9581C54.8894 58.0567 54.9938 58.1961 55.0495 58.3568L56.1416 61.4862C56.1849 61.6097 56.198 61.7417 56.1797 61.8713C56.1615 62.0008 56.1124 62.1241 56.0367 62.2308C55.961 62.3375 55.8608 62.4245 55.7445 62.4845C55.6282 62.5444 55.4993 62.5756 55.3684 62.5755ZM25.9222 60.936H54.2143L53.695 59.446H26.4414L25.9222 60.936Z" fill="white"/>
<path d="M58.8703 60.6764H21.2689C20.6735 60.6764 20.1909 61.159 20.1909 61.7543V61.7572C20.1909 62.3525 20.6735 62.8351 21.2689 62.8351H58.8703C59.4656 62.8351 59.9482 62.3525 59.9482 61.7572V61.7543C59.9482 61.159 59.4656 60.6764 58.8703 60.6764Z" fill="#FE6A84"/>
<path d="M52.7274 59.4489H27.4067C27.1899 59.4481 26.9822 59.3617 26.8289 59.2083C26.6756 59.055 26.5891 58.8473 26.5884 58.6305V48.5169C26.5884 46.7467 26.9371 44.9938 27.6145 43.3583C28.2919 41.7229 29.2849 40.2368 30.5366 38.9851C31.7883 37.7333 33.2744 36.7404 34.9098 36.063C36.5453 35.3855 38.2982 35.0369 40.0684 35.0369C41.8387 35.0369 43.5916 35.3855 45.227 36.063C46.8625 36.7404 48.3486 37.7333 49.6003 38.9851C50.852 40.2368 51.845 41.7229 52.5224 43.3583C53.1998 44.9938 53.5485 46.7467 53.5485 48.5169V58.6277C53.5485 58.8455 53.462 59.0543 53.308 59.2083C53.154 59.3623 52.9451 59.4489 52.7274 59.4489ZM28.2279 57.8094H51.909V48.5169C51.9788 46.9185 51.7243 45.3225 51.1607 43.8251C50.5971 42.3277 49.7362 40.9599 48.6299 39.8041C47.5235 38.6484 46.1946 37.7286 44.7232 37.1003C43.2518 36.4719 41.6684 36.1479 40.0684 36.1479C38.4685 36.1479 36.8851 36.4719 35.4137 37.1003C33.9423 37.7286 32.6134 38.6484 31.507 39.8041C30.4007 40.9599 29.5398 42.3277 28.9762 43.8251C28.4126 45.3225 28.1581 46.9185 28.2279 48.5169V57.8094Z" fill="white"/>
<path d="M43.0227 37.0235C42.8059 37.0228 42.5982 36.9363 42.4449 36.783C42.2916 36.6297 42.2051 36.422 42.2044 36.2052V32.6694H37.9349V36.2052C37.9349 36.4226 37.8485 36.6311 37.6948 36.7849C37.5411 36.9386 37.3326 37.025 37.1152 37.025C36.8978 37.025 36.6892 36.9386 36.5355 36.7849C36.3818 36.6311 36.2954 36.4226 36.2954 36.2052V31.8511C36.2962 31.6342 36.3826 31.4265 36.5359 31.2732C36.6892 31.1199 36.8969 31.0335 37.1138 31.0327H43.0227C43.2396 31.0335 43.4473 31.1199 43.6006 31.2732C43.7539 31.4265 43.8403 31.6342 43.8411 31.8511V36.2052C43.8403 36.422 43.7539 36.6297 43.6006 36.783C43.4473 36.9363 43.2396 37.0228 43.0227 37.0235Z" fill="white"/>
<path d="M49.1831 32.6693H30.9538C29.5001 32.646 28.0878 32.1816 26.904 31.3374C25.7202 30.4933 24.8209 29.3094 24.3252 27.9427C24.2624 27.8181 24.2324 27.6795 24.238 27.5401C24.2435 27.4007 24.2846 27.265 24.3571 27.1458C24.4297 27.0267 24.5314 26.928 24.6528 26.859C24.7741 26.7901 24.9109 26.7532 25.0505 26.7518H55.0808C55.2211 26.7515 55.3591 26.7872 55.4817 26.8555C55.6042 26.9238 55.7071 27.0225 55.7805 27.1421C55.8538 27.2617 55.8953 27.3981 55.9007 27.5383C55.9062 27.6785 55.8755 27.8177 55.8117 27.9427C55.3163 29.3097 54.4171 30.4938 53.2332 31.3379C52.0494 32.1821 50.6369 32.6464 49.1831 32.6693ZM26.4614 28.3913C26.8864 29.2086 27.5329 29.8897 28.3268 30.3568C29.1208 30.8239 30.0302 31.0581 30.951 31.0326H49.1803C50.1011 31.0585 51.0107 30.8244 51.8047 30.3573C52.5987 29.8901 53.2451 29.2088 53.6699 28.3913H26.4614Z" fill="white"/>
<path d="M52.0638 28.3914C51.943 28.3914 51.8238 28.3648 51.7145 28.3134C51.6052 28.2621 51.5085 28.1873 51.4315 28.0943C51.3544 28.0013 51.2988 27.8925 51.2686 27.7756C51.2384 27.6586 51.2343 27.5365 51.2568 27.4178C51.3507 26.9081 51.3194 26.3831 51.1655 25.8881C51.0117 25.3931 50.7399 24.9429 50.3735 24.5762C49.8898 24.3165 49.3521 24.1736 48.8033 24.1589C48.2545 24.1442 47.7099 24.2582 47.213 24.4916C47.0911 24.5475 46.9572 24.5727 46.8233 24.565C46.6893 24.5573 46.5593 24.5168 46.4446 24.4472C46.3298 24.3776 46.2339 24.281 46.1652 24.1657C46.0965 24.0504 46.0571 23.9201 46.0504 23.7861C46.0116 23.1039 45.8381 22.4361 45.5398 21.8214C45.2415 21.2067 44.8243 20.6571 44.3124 20.2045C43.8005 19.7519 43.204 19.4052 42.5574 19.1845C41.9107 18.9637 41.2267 18.8733 40.5449 18.9184C39.1437 18.8476 37.7707 19.329 36.7203 20.259C35.6699 21.1891 35.026 22.4939 34.9266 23.8933C34.9167 24.0205 34.8774 24.1437 34.8118 24.2531C34.7462 24.3625 34.6561 24.4552 34.5486 24.5238C34.4411 24.5925 34.3191 24.6353 34.1923 24.6488C34.0654 24.6623 33.9372 24.6461 33.8176 24.6016C32.646 24.1702 31.3606 24.1612 30.183 24.5762C28.7947 25.2393 28.8285 27.5222 28.8285 27.5448C28.8323 27.6525 28.8147 27.7599 28.7769 27.8608C28.739 27.9617 28.6816 28.0542 28.6079 28.1328C28.5343 28.2115 28.4458 28.2748 28.3476 28.3192C28.2493 28.3636 28.1433 28.3881 28.0356 28.3914C27.8201 28.3918 27.6125 28.31 27.4552 28.1627C27.2979 28.0153 27.2027 27.8135 27.189 27.5984C27.1378 26.7108 27.3226 25.8254 27.7246 25.0324C28.1265 24.2393 28.7314 23.5669 29.4776 23.0834C30.728 22.5616 32.1134 22.4567 33.4282 22.7843C33.7502 21.1611 34.6482 19.7089 35.9566 18.6956C37.265 17.6823 38.8955 17.1761 40.5478 17.2704C42.169 17.1657 43.7729 17.6542 45.0606 18.6449C46.3482 19.6355 47.2316 21.0606 47.546 22.6545C48.1906 22.4632 48.87 22.4194 49.5339 22.5264C50.1978 22.6334 50.829 22.8884 51.3809 23.2725C51.9868 23.824 52.4413 24.5216 52.7011 25.2986C52.961 26.0756 53.0175 26.9063 52.8652 27.7113C52.8327 27.9007 52.7347 28.0727 52.5881 28.197C52.4416 28.3214 52.256 28.3902 52.0638 28.3914Z" fill="#FE6A84"/>
<path d="M33.1717 54.3243H27.4067C27.1893 54.3243 26.9807 54.238 26.827 54.0842C26.6733 53.9305 26.5869 53.722 26.5869 53.5046C26.5869 53.2872 26.6733 53.0786 26.827 52.9249C26.9807 52.7712 27.1893 52.6848 27.4067 52.6848H33.1717C33.3892 52.6848 33.5977 52.7712 33.7514 52.9249C33.9051 53.0786 33.9915 53.2872 33.9915 53.5046C33.9915 53.722 33.9051 53.9305 33.7514 54.0842C33.5977 54.238 33.3892 54.3243 33.1717 54.3243Z" fill="white"/>
<path d="M52.727 54.3243H46.9648C46.7474 54.3243 46.5389 54.238 46.3851 54.0842C46.2314 53.9305 46.145 53.722 46.145 53.5046C46.145 53.2872 46.2314 53.0786 46.3851 52.9249C46.5389 52.7712 46.7474 52.6848 46.9648 52.6848H52.7299C52.9473 52.6848 53.1558 52.7712 53.3095 52.9249C53.4632 53.0786 53.5496 53.2872 53.5496 53.5046C53.5496 53.722 53.4632 53.9305 53.3095 54.0842C53.1558 54.238 52.9473 54.3243 52.7299 54.3243H52.727Z" fill="white"/>
<path d="M40.0681 53.3678C38.8659 53.3678 37.6907 53.0113 36.6911 52.3434C35.6916 51.6755 34.9125 50.7262 34.4524 49.6156C33.9924 48.5049 33.872 47.2827 34.1065 46.1037C34.3411 44.9246 34.92 43.8415 35.77 42.9915C36.6201 42.1414 37.7032 41.5625 38.8822 41.328C40.0613 41.0934 41.2835 41.2138 42.3941 41.6739C43.5048 42.1339 44.4541 42.913 45.122 43.9126C45.7899 44.9121 46.1464 46.0873 46.1464 47.2895C46.1441 48.9009 45.503 50.4456 44.3636 51.585C43.2242 52.7244 41.6794 53.3656 40.0681 53.3678ZM40.0681 42.8479C39.1909 42.8507 38.3342 43.1133 37.6061 43.6026C36.8781 44.0919 36.3114 44.786 35.9775 45.5971C35.6436 46.4083 35.5575 47.3002 35.7302 48.1602C35.9028 49.0202 36.3264 49.8099 36.9474 50.4293C37.5685 51.0488 38.3592 51.4704 39.2196 51.6408C40.0801 51.8113 40.9718 51.723 41.7821 51.387C42.5924 51.0511 43.285 50.4826 43.7725 49.7533C44.26 49.024 44.5204 48.1667 44.521 47.2895C44.5206 46.7054 44.4051 46.127 44.181 45.5876C43.957 45.0481 43.6288 44.5581 43.2152 44.1456C42.8017 43.7331 42.3108 43.4062 41.7708 43.1835C41.2308 42.9608 40.6522 42.8468 40.0681 42.8479Z" fill="white"/>
<path d="M20.5125 42.2693C19.9957 42.2693 19.4904 42.1161 19.0607 41.8289C18.631 41.5418 18.2961 41.1337 18.0983 40.6562C17.9005 40.1788 17.8488 39.6534 17.9496 39.1465C18.0504 38.6396 18.2993 38.174 18.6648 37.8086C19.0302 37.4431 19.4958 37.1942 20.0027 37.0934C20.5096 36.9926 21.035 37.0443 21.5124 37.2421C21.9899 37.4399 22.398 37.7748 22.6851 38.2045C22.9723 38.6342 23.1255 39.1395 23.1255 39.6563C23.1248 40.3491 22.8492 41.0133 22.3593 41.5031C21.8695 41.993 21.2053 42.2686 20.5125 42.2693ZM20.5125 38.6827C20.3199 38.6827 20.1317 38.7398 19.9716 38.8468C19.8115 38.9538 19.6867 39.1058 19.613 39.2837C19.5393 39.4616 19.5201 39.6573 19.5576 39.8462C19.5952 40.035 19.6879 40.2085 19.8241 40.3447C19.9602 40.4808 20.1337 40.5735 20.3225 40.6111C20.5114 40.6487 20.7071 40.6294 20.885 40.5557C21.0629 40.482 21.215 40.3572 21.3219 40.1971C21.4289 40.037 21.486 39.8488 21.486 39.6563C21.486 39.3981 21.3834 39.1504 21.2009 38.9679C21.0183 38.7853 20.7707 38.6827 20.5125 38.6827Z" fill="#FE6A84"/>
<path d="M59.9454 45.19C59.3214 45.19 58.7114 45.0049 58.1926 44.6583C57.6738 44.3116 57.2695 43.8189 57.0307 43.2424C56.7919 42.6659 56.7294 42.0316 56.8511 41.4196C56.9729 40.8076 57.2734 40.2455 57.7146 39.8043C58.1558 39.3631 58.7179 39.0626 59.3299 38.9409C59.9419 38.8191 60.5762 38.8816 61.1527 39.1204C61.7292 39.3592 62.2219 39.7635 62.5685 40.2824C62.9152 40.8012 63.1002 41.4111 63.1002 42.0351C63.0995 42.8716 62.7669 43.6736 62.1754 44.2651C61.5839 44.8566 60.7819 45.1892 59.9454 45.19ZM59.9454 40.5198C59.6457 40.5198 59.3527 40.6086 59.1035 40.7751C58.8543 40.9416 58.6601 41.1783 58.5454 41.4552C58.4307 41.7321 58.4007 42.0368 58.4592 42.3307C58.5176 42.6247 58.6619 42.8947 58.8739 43.1066C59.0858 43.3185 59.3558 43.4629 59.6498 43.5213C59.9437 43.5798 60.2484 43.5498 60.5253 43.4351C60.8022 43.3204 61.0388 43.1262 61.2053 42.877C61.3718 42.6278 61.4607 42.3348 61.4607 42.0351C61.46 41.6337 61.3 41.249 61.0159 40.9654C60.7318 40.6818 60.3468 40.5226 59.9454 40.5226V40.5198Z" fill="#FE6A84"/>
<path d="M59.0482 23.8511C58.4962 23.8511 57.9566 23.6874 57.4977 23.3807C57.0387 23.0741 56.681 22.6382 56.4698 22.1282C56.2585 21.6183 56.2033 21.0571 56.311 20.5158C56.4186 19.9744 56.6844 19.4771 57.0747 19.0868C57.465 18.6965 57.9623 18.4307 58.5037 18.323C59.0451 18.2154 59.6062 18.2706 60.1162 18.4818C60.6261 18.6931 61.062 19.0508 61.3686 19.5097C61.6753 19.9687 61.839 20.5083 61.839 21.0602C61.8382 21.8002 61.544 22.5096 61.0207 23.0328C60.4975 23.556 59.7881 23.8503 59.0482 23.8511ZM59.0482 19.9005C58.8204 19.9005 58.5978 19.968 58.4085 20.0945C58.2192 20.221 58.0716 20.4008 57.9845 20.6112C57.8973 20.8216 57.8745 21.0531 57.919 21.2764C57.9634 21.4997 58.073 21.7049 58.234 21.8659C58.3951 22.0269 58.6002 22.1366 58.8235 22.181C59.0469 22.2254 59.2784 22.2026 59.4887 22.1155C59.6991 22.0283 59.8789 21.8807 60.0054 21.6914C60.132 21.5021 60.1995 21.2795 60.1995 21.0518C60.1965 20.7484 60.0739 20.4584 59.8583 20.245C59.6427 20.0315 59.3516 19.9117 59.0482 19.9117V19.9005Z" fill="#FE6A84"/>
<path d="M23.0578 52.8231C23.7186 52.8231 24.2543 52.2874 24.2543 51.6266C24.2543 50.9659 23.7186 50.4302 23.0578 50.4302C22.397 50.4302 21.8613 50.9659 21.8613 51.6266C21.8613 52.2874 22.397 52.8231 23.0578 52.8231Z" fill="white"/>
<path d="M56.0965 36.0556C56.656 36.0556 57.1096 35.6021 57.1096 35.0426C57.1096 34.4831 56.656 34.0295 56.0965 34.0295C55.5371 34.0295 55.0835 34.4831 55.0835 35.0426C55.0835 35.6021 55.5371 36.0556 56.0965 36.0556Z" fill="white"/>
<path d="M58.9663 53.1392C59.7144 53.1392 60.3208 52.5327 60.3208 51.7847C60.3208 51.0366 59.7144 50.4302 58.9663 50.4302C58.2182 50.4302 57.6118 51.0366 57.6118 51.7847C57.6118 52.5327 58.2182 53.1392 58.9663 53.1392Z" fill="white"/>
<path d="M40.0683 43.796C39.8515 43.7952 39.6438 43.7088 39.4905 43.5554C39.3372 43.4021 39.2507 43.1944 39.25 42.9776V41.0644C39.25 40.847 39.3364 40.6385 39.4901 40.4847C39.6438 40.331 39.8523 40.2446 40.0698 40.2446C40.2872 40.2446 40.4957 40.331 40.6494 40.4847C40.8031 40.6385 40.8895 40.847 40.8895 41.0644V42.9776C40.8888 43.1949 40.8019 43.403 40.648 43.5564C40.4941 43.7098 40.2856 43.796 40.0683 43.796Z" fill="#FE6A84"/>
<path d="M37.0263 45.0659C36.8093 45.0658 36.6012 44.9795 36.4478 44.826L35.0962 43.4743C34.9424 43.3205 34.856 43.1119 34.856 42.8944C34.856 42.6769 34.9424 42.4683 35.0962 42.3145C35.25 42.1607 35.4585 42.0743 35.6761 42.0743C35.8936 42.0743 36.1021 42.1607 36.2559 42.3145L37.6076 43.6662C37.727 43.7798 37.8092 43.9268 37.8437 44.088C37.8781 44.2491 37.8631 44.4169 37.8006 44.5694C37.738 44.7218 37.631 44.8519 37.4933 44.9425C37.3557 45.0331 37.1939 45.08 37.0291 45.0772L37.0263 45.0659Z" fill="#FE6A84"/>
<path d="M35.7735 48.1078H33.8603C33.6429 48.1078 33.4344 48.0214 33.2806 47.8677C33.1269 47.7139 33.0405 47.5054 33.0405 47.288C33.0405 47.0706 33.1269 46.8621 33.2806 46.7084C33.4344 46.5546 33.6429 46.4683 33.8603 46.4683H35.7735C35.9909 46.4683 36.1994 46.5546 36.3532 46.7084C36.5069 46.8621 36.5933 47.0706 36.5933 47.288C36.5933 47.5054 36.5069 47.7139 36.3532 47.8677C36.1994 48.0214 35.9909 48.1078 35.7735 48.1078Z" fill="#FE6A84"/>
<path d="M35.6719 52.5043C35.5072 52.5071 35.3454 52.4602 35.2078 52.3696C35.0701 52.279 34.963 52.149 34.9005 51.9965C34.838 51.844 34.823 51.6762 34.8574 51.5151C34.8918 51.354 34.9741 51.207 35.0935 51.0933L36.4451 49.7417C36.5989 49.5879 36.8075 49.5015 37.025 49.5015C37.2425 49.5015 37.4511 49.5879 37.6049 49.7417C37.7587 49.8955 37.8451 50.1041 37.8451 50.3216C37.8451 50.5391 37.7587 50.7477 37.6049 50.9015L36.2532 52.2531C36.1779 52.3315 36.0877 52.3941 35.9879 52.4372C35.8881 52.4803 35.7807 52.5031 35.6719 52.5043Z" fill="#FE6A84"/>
<path d="M40.0683 54.3244C39.8515 54.3237 39.6438 54.2372 39.4905 54.0839C39.3372 53.9306 39.2507 53.7229 39.25 53.5061V51.5928C39.25 51.3754 39.3364 51.1669 39.4901 51.0132C39.6438 50.8594 39.8523 50.7731 40.0698 50.7731C40.2872 50.7731 40.4957 50.8594 40.6494 51.0132C40.8031 51.1669 40.8895 51.3754 40.8895 51.5928V53.5061C40.8888 53.7233 40.8019 53.9315 40.648 54.0849C40.4941 54.2383 40.2856 54.3244 40.0683 54.3244Z" fill="#FE6A84"/>
<path d="M44.4619 52.5042C44.2449 52.5041 44.0368 52.4178 43.8834 52.2644L42.5317 50.9127C42.4556 50.8365 42.3951 50.7461 42.3539 50.6466C42.3127 50.5471 42.2915 50.4405 42.2915 50.3328C42.2915 50.2251 42.3127 50.1185 42.3539 50.019C42.3951 49.9195 42.4556 49.829 42.5317 49.7529C42.6079 49.6767 42.6983 49.6163 42.7978 49.5751C42.8973 49.5339 43.0039 49.5127 43.1116 49.5127C43.2193 49.5127 43.3259 49.5339 43.4254 49.5751C43.5249 49.6163 43.6153 49.6767 43.6915 49.7529L45.0432 51.1046C45.1625 51.2182 45.2448 51.3652 45.2792 51.5263C45.3136 51.6875 45.2986 51.8553 45.2361 52.0077C45.1736 52.1602 45.0665 52.2902 44.9289 52.3808C44.7912 52.4714 44.6294 52.5184 44.4647 52.5155L44.4619 52.5042Z" fill="#FE6A84"/>
<path d="M46.2847 48.1078H44.3715C44.1541 48.1078 43.9456 48.0214 43.7919 47.8677C43.6381 47.7139 43.5518 47.5054 43.5518 47.288C43.5518 47.0706 43.6381 46.8621 43.7919 46.7084C43.9456 46.5546 44.1541 46.4683 44.3715 46.4683H46.2847C46.5022 46.4683 46.7107 46.5546 46.8644 46.7084C47.0181 46.8621 47.1045 47.0706 47.1045 47.288C47.1045 47.5054 47.0181 47.7139 46.8644 47.8677C46.7107 48.0214 46.5022 48.1078 46.2847 48.1078Z" fill="#FE6A84"/>
<path d="M43.1104 45.0658C42.9457 45.0687 42.7839 45.0217 42.6462 44.9311C42.5086 44.8405 42.4015 44.7105 42.339 44.558C42.2765 44.4056 42.2615 44.2378 42.2959 44.0766C42.3303 43.9155 42.4126 43.7685 42.5319 43.6549L43.8836 42.3032C44.0374 42.1494 44.246 42.063 44.4635 42.063C44.681 42.063 44.8896 42.1494 45.0434 42.3032C45.1972 42.457 45.2836 42.6656 45.2836 42.8831C45.2836 43.1006 45.1972 43.3092 45.0434 43.463L43.6917 44.8147C43.6164 44.893 43.5262 44.9556 43.4263 44.9987C43.3265 45.0419 43.2191 45.0647 43.1104 45.0658Z" fill="#FE6A84"/>
<defs>
<radialGradient id="paint0_radial_0_1" cx="0" cy="0" r="1" gradientUnits="userSpaceOnUse" gradientTransform="translate(40.5 40.057) scale(39.5824)">
<stop stop-color="#FE6A84"/>
<stop offset="0.993" stop-color="#FE6A84" stop-opacity="0"/>
</radialGradient>
</defs>
</svg>
