<svg width="81" height="81" viewBox="0 0 81 81" fill="none" xmlns="http://www.w3.org/2000/svg">
<path d="M40.5 80.057C62.5914 80.057 80.5 62.1484 80.5 40.057C80.5 17.9656 62.5914 0.0570068 40.5 0.0570068C18.4086 0.0570068 0.5 17.9656 0.5 40.057C0.5 62.1484 18.4086 80.057 40.5 80.057Z" fill="url(#paint0_radial_0_1)"/>
<path d="M51.6154 55.0072H48.0231L47.0326 51.1046H49.008C49.1279 51.1045 49.2464 51.0773 49.3544 51.0251C49.4624 50.9728 49.5571 50.8967 49.6316 50.8026L51.6859 48.263C51.7805 48.1457 51.8406 48.0044 51.8596 47.8549C51.8785 47.7054 51.8555 47.5536 51.7931 47.4164C51.7281 47.2776 51.6247 47.1604 51.4952 47.0784C51.3657 46.9964 51.2155 46.9531 51.0623 46.9536H29.9349C29.7817 46.9531 29.6315 46.9964 29.502 47.0784C29.3725 47.1604 29.2691 47.2776 29.2041 47.4164C29.1417 47.5536 29.1187 47.7054 29.1376 47.8549C29.1566 48.0044 29.2167 48.1457 29.3113 48.263L31.3656 50.8026C31.4401 50.8967 31.5349 50.9728 31.6429 51.0251C31.7508 51.0773 31.8693 51.1045 31.9893 51.1046H33.9646L32.9741 55.0072H29.3762C28.6318 55.0306 27.9256 55.3427 27.4073 55.8776C26.889 56.4125 26.5991 57.128 26.5991 57.8728C26.5991 58.6177 26.889 59.3332 27.4073 59.8681C27.9256 60.4029 28.6318 60.7151 29.3762 60.7385H51.6154C52.3598 60.7151 53.0659 60.4029 53.5843 59.8681C54.1026 59.3332 54.3924 58.6177 54.3924 57.8728C54.3924 57.128 54.1026 56.4125 53.5843 55.8776C53.0659 55.3427 52.3598 55.0306 51.6154 55.0072ZM49.3579 48.5762L48.6157 49.4905H46.6263L46.4005 48.5762H49.3579ZM35.6238 51.1159L36.0217 49.5018L36.2587 48.5875H44.7244L44.9614 49.5018L45.3593 51.1159L46.3497 55.0185H34.6446L35.6238 51.1159ZM32.3871 49.4905L31.645 48.5762H34.6023L34.3766 49.4905H32.3871ZM51.6266 59.1272H29.3762C29.0439 59.1272 28.7252 58.9952 28.4903 58.7602C28.2553 58.5252 28.1233 58.2065 28.1233 57.8743C28.1233 57.542 28.2553 57.2233 28.4903 56.9883C28.7252 56.7533 29.0439 56.6213 29.3762 56.6213H51.6154C51.9477 56.6213 52.2663 56.7533 52.5013 56.9883C52.7363 57.2233 52.8683 57.542 52.8683 57.8743C52.8683 58.2065 52.7363 58.5252 52.5013 58.7602C52.2663 58.9952 51.9477 59.1272 51.6154 59.1272H51.6266Z" fill="#FE6A84"/>
<path d="M32.0681 20.7497C31.923 20.7494 31.7806 20.7099 31.656 20.6354C31.5314 20.5609 31.4292 20.4542 31.3602 20.3265C31.2912 20.1989 31.2578 20.0549 31.2637 19.9099C31.2696 19.7649 31.3145 19.6241 31.3937 19.5025C31.5543 19.3156 31.6686 19.0936 31.7275 18.8544C31.7863 18.6151 31.788 18.3654 31.7323 18.1254C31.5909 17.9089 31.4009 17.7284 31.1776 17.5981C30.9542 17.4678 30.7036 17.3914 30.4455 17.3748C30.2855 17.3452 30.1382 17.2679 30.0229 17.1531C29.9075 17.0383 29.8296 16.8913 29.7993 16.7314C29.6214 16.5973 29.4182 16.5006 29.2019 16.4472C28.9855 16.3939 28.7607 16.385 28.5408 16.421C28.2817 16.4437 28.0371 16.5506 27.8445 16.7254C27.6519 16.9002 27.5218 17.1332 27.4741 17.3889C27.4334 17.5451 27.3469 17.6857 27.2258 17.7924C26.6332 18.3144 27.3612 19.4855 27.3697 19.5053C27.4777 19.6844 27.5119 19.8985 27.4651 20.1024C27.4183 20.3062 27.2942 20.484 27.119 20.5981C26.9437 20.7123 26.731 20.7539 26.5256 20.7143C26.3202 20.6747 26.1382 20.5569 26.018 20.3857C25.6256 19.8645 25.4101 19.2315 25.403 18.5791C25.3959 17.9268 25.5976 17.2892 25.9785 16.7596C26.1675 16.2626 26.4832 15.8237 26.8943 15.4864C27.3054 15.1492 27.7976 14.9254 28.3219 14.8372C28.8463 14.7491 29.3846 14.7996 29.8834 14.9839C30.3821 15.1682 30.824 15.4797 31.1651 15.8876C31.6061 15.9812 32.0199 16.1742 32.3749 16.452C32.73 16.7297 33.0169 17.0849 33.2138 17.4905C33.3905 17.9708 33.4402 18.4887 33.3581 18.9939C33.2761 19.4991 33.065 19.9746 32.7454 20.3744C32.673 20.4887 32.573 20.583 32.4547 20.6486C32.3363 20.7142 32.2034 20.7489 32.0681 20.7497Z" fill="#FE6A84"/>
<path d="M53.8926 20.7498C53.7475 20.7495 53.6051 20.71 53.4805 20.6355C53.3559 20.561 53.2537 20.4543 53.1847 20.3266C53.1157 20.199 53.0823 20.055 53.0882 19.91C53.0941 19.765 53.139 19.6242 53.2182 19.5025C53.3791 19.3143 53.4932 19.0906 53.551 18.8498C53.6089 18.6089 53.609 18.3578 53.5512 18.117C53.4097 17.9006 53.2198 17.72 52.9964 17.5898C52.7731 17.4595 52.5224 17.383 52.2644 17.3664C52.1044 17.3368 51.957 17.2595 51.8417 17.1447C51.7264 17.0299 51.6485 16.8829 51.6182 16.723C51.4402 16.589 51.2369 16.4925 51.0206 16.4391C50.8043 16.3858 50.5795 16.3767 50.3596 16.4126C50.1005 16.4353 49.856 16.5422 49.6634 16.717C49.4708 16.8918 49.3407 17.1248 49.293 17.3805C49.2523 17.5368 49.1658 17.6773 49.0446 17.784C48.452 18.3061 49.1801 19.4772 49.1885 19.4969C49.2965 19.676 49.3307 19.8901 49.2839 20.094C49.2372 20.2978 49.1131 20.4756 48.9378 20.5898C48.7625 20.7039 48.5498 20.7456 48.3444 20.7059C48.1391 20.6663 47.9571 20.5485 47.8369 20.3773C47.4445 19.8561 47.229 19.2231 47.2219 18.5708C47.2148 17.9184 47.4164 17.2808 47.7974 16.7512C47.987 16.2542 48.3035 15.8155 48.7152 15.4787C49.127 15.142 49.6197 14.9188 50.1445 14.8315C50.6692 14.7442 51.2077 14.7957 51.7063 14.981C52.205 15.1663 52.6464 15.4789 52.9868 15.8877C53.4278 15.9813 53.8416 16.1743 54.1966 16.4521C54.5517 16.7298 54.8386 17.085 55.0355 17.4906C55.2125 17.9707 55.2627 18.4884 55.1811 18.9936C55.0996 19.4988 54.889 19.9745 54.5699 20.3745C54.4975 20.4888 54.3975 20.5831 54.2792 20.6487C54.1608 20.7143 54.0279 20.749 53.8926 20.7498Z" fill="#FE6A84"/>
<path d="M28.3686 39.4108C28.2235 39.4105 28.0811 39.371 27.9565 39.2965C27.8319 39.222 27.7297 39.1153 27.6607 38.9877C27.5916 38.86 27.5583 38.7161 27.5642 38.571C27.5701 38.426 27.615 38.2852 27.6942 38.1636C27.8548 37.9768 27.9691 37.7547 28.0279 37.5155C28.0868 37.2762 28.0884 37.0265 28.0328 36.7865C27.8915 36.5699 27.7016 36.3893 27.4782 36.259C27.2548 36.1287 27.0041 36.0523 26.746 36.0359C26.586 36.0063 26.4387 35.929 26.3233 35.8142C26.208 35.6994 26.1301 35.5524 26.0998 35.3925C25.9222 35.2579 25.7189 35.161 25.5025 35.1076C25.2861 35.0543 25.0611 35.0456 24.8413 35.0821C24.582 35.1044 24.3372 35.2111 24.1445 35.386C23.9518 35.5608 23.8219 35.7941 23.7746 36.05C23.7339 36.2063 23.6474 36.3468 23.5263 36.4535C22.9337 36.9756 23.6617 38.1467 23.6702 38.1664C23.7727 38.3454 23.8027 38.5568 23.7542 38.7572C23.7057 38.9577 23.5823 39.132 23.4093 39.2443C23.2363 39.3566 23.0269 39.3984 22.8241 39.3612C22.6212 39.3239 22.4403 39.2104 22.3185 39.044C21.9257 38.523 21.7099 37.8899 21.7028 37.2374C21.6957 36.585 21.8976 35.9474 22.279 35.4179C22.4686 34.809 22.8588 34.2822 23.3861 33.9235C23.9134 33.5648 24.5467 33.3953 25.1827 33.4426C25.6214 33.4382 26.0552 33.5344 26.4509 33.7237C26.8466 33.913 27.1937 34.1904 27.4656 34.5347C27.9462 34.6146 28.3965 34.8221 28.7694 35.1355C29.1424 35.449 29.4243 35.8568 29.5858 36.3164C29.7473 36.776 29.7823 37.2706 29.6874 37.7484C29.5924 38.2262 29.3708 38.6698 29.0459 39.0327C28.974 39.1477 28.8742 39.2427 28.7558 39.3088C28.6374 39.3749 28.5042 39.41 28.3686 39.4108Z" fill="#FE6A84"/>
<path d="M58.1591 39.4108C58.014 39.4105 57.8716 39.371 57.747 39.2965C57.6224 39.222 57.5203 39.1153 57.4512 38.9877C57.3822 38.86 57.3488 38.7161 57.3547 38.571C57.3606 38.426 57.4055 38.2852 57.4847 38.1636C57.6453 37.9768 57.7596 37.7547 57.8185 37.5155C57.8773 37.2762 57.879 37.0265 57.8233 36.7865C57.682 36.5699 57.4921 36.3893 57.2687 36.259C57.0454 36.1287 56.7947 36.0523 56.5366 36.0359C56.3765 36.0063 56.2292 35.929 56.1139 35.8142C55.9986 35.6994 55.9206 35.5524 55.8903 35.3925C55.7126 35.2581 55.5094 35.1612 55.293 35.1079C55.0766 35.0545 54.8517 35.0457 54.6318 35.0821C54.3725 35.1044 54.1278 35.2111 53.935 35.386C53.7423 35.5608 53.6124 35.7941 53.5651 36.05C53.5244 36.2063 53.438 36.3468 53.3168 36.4535C52.7242 36.9756 53.4523 38.1467 53.4607 38.1664C53.5632 38.3454 53.5932 38.5568 53.5447 38.7572C53.4962 38.9577 53.3728 39.132 53.1998 39.2443C53.0268 39.3566 52.8174 39.3984 52.6146 39.3612C52.4117 39.3239 52.2308 39.2104 52.109 39.044C51.7162 38.523 51.5005 37.8899 51.4933 37.2374C51.4862 36.585 51.6881 35.9474 52.0695 35.4179C52.2591 34.809 52.6494 34.2822 53.1767 33.9235C53.704 33.5648 54.3372 33.3953 54.9732 33.4426C55.4119 33.4382 55.8457 33.5344 56.2414 33.7237C56.6371 33.913 56.9843 34.1904 57.2561 34.5347C57.7367 34.6146 58.187 34.8221 58.5599 35.1355C58.9329 35.449 59.2148 35.8568 59.3763 36.3164C59.5378 36.776 59.5729 37.2706 59.4779 37.7484C59.3829 38.2262 59.1614 38.6698 58.8364 39.0327C58.7645 39.1477 58.6648 39.2427 58.5464 39.3088C58.4279 39.3749 58.2947 39.41 58.1591 39.4108Z" fill="#FE6A84"/>
<path d="M60.7979 44.2757H44.733V32.4464H45.605C45.7215 32.4471 45.8367 32.4221 45.9425 32.3734C46.0483 32.3246 46.1421 32.2532 46.2173 32.1642L48.1306 29.9067H57.121C57.6913 29.9067 58.2382 29.6802 58.6415 29.2769C59.0447 28.8737 59.2713 28.3268 59.2713 27.7565C59.2713 27.1862 59.0447 26.6393 58.6415 26.236C58.2382 25.8327 57.6913 25.6062 57.121 25.6062H23.8681C23.2978 25.6062 22.7509 25.8327 22.3477 26.236C21.9444 26.6393 21.7179 27.1862 21.7179 27.7565C21.7179 28.3268 21.9444 28.8737 22.3477 29.2769C22.7509 29.6802 23.2978 29.9067 23.8681 29.9067H32.8586L34.7718 32.1642C34.8478 32.2523 34.9417 32.3231 35.0474 32.3718C35.153 32.4205 35.2679 32.4459 35.3842 32.4464H36.2561V44.2757H20.2025C19.6322 44.2757 19.0853 44.5022 18.682 44.9055C18.2788 45.3087 18.0522 45.8557 18.0522 46.426C18.0522 46.9962 18.2788 47.5432 18.682 47.9464C19.0853 48.3497 19.6322 48.5762 20.2025 48.5762H60.7979C61.3682 48.5762 61.9151 48.3497 62.3184 47.9464C62.7216 47.5432 62.9482 46.9962 62.9482 46.426C62.9482 45.8557 62.7216 45.3087 62.3184 44.9055C61.9151 44.5022 61.3682 44.2757 60.7979 44.2757ZM23.8681 28.2954C23.7252 28.2954 23.5881 28.2387 23.487 28.1376C23.3859 28.0365 23.3291 27.8994 23.3291 27.7565C23.3313 27.6142 23.3888 27.4784 23.4894 27.3778C23.59 27.2772 23.7259 27.2197 23.8681 27.2175H57.121C57.2633 27.2197 57.3991 27.2772 57.4997 27.3778C57.6003 27.4784 57.6578 27.6142 57.66 27.7565C57.66 27.8994 57.6032 28.0365 57.5021 28.1376C57.4011 28.2387 57.264 28.2954 57.121 28.2954H23.8681ZM35.7623 30.8351L34.9891 29.9096H45.9944L45.2212 30.8351H43.9203C43.814 30.834 43.7086 30.8541 43.6101 30.8943C43.5117 30.9344 43.4223 30.9938 43.3471 31.069C43.272 31.1442 43.2126 31.2336 43.1724 31.332C43.1322 31.4304 43.1121 31.5359 43.1133 31.6422V44.2757H37.8646V31.6394C37.8657 31.5331 37.8456 31.4276 37.8055 31.3292C37.7653 31.2307 37.7059 31.1413 37.6307 31.0662C37.5556 30.991 37.4661 30.9316 37.3677 30.8914C37.2693 30.8513 37.1638 30.8312 37.0575 30.8323L35.7623 30.8351ZM60.7979 46.9649H20.2025C20.0596 46.9649 19.9225 46.9081 19.8214 46.8071C19.7203 46.706 19.6635 46.5689 19.6635 46.426C19.6628 46.355 19.6762 46.2845 19.703 46.2188C19.7298 46.1531 19.7695 46.0934 19.8197 46.0432C19.8699 45.993 19.9296 45.9533 19.9954 45.9265C20.0611 45.8996 20.1315 45.8862 20.2025 45.887H60.7979C60.9409 45.887 61.078 45.9438 61.179 46.0448C61.2801 46.1459 61.3369 46.283 61.3369 46.426C61.3347 46.5682 61.2772 46.704 61.1766 46.8047C61.076 46.9053 60.9402 46.9627 60.7979 46.9649Z" fill="white"/>
<path d="M32.5341 27.2231H25.897C25.7106 27.2228 25.5301 27.158 25.3861 27.0397C25.242 26.9214 25.1434 26.7569 25.1069 26.5741L23.8173 20.0923C23.7944 19.9755 23.7976 19.8551 23.8267 19.7397C23.8558 19.6244 23.9101 19.5169 23.9856 19.4249C24.0611 19.3329 24.156 19.2588 24.2635 19.2078C24.371 19.1569 24.4885 19.1303 24.6074 19.13H33.8152C33.9342 19.1303 34.0516 19.1569 34.1591 19.2078C34.2666 19.2588 34.3615 19.3329 34.4371 19.4249C34.5126 19.5169 34.5668 19.6244 34.5959 19.7397C34.625 19.8551 34.6282 19.9755 34.6053 20.0923L33.327 26.5826C33.2887 26.7643 33.1889 26.9272 33.0445 27.0439C32.9 27.1606 32.7198 27.2239 32.5341 27.2231ZM26.5517 25.609H31.8709L32.8332 20.7469H25.5894L26.5517 25.609Z" fill="white"/>
<path d="M54.3581 27.2231H47.7126C47.5262 27.2228 47.3457 27.158 47.2017 27.0397C47.0576 26.9214 46.959 26.7569 46.9225 26.5741L45.6498 20.0923C45.6269 19.9755 45.6302 19.8551 45.6593 19.7397C45.6883 19.6244 45.7426 19.5169 45.8181 19.4249C45.8936 19.3329 45.9885 19.2588 46.096 19.2078C46.2035 19.1569 46.321 19.1303 46.44 19.13H55.6393C55.7582 19.1303 55.8757 19.1569 55.9832 19.2078C56.0907 19.2588 56.1856 19.3329 56.2611 19.4249C56.3366 19.5169 56.3909 19.6244 56.4199 19.7397C56.449 19.8551 56.4523 19.9755 56.4294 20.0923L55.1511 26.5826C55.1128 26.7643 55.013 26.9272 54.8685 27.0439C54.7241 27.1606 54.5438 27.2239 54.3581 27.2231ZM48.3758 25.609H53.695L54.6572 20.7469H47.4135L48.3758 25.609Z" fill="white"/>
<path d="M28.8344 45.887H22.1889C22.0025 45.8867 21.8219 45.8219 21.6779 45.7036C21.5339 45.5853 21.4352 45.4208 21.3987 45.238L20.1176 38.7646C20.0947 38.6479 20.0979 38.5275 20.127 38.4121C20.1561 38.2967 20.2104 38.1892 20.2859 38.0973C20.3614 38.0053 20.4563 37.9312 20.5638 37.8802C20.6713 37.8292 20.7887 37.8026 20.9077 37.8024H30.1296C30.2486 37.8026 30.366 37.8292 30.4735 37.8802C30.581 37.9312 30.676 38.0053 30.7515 38.0973C30.827 38.1892 30.8812 38.2967 30.9103 38.4121C30.9394 38.5275 30.9426 38.6479 30.9197 38.7646L29.6386 45.238C29.6016 45.4232 29.5009 45.5895 29.354 45.7081C29.207 45.8267 29.0232 45.89 28.8344 45.887ZM22.852 44.2729H28.1712L29.1335 39.4108H21.8897L22.852 44.2729Z" fill="white"/>
<path d="M58.6305 45.887H51.9794C51.793 45.8867 51.6124 45.8219 51.4684 45.7036C51.3244 45.5853 51.2258 45.4208 51.1893 45.238L49.9081 38.7646C49.8852 38.6479 49.8885 38.5275 49.9176 38.4121C49.9466 38.2967 50.0009 38.1892 50.0764 38.0973C50.1519 38.0053 50.2468 37.9312 50.3543 37.8802C50.4618 37.8292 50.5793 37.8026 50.6983 37.8024H59.906C60.025 37.8026 60.1425 37.8292 60.25 37.8802C60.3575 37.9312 60.4524 38.0053 60.5279 38.0973C60.6034 38.1892 60.6576 38.2967 60.6867 38.4121C60.7158 38.5275 60.719 38.6479 60.6961 38.7646L59.415 45.238C59.3787 45.4198 59.2809 45.5836 59.138 45.7018C58.9952 45.82 58.8159 45.8854 58.6305 45.887ZM52.6482 44.2729H57.9674L58.9296 39.4108H51.6803L52.6482 44.2729Z" fill="white"/>
<path d="M42.2522 23.0326C42.9754 23.0326 43.5616 22.4464 43.5616 21.7233C43.5616 21.0002 42.9754 20.4139 42.2522 20.4139C41.5291 20.4139 40.9429 21.0002 40.9429 21.7233C40.9429 22.4464 41.5291 23.0326 42.2522 23.0326Z" fill="#FE6A84"/>
<path d="M30.5217 34.828C31.2449 34.828 31.8311 34.2418 31.8311 33.5187C31.8311 32.7956 31.2449 32.2094 30.5217 32.2094C29.7986 32.2094 29.2124 32.7956 29.2124 33.5187C29.2124 34.2418 29.7986 34.828 30.5217 34.828Z" fill="white"/>
<path d="M27 53.1278C27.5158 53.1278 27.934 52.7097 27.934 52.1938C27.934 51.6779 27.5158 51.2598 27 51.2598C26.4841 51.2598 26.0659 51.6779 26.0659 52.1938C26.0659 52.7097 26.4841 53.1278 27 53.1278Z" fill="#FE6A84"/>
<path d="M55.6391 51.6916C56.155 51.6916 56.5732 51.2734 56.5732 50.7575C56.5732 50.2417 56.155 49.8235 55.6391 49.8235C55.1233 49.8235 54.7051 50.2417 54.7051 50.7575C54.7051 51.2734 55.1233 51.6916 55.6391 51.6916Z" fill="white"/>
<path d="M60.4423 32.9148C60.8319 32.9148 61.1478 32.599 61.1478 32.2094C61.1478 31.8198 60.8319 31.5039 60.4423 31.5039C60.0527 31.5039 59.7368 31.8198 59.7368 32.2094C59.7368 32.599 60.0527 32.9148 60.4423 32.9148Z" fill="#FE6A84"/>
<defs>
<radialGradient id="paint0_radial_0_1" cx="0" cy="0" r="1" gradientUnits="userSpaceOnUse" gradientTransform="translate(40.5 40.057) scale(39.5824)">
<stop stop-color="#FE6A84"/>
<stop offset="0.993" stop-color="#FE6A84" stop-opacity="0"/>
</radialGradient>
</defs>
</svg>
