<svg width="81" height="81" viewBox="0 0 81 81" fill="none" xmlns="http://www.w3.org/2000/svg">
<path d="M40.5 80.057C62.5914 80.057 80.5 62.1484 80.5 40.057C80.5 17.9656 62.5914 0.0570068 40.5 0.0570068C18.4086 0.0570068 0.5 17.9656 0.5 40.057C0.5 62.1484 18.4086 80.057 40.5 80.057Z" fill="url(#paint0_radial_0_1)"/>
<path d="M40.8527 52.8655C39.0621 52.794 37.305 52.3565 35.6899 51.58C34.0747 50.8034 32.6357 49.7044 31.4616 48.3505C31.3274 48.2127 31.2413 48.0354 31.2159 47.8448C31.1904 47.6542 31.2271 47.4604 31.3205 47.2923C32.0494 45.9718 33.0773 44.8402 34.3219 43.9881C35.5665 43.136 36.9932 42.587 38.488 42.3851C40.9927 42.0453 43.5422 42.4424 45.8249 43.5279C44.8058 41.4735 44.3538 39.1842 44.5155 36.8965C44.6227 35.2848 45.0876 33.7171 45.8763 32.3074C46.6651 30.8977 47.7581 29.6815 49.0757 28.747C49.2367 28.634 49.4306 28.5775 49.627 28.5862C49.8235 28.5949 50.0117 28.6683 50.1621 28.795C51.546 29.818 52.7028 31.1167 53.5595 32.6092C54.4163 34.1017 54.9544 35.7556 55.1399 37.4666C55.113 39.4495 54.6943 41.4075 53.9078 43.2279C53.1213 45.0484 51.9826 46.6953 50.5572 48.074V48.074C49.3752 49.4769 47.9195 50.6239 46.279 51.4449C44.6385 52.2658 42.8478 52.7435 41.0164 52.8486L40.8527 52.8655ZM33.2337 47.5914C34.233 48.656 35.4333 49.512 36.7652 50.1102C38.0971 50.7083 39.5343 51.0367 40.9938 51.0764C43.9047 50.9104 46.641 49.6337 48.6383 47.5096C47.3356 46.2654 45.7765 45.3212 44.0704 44.7431C42.3643 44.1649 40.5524 43.9669 38.7617 44.1629C37.6503 44.3112 36.583 44.6934 35.6301 45.2844C34.6772 45.8754 33.8605 46.6617 33.2337 47.5914V47.5914ZM49.5497 30.6602C48.5983 31.4478 47.819 32.4226 47.2603 33.524C46.7015 34.6255 46.3753 35.8301 46.3018 37.063C46.2117 38.7517 46.4828 40.4401 47.0969 42.0157C47.711 43.5914 48.654 45.0179 49.863 46.2003C52.0746 43.8747 53.322 40.797 53.3536 37.5879C53.0497 34.8612 51.6792 32.3656 49.5413 30.6461L49.5497 30.6602Z" fill="white"/>
<path d="M51.0905 63.0637C49.2999 62.992 47.5429 62.5544 45.9278 61.7779C44.3127 61.0014 42.8736 59.9024 41.6994 58.5487C41.5652 58.4109 41.4791 58.2336 41.4536 58.043C41.4282 57.8523 41.4649 57.6586 41.5583 57.4905C42.2893 56.171 43.3191 55.041 44.5652 54.1909C45.8113 53.3407 47.2391 52.794 48.7343 52.5946C51.239 52.2546 53.7885 52.6518 56.0711 53.7374C55.0521 51.683 54.6 49.3936 54.7618 47.106C54.8689 45.4942 55.3338 43.9265 56.1226 42.5169C56.9114 41.1072 58.0043 39.8909 59.3219 38.9565C59.483 38.8435 59.6768 38.787 59.8733 38.7957C60.0698 38.8043 60.2579 38.8777 60.4084 39.0044C61.7918 40.0272 62.9483 41.3256 63.805 42.8176C64.6617 44.3095 65.2001 45.9628 65.3861 47.6732C65.3592 49.6558 64.9407 51.6136 64.1547 53.434C63.3687 55.2543 62.2308 56.9014 60.8062 58.2806V58.2806C59.6242 59.6834 58.1684 60.8303 56.528 61.6513C54.8875 62.4722 53.0969 62.95 51.2655 63.0552L51.0905 63.0637ZM43.4715 57.7896C45.5014 59.9236 48.2881 61.1751 51.2316 61.2746C54.1425 61.1083 56.8786 59.8316 58.8761 57.7078C57.5739 56.4628 56.015 55.518 54.3087 54.9399C52.6024 54.3617 50.7903 54.1641 48.9995 54.361C47.8881 54.5094 46.8208 54.8916 45.8679 55.4826C44.915 56.0736 44.0983 56.8599 43.4715 57.7896V57.7896ZM59.7875 40.8584C58.8361 41.6459 58.0568 42.6207 57.4981 43.7222C56.9393 44.8237 56.6131 46.0283 56.5396 47.2612C56.4495 48.9499 56.7206 50.6383 57.3347 52.2139C57.9487 53.7895 58.8918 55.2161 60.1008 56.3984C62.3102 54.0799 63.5603 51.0111 63.5999 47.8087C63.3016 45.0747 61.9305 42.5709 59.7875 40.8471V40.8584Z" fill="white"/>
<path d="M63.9495 60.1628L35.3837 32.0006C35.7162 28.8118 34.7795 25.6205 32.7763 23.1173C31.5957 21.9674 30.1698 21.1001 28.6058 20.5805C27.0418 20.061 25.3803 19.9027 23.7463 20.1177C23.5458 20.1253 23.3536 20.1997 23.2003 20.3291C23.0469 20.4584 22.9411 20.6353 22.8998 20.8316C22.4459 22.342 22.3582 23.9388 22.6437 25.4899C22.9293 27.041 23.58 28.5018 24.5421 29.7515C25.7793 30.9221 27.2385 31.8328 28.8335 32.4299C30.4286 33.027 32.1272 33.2984 33.8289 33.2281H34.0913L62.6938 61.4468C62.8637 61.6111 63.0895 61.7048 63.3259 61.7092C63.502 61.7053 63.6731 61.6498 63.818 61.5496C63.9629 61.4494 64.0752 61.3088 64.141 61.1454C64.2068 60.982 64.2232 60.8028 64.1881 60.6302C64.1531 60.4575 64.0682 60.299 63.9439 60.1741L63.9495 60.1628ZM24.5223 21.8729C25.7852 21.756 27.0584 21.9137 28.2547 22.335C29.4509 22.7563 30.5419 23.4313 31.4528 24.3138C33.0415 26.3317 33.8149 28.8725 33.62 31.4334C30.767 31.5317 27.9907 30.4981 25.8966 28.5579C25.1799 27.6185 24.6842 26.5296 24.4462 25.3723C24.2083 24.2149 24.2343 23.0188 24.5223 21.8729V21.8729Z" fill="#FE6A84"/>
<path d="M44.2671 26.8393C44.1072 25.2368 43.6286 23.6824 42.8596 22.2674C42.0905 20.8525 41.0465 19.6054 39.7888 18.5995L39.7663 18.5769C38.2791 17.0898 35.2287 14.5755 35.0989 14.4683C35.0103 14.385 34.9056 14.3207 34.7912 14.2795C34.6768 14.2383 34.5551 14.221 34.4338 14.2287C34.3124 14.2364 34.194 14.2689 34.0857 14.3242C33.9774 14.3795 33.8816 14.4564 33.8042 14.5502C33.7269 14.6441 33.6696 14.7527 33.6359 14.8696C33.6022 14.9864 33.5928 15.1089 33.6084 15.2295C33.6239 15.3501 33.6641 15.4662 33.7263 15.5707C33.7885 15.6752 33.8715 15.7658 33.9701 15.8369C33.9927 15.8594 35.8636 17.4086 37.3564 18.7772C35.1744 20.6828 33.8378 23.3763 33.64 26.2665C33.4811 28.5503 33.933 30.8352 34.9493 32.8866C32.6648 31.807 30.1171 31.4102 27.6125 31.7437C26.3126 31.921 25.0623 32.3609 23.9378 33.0367C22.8133 33.7124 21.838 34.61 21.0714 35.6746C19.4149 33.9815 17.2139 31.2443 17.1885 31.2104C17.0375 31.0274 16.8205 30.9111 16.5844 30.8869C16.3484 30.8626 16.1122 30.9322 15.9271 31.0806C15.7442 31.2292 15.6277 31.4443 15.6034 31.6788C15.579 31.9132 15.6488 32.1477 15.7973 32.3307C17.3065 34.2252 18.9203 36.0341 20.6312 37.7487L20.6791 37.7854C21.8495 39.117 23.2787 40.1965 24.8796 40.9581C26.4806 41.7198 28.2197 42.1477 29.9913 42.2157H30.1578C31.8993 42.1745 33.6088 41.7394 35.1582 40.943C36.8741 40.0609 38.4154 38.8743 39.707 37.4411C41.1287 36.062 42.2635 34.4152 43.0461 32.5957C43.8287 30.7762 44.2437 28.8199 44.2671 26.8393V26.8393ZM30.1296 40.4238C28.6684 40.3897 27.2288 40.0636 25.8955 39.4646C24.5623 38.8656 23.3625 38.0058 22.3666 36.936C22.9952 36.0071 23.8137 35.2222 24.7681 34.6331C25.7225 34.044 26.791 33.6642 27.9031 33.5187C29.694 33.3198 31.5067 33.5165 33.2132 34.0947C34.9198 34.673 36.4786 35.6188 37.7797 36.8654C35.7816 38.9905 33.0421 40.2648 30.1296 40.4238V40.4238ZM39.0015 35.5307C37.7907 34.3503 36.8464 32.9245 36.2322 31.349C35.6179 29.7735 35.3479 28.0848 35.4403 26.3963C35.5125 25.1624 35.8384 23.9567 36.3977 22.8545C36.9571 21.7523 37.7378 20.7774 38.6911 19.9907C40.8282 21.7153 42.1974 24.2144 42.5007 26.9437C42.4592 30.1466 41.2059 33.2148 38.9931 35.5307H39.0015Z" fill="white"/>
<path d="M61.0911 26.5826C60.2386 26.5826 59.4051 26.3299 58.6962 25.8563C57.9872 25.3828 57.4346 24.7097 57.1081 23.9222C56.7815 23.1346 56.6958 22.2679 56.8617 21.4317C57.0277 20.5954 57.4378 19.8271 58.0402 19.2239C58.6427 18.6206 59.4104 18.2095 60.2465 18.0425C61.0825 17.8755 61.9493 17.9601 62.7373 18.2856C63.5252 18.6111 64.199 19.1628 64.6735 19.8712C65.148 20.5795 65.4018 21.4126 65.4029 22.2652C65.4029 23.4092 64.9488 24.5066 64.1404 25.3161C63.3319 26.1256 62.2352 26.5811 61.0911 26.5826V26.5826ZM61.0911 19.7424C60.5888 19.7424 60.0978 19.8914 59.6801 20.1704C59.2625 20.4495 58.937 20.8461 58.7448 21.3102C58.5525 21.7743 58.5022 22.2849 58.6002 22.7776C58.6982 23.2702 58.9401 23.7227 59.2953 24.0779C59.6505 24.4331 60.103 24.675 60.5956 24.773C61.0883 24.871 61.5989 24.8207 62.063 24.6285C62.5271 24.4362 62.9237 24.1107 63.2028 23.6931C63.4818 23.2754 63.6308 22.7844 63.6308 22.2821C63.6315 21.9481 63.5664 21.6172 63.4391 21.3085C63.3118 20.9997 63.1248 20.719 62.8889 20.4826C62.653 20.2462 62.3728 20.0586 62.0643 19.9306C61.7558 19.8026 61.4251 19.7368 61.0911 19.7368V19.7424Z" fill="#FE6A84"/>
<path d="M21.0547 56.8273C20.3291 56.8273 19.6199 56.6122 19.0166 56.2091C18.4133 55.806 17.9431 55.2331 17.6655 54.5628C17.3878 53.8924 17.3152 53.1548 17.4567 52.4432C17.5983 51.7316 17.9477 51.078 18.4607 50.5649C18.9737 50.0519 19.6274 49.7025 20.339 49.561C21.0506 49.4194 21.7882 49.4921 22.4585 49.7697C23.1288 50.0474 23.7018 50.5176 24.1048 51.1208C24.5079 51.7241 24.7231 52.4334 24.7231 53.1589C24.7231 54.1318 24.3366 55.0649 23.6486 55.7529C22.9607 56.4408 22.0276 56.8273 21.0547 56.8273V56.8273ZM21.0547 51.2711C20.6818 51.2711 20.3174 51.3816 20.0074 51.5888C19.6974 51.7959 19.4558 52.0903 19.3131 52.4347C19.1705 52.7792 19.1331 53.1582 19.2059 53.5238C19.2786 53.8895 19.4581 54.2254 19.7218 54.489C19.9854 54.7526 20.3213 54.9321 20.6869 55.0049C21.0526 55.0776 21.4316 55.0403 21.776 54.8976C22.1205 54.7549 22.4149 54.5133 22.622 54.2033C22.8291 53.8934 22.9397 53.5289 22.9397 53.1561C22.9397 52.6559 22.7412 52.1761 22.3877 51.8222C22.0343 51.4682 21.5549 51.269 21.0547 51.2683V51.2711Z" fill="#FE6A84"/>
<path d="M36.6846 65.8574C36.0661 65.8579 35.4613 65.675 34.9468 65.3318C34.4323 64.9886 34.0311 64.5005 33.794 63.9292C33.5569 63.358 33.4946 62.7292 33.6149 62.1225C33.7352 61.5158 34.0328 60.9584 34.4699 60.5209C34.9071 60.0833 35.4642 59.7853 36.0708 59.6644C36.6774 59.5435 37.3062 59.6053 37.8777 59.8419C38.4491 60.0784 38.9376 60.4792 39.2813 60.9934C39.625 61.5076 39.8084 62.1122 39.8084 62.7308C39.8077 63.5593 39.4784 64.3537 38.8928 64.9398C38.3073 65.5259 37.5131 65.8559 36.6846 65.8574V65.8574ZM36.6846 61.3904C36.4195 61.3904 36.1604 61.469 35.9399 61.6163C35.7195 61.7635 35.5477 61.9729 35.4463 62.2178C35.3448 62.4627 35.3183 62.7322 35.37 62.9923C35.4217 63.2523 35.5494 63.4911 35.7368 63.6786C35.9243 63.866 36.1631 63.9937 36.4231 64.0454C36.6831 64.0971 36.9527 64.0706 37.1976 63.9691C37.4425 63.8677 37.6518 63.6959 37.7991 63.4754C37.9464 63.255 38.025 62.9959 38.025 62.7308C38.0243 62.3755 37.8828 62.035 37.6316 61.7838C37.3804 61.5326 37.0399 61.3911 36.6846 61.3904V61.3904Z" fill="#FE6A84"/>
<path d="M23.8959 45.4383C24.3136 45.4383 24.6522 45.0997 24.6522 44.682C24.6522 44.2644 24.3136 43.9258 23.8959 43.9258C23.4782 43.9258 23.1396 44.2644 23.1396 44.682C23.1396 45.0997 23.4782 45.4383 23.8959 45.4383Z" fill="white"/>
<path d="M58.557 34.6841C59.0463 34.6841 59.443 34.2874 59.443 33.7981C59.443 33.3087 59.0463 32.912 58.557 32.912C58.0676 32.912 57.6709 33.3087 57.6709 33.7981C57.6709 34.2874 58.0676 34.6841 58.557 34.6841Z" fill="white"/>
<path d="M51.9538 22.6376C52.6567 22.6376 53.2265 22.0678 53.2265 21.3649C53.2265 20.6621 52.6567 20.0923 51.9538 20.0923C51.2509 20.0923 50.6812 20.6621 50.6812 21.3649C50.6812 22.0678 51.2509 22.6376 51.9538 22.6376Z" fill="white"/>
<defs>
<radialGradient id="paint0_radial_0_1" cx="0" cy="0" r="1" gradientUnits="userSpaceOnUse" gradientTransform="translate(40.5 40.057) scale(39.5824)">
<stop stop-color="#FE6A84"/>
<stop offset="0.993" stop-color="#FE6A84" stop-opacity="0"/>
</radialGradient>
</defs>
</svg>
