<svg width="81" height="81" viewBox="0 0 81 81" fill="none" xmlns="http://www.w3.org/2000/svg">
<g clip-path="url(#clip0_711_1586)">
<path d="M40.5 80.057C62.5914 80.057 80.5 62.1484 80.5 40.057C80.5 17.9656 62.5914 0.0570068 40.5 0.0570068C18.4086 0.0570068 0.5 17.9656 0.5 40.057C0.5 62.1484 18.4086 80.057 40.5 80.057Z" fill="url(#paint0_radial_711_1586)"/>
<path d="M58.1818 51.8242C58.8656 51.0267 59.241 50.0106 59.24 48.96V48.4888C59.24 47.3179 58.7748 46.195 57.9469 45.367C57.119 44.5391 55.996 44.074 54.8251 44.074C53.6543 44.074 52.5313 44.5391 51.7034 45.367C50.8755 46.195 50.4103 47.3179 50.4103 48.4888V48.96C50.4093 50.0106 50.7847 51.0267 51.4685 51.8242C49.8722 52.2392 48.5041 53.2675 47.6618 54.6856C46.8195 53.2675 45.4515 52.2392 43.8551 51.8242C44.5389 51.0267 44.9144 50.0106 44.9133 48.96V48.4888C44.9133 47.3179 44.4482 46.195 43.6203 45.367C42.7923 44.5391 41.6694 44.074 40.4985 44.074C39.3276 44.074 38.2047 44.5391 37.3768 45.367C36.5488 46.195 36.0837 47.3179 36.0837 48.4888V48.96C36.0827 50.0106 36.4581 51.0267 37.1419 51.8242C35.5455 52.2392 34.1775 53.2675 33.3352 54.6856C32.4929 53.2675 31.1249 52.2392 29.5285 51.8242C30.2123 51.0267 30.5877 50.0106 30.5867 48.96V48.4888C30.5867 47.3179 30.1216 46.195 29.2936 45.367C28.4657 44.5391 27.3428 44.074 26.1719 44.074C25.001 44.074 23.8781 44.5391 23.0501 45.367C22.2222 46.195 21.7571 47.3179 21.7571 48.4888V48.96C21.756 50.0106 22.1315 51.0267 22.8153 51.8242C21.4765 52.1704 20.2904 52.9512 19.4432 54.0441C18.5959 55.137 18.1354 56.4802 18.1338 57.863V61.5456C18.1338 61.7776 18.226 62.0001 18.39 62.1641C18.5541 62.3282 18.7766 62.4204 19.0086 62.4204H61.9885C62.2205 62.4204 62.443 62.3282 62.607 62.1641C62.7711 62.0001 62.8632 61.7776 62.8632 61.5456V57.863C62.8617 56.4802 62.4011 55.137 61.5539 54.0441C60.7066 52.9512 59.5206 52.1704 58.1818 51.8242ZM52.1599 48.4888C52.1599 47.7815 52.4408 47.1033 52.9409 46.6032C53.441 46.1031 54.1193 45.8221 54.8266 45.8221C55.5338 45.8221 56.2121 46.1031 56.7122 46.6032C57.2123 47.1033 57.4932 47.7815 57.4932 48.4888V48.96C57.4932 49.6673 57.2123 50.3456 56.7122 50.8457C56.2121 51.3458 55.5338 51.6267 54.8266 51.6267C54.1193 51.6267 53.441 51.3458 52.9409 50.8457C52.4408 50.3456 52.1599 49.6673 52.1599 48.96V48.4888ZM37.8333 48.4888C37.8333 47.7815 38.1142 47.1033 38.6143 46.6032C39.1144 46.1031 39.7927 45.8221 40.4999 45.8221C41.2072 45.8221 41.8854 46.1031 42.3855 46.6032C42.8856 47.1033 43.1666 47.7815 43.1666 48.4888V48.96C43.1666 49.6673 42.8856 50.3456 42.3855 50.8457C41.8854 51.3458 41.2072 51.6267 40.4999 51.6267C39.7927 51.6267 39.1144 51.3458 38.6143 50.8457C38.1142 50.3456 37.8333 49.6673 37.8333 48.96V48.4888ZM23.5066 48.4888C23.5066 47.7815 23.7876 47.1033 24.2877 46.6032C24.7878 46.1031 25.4661 45.8221 26.1733 45.8221C26.8805 45.8221 27.5588 46.1031 28.0589 46.6032C28.559 47.1033 28.84 47.7815 28.84 48.4888V48.96C28.84 49.6673 28.559 50.3456 28.0589 50.8457C27.5588 51.3458 26.8805 51.6267 26.1733 51.6267C25.4661 51.6267 24.7878 51.3458 24.2877 50.8457C23.7876 50.3456 23.5066 49.6673 23.5066 48.96V48.4888ZM19.8833 57.863C19.8848 56.6735 20.358 55.5332 21.1991 54.6921C22.0403 53.851 23.1806 53.3778 24.3701 53.3763H27.9765C29.166 53.3778 30.3063 53.851 31.1474 54.6921C31.9886 55.5332 32.4617 56.6735 32.4632 57.863V60.6849H19.8833V57.863ZM34.21 57.863C34.2115 56.6735 34.6847 55.5332 35.5258 54.6921C36.3669 53.851 37.5072 53.3778 38.6968 53.3763H42.3031C43.4926 53.3778 44.633 53.851 45.4741 54.6921C46.3152 55.5332 46.7884 56.6735 46.7899 57.863V60.6849H34.21V57.863ZM61.1165 60.6849H48.5366V57.863C48.5381 56.6735 49.0113 55.5332 49.8524 54.6921C50.6935 53.851 51.8339 53.3778 53.0234 53.3763H56.6297C57.8192 53.3778 58.9596 53.851 59.8007 54.6921C60.6418 55.5332 61.115 56.6735 61.1165 57.863V60.6849Z" fill="#FE6A84"/>
<path d="M24.8922 35.2175V40.0683C24.8912 40.2343 24.9375 40.3971 25.0258 40.5376C25.1141 40.6781 25.2406 40.7905 25.3905 40.8617C25.5404 40.9328 25.7076 40.9596 25.8722 40.9391C26.0369 40.9185 26.1923 40.8514 26.3201 40.7456L31.2584 36.7047H36.7046L39.8284 40.6129C39.9126 40.7181 40.02 40.8023 40.1421 40.8591C40.2642 40.9159 40.3977 40.9438 40.5324 40.9405C40.667 40.9372 40.7991 40.9029 40.9183 40.8402C41.0375 40.7775 41.1406 40.6882 41.2196 40.5791L44.0048 36.7047H49.7896L54.7025 40.7428C54.8305 40.8472 54.9855 40.9133 55.1495 40.9333C55.3135 40.9534 55.4798 40.9266 55.6292 40.856C55.7786 40.7854 55.9049 40.674 55.9936 40.5346C56.0823 40.3952 56.1297 40.2335 56.1303 40.0683V35.2034C57.8592 34.0948 59.1826 32.4561 59.9024 30.5326C60.6222 28.6091 60.6998 26.5042 60.1235 24.533C59.5472 22.5617 58.348 20.8301 56.7055 19.5972C55.0629 18.3643 53.0652 17.6965 51.0115 17.6937H29.9998C27.9429 17.6942 25.9416 18.3618 24.2963 19.5963C22.651 20.8308 21.4505 22.5656 20.8749 24.5404C20.2993 26.5151 20.3798 28.6233 21.1041 30.5485C21.8285 32.4737 23.1577 34.112 24.8922 35.2175V35.2175ZM29.9998 19.4433H51.0115C52.7246 19.4438 54.3895 20.0111 55.7464 21.0569C57.1033 22.1027 58.0761 23.5681 58.5129 25.2246C58.9497 26.8812 58.8261 28.6357 58.1614 30.2146C57.4966 31.7935 56.3281 33.1081 54.8379 33.9533C54.7035 34.0293 54.5916 34.1396 54.5138 34.273C54.4359 34.4063 54.3949 34.558 54.3949 34.7124V38.2228L50.67 35.1611C50.5111 35.0308 50.3112 34.9608 50.1057 34.9636H43.5561C43.4176 34.9636 43.2811 34.9967 43.158 35.06C43.0348 35.1233 42.9285 35.215 42.8478 35.3276L40.4746 38.6292L37.8079 35.2937C37.7259 35.1915 37.622 35.109 37.5038 35.0523C37.3856 34.9957 37.2561 34.9663 37.1251 34.9664H30.9339C30.7284 34.9639 30.5286 35.0338 30.3695 35.1639L26.6362 38.2228V34.7265C26.6366 34.5716 26.5959 34.4194 26.518 34.2855C26.4401 34.1516 26.328 34.0408 26.1931 33.9646C24.699 33.123 23.5257 31.8101 22.8566 30.2311C22.1876 28.6521 22.0604 26.8959 22.4949 25.237C22.9295 23.5781 23.9013 22.1098 25.2586 21.0616C26.6159 20.0134 28.2821 19.4443 29.997 19.4433H29.9998Z" fill="white"/>
<path d="M51.0116 22.9339H51.0455C51.2686 22.9212 51.4783 22.8236 51.6317 22.6612C51.7851 22.4989 51.8706 22.2839 51.8706 22.0605C51.8706 21.8371 51.7851 21.6222 51.6317 21.4598C51.4783 21.2974 51.2686 21.1998 51.0455 21.1871H51.0116C50.7886 21.1998 50.5789 21.2974 50.4254 21.4598C50.272 21.6222 50.1865 21.8371 50.1865 22.0605C50.1865 22.2839 50.272 22.4989 50.4254 22.6612C50.5789 22.8236 50.7886 22.9212 51.0116 22.9339V22.9339Z" fill="white"/>
<path d="M53.7996 23.9864C54.2449 24.3741 54.6046 24.85 54.8561 25.3841C55.1076 25.9182 55.2453 26.4988 55.2604 27.089C55.2755 27.6791 55.1678 28.266 54.944 28.8123C54.7202 29.3585 54.3853 29.8523 53.9604 30.2623C53.8696 30.3398 53.7955 30.4351 53.7429 30.5423C53.6903 30.6495 53.6602 30.7664 53.6544 30.8857C53.6487 31.005 53.6674 31.1242 53.7095 31.236C53.7516 31.3478 53.8161 31.4498 53.8991 31.5356C53.9821 31.6215 54.0818 31.6895 54.1921 31.7354C54.3024 31.7813 54.4209 31.8041 54.5403 31.8025C54.6597 31.8008 54.7776 31.7747 54.8865 31.7258C54.9955 31.6769 55.0933 31.6062 55.1738 31.518C55.7724 30.94 56.2443 30.244 56.5596 29.474C56.8749 28.704 57.0268 27.8769 57.0056 27.0451C56.9844 26.2133 56.7905 25.395 56.4363 24.6421C56.0821 23.8892 55.5753 23.2181 54.9481 22.6714C54.7716 22.5363 54.5504 22.4734 54.3292 22.4956C54.1081 22.5177 53.9036 22.6232 53.7574 22.7905C53.6112 22.9579 53.5342 23.1747 53.542 23.3968C53.5499 23.6189 53.642 23.8297 53.7996 23.9864V23.9864Z" fill="white"/>
<path d="M37.8134 29.9463C38.5076 30.5847 39.2439 31.1758 40.0173 31.7156C40.1622 31.8138 40.3332 31.8664 40.5083 31.8664C40.6833 31.8664 40.8544 31.8138 40.9993 31.7156C41.7727 31.1758 42.5089 30.5847 43.2032 29.9463C43.8378 29.4909 44.3754 28.9139 44.7848 28.2487C45.1942 27.5835 45.4671 26.8435 45.5876 26.0718C45.6158 25.1642 45.2834 24.2824 44.6631 23.6192C44.0428 22.9561 43.1851 22.5656 42.2776 22.5332C41.6464 22.5351 41.0302 22.7257 40.5083 23.0806C39.9862 22.7259 39.3701 22.5353 38.739 22.5332C37.8315 22.5656 36.9738 22.9561 36.3535 23.6192C35.7331 24.2824 35.4007 25.1642 35.4289 26.0718C35.5494 26.8435 35.8223 27.5835 36.2317 28.2487C36.6411 28.9139 37.1788 29.4909 37.8134 29.9463V29.9463ZM38.739 24.2771C38.9513 24.2795 39.1605 24.3282 39.3521 24.4199C39.5436 24.5115 39.7128 24.6438 39.848 24.8076C39.9301 24.9021 40.0315 24.9779 40.1454 25.0298C40.2593 25.0818 40.3831 25.1086 40.5083 25.1086C40.6335 25.1086 40.7572 25.0818 40.8711 25.0298C40.985 24.9779 41.0865 24.9021 41.1686 24.8076C41.3037 24.6438 41.4729 24.5115 41.6645 24.4199C41.856 24.3282 42.0653 24.2795 42.2776 24.2771C42.7214 24.3104 43.1342 24.5171 43.4268 24.8524C43.7193 25.1878 43.8681 25.6248 43.8409 26.069C43.8409 27.0454 42.001 28.809 40.5083 29.918C39.0183 28.8119 37.1841 27.051 37.1841 26.0718C37.1568 25.6285 37.3048 25.1923 37.5962 24.8571C37.8876 24.5219 38.299 24.3146 38.7418 24.2799L38.739 24.2771Z" fill="#FE6A84"/>
<path d="M15.14 37.729C16.0813 37.729 16.8444 36.9659 16.8444 36.0246C16.8444 35.0833 16.0813 34.3202 15.14 34.3202C14.1986 34.3202 13.4355 35.0833 13.4355 36.0246C13.4355 36.9659 14.1986 37.729 15.14 37.729Z" fill="white"/>
<path d="M48.8669 14.1212C49.562 14.1212 50.1255 13.5578 50.1255 12.8627C50.1255 12.1676 49.562 11.6041 48.8669 11.6041C48.1719 11.6041 47.6084 12.1676 47.6084 12.8627C47.6084 13.5578 48.1719 14.1212 48.8669 14.1212Z" fill="white"/>
<path d="M66.5063 54.9537C67.0502 54.9537 67.4911 54.5127 67.4911 53.9688C67.4911 53.4249 67.0502 52.984 66.5063 52.984C65.9624 52.984 65.5215 53.4249 65.5215 53.9688C65.5215 54.5127 65.9624 54.9537 66.5063 54.9537Z" fill="white"/>
<path d="M8.59572 54.0139C10.1059 54.0139 11.3301 52.7897 11.3301 51.2796C11.3301 49.7694 10.1059 48.5452 8.59572 48.5452C7.08556 48.5452 5.86133 49.7694 5.86133 51.2796C5.86133 52.7897 7.08556 54.0139 8.59572 54.0139Z" stroke="white" stroke-width="0.5" stroke-miterlimit="10"/>
<path d="M32.4322 7.58297C33.5247 7.58297 34.4104 6.69733 34.4104 5.60484C34.4104 4.51235 33.5247 3.62671 32.4322 3.62671C31.3397 3.62671 30.4541 4.51235 30.4541 5.60484C30.4541 6.69733 31.3397 7.58297 32.4322 7.58297Z" stroke="white" stroke-width="0.5" stroke-miterlimit="10"/>
<path d="M71.5206 30.5106C72.8812 30.5106 73.9841 29.4077 73.9841 28.0471C73.9841 26.6866 72.8812 25.5836 71.5206 25.5836C70.1601 25.5836 69.0571 26.6866 69.0571 28.0471C69.0571 29.4077 70.1601 30.5106 71.5206 30.5106Z" stroke="white" stroke-width="0.5" stroke-miterlimit="10"/>
</g>
<defs>
<radialGradient id="paint0_radial_711_1586" cx="0" cy="0" r="1" gradientUnits="userSpaceOnUse" gradientTransform="translate(40.5 40.057) scale(39.5824)">
<stop stop-color="#FE6A84"/>
<stop offset="0.993" stop-color="#FE6A84" stop-opacity="0"/>
</radialGradient>
<clipPath id="clip0_711_1586">
<rect width="80" height="80" fill="white" transform="translate(0.5 0.0570068)"/>
</clipPath>
</defs>
</svg>
