<svg width="41" height="24" viewBox="0 0 41 24" fill="none" xmlns="http://www.w3.org/2000/svg">
<path d="M4.89225 18.2175V23.0683C4.8912 23.2343 4.93753 23.3971 5.02579 23.5376C5.11405 23.6781 5.24058 23.7905 5.39051 23.8617C5.54045 23.9328 5.70756 23.9596 5.87222 23.9391C6.03689 23.9185 6.19227 23.8514 6.32011 23.7456L11.2584 19.7047H16.7046L19.8284 23.6129C19.9126 23.7181 20.02 23.8023 20.1421 23.8591C20.2642 23.9159 20.3977 23.9438 20.5324 23.9405C20.667 23.9372 20.7991 23.9029 20.9183 23.8402C21.0375 23.7775 21.1406 23.6882 21.2196 23.5791L24.0048 19.7047H29.7896L34.7025 23.7428C34.8305 23.8472 34.9855 23.9133 35.1495 23.9333C35.3135 23.9534 35.4798 23.9266 35.6292 23.856C35.7786 23.7854 35.9049 23.674 35.9936 23.5346C36.0823 23.3952 36.1297 23.2335 36.1303 23.0683V18.2034C37.8592 17.0948 39.1826 15.4561 39.9024 13.5326C40.6222 11.6091 40.6998 9.50423 40.1235 7.53296C39.5472 5.5617 38.348 3.83006 36.7055 2.59719C35.0629 1.36432 33.0652 0.69652 31.0115 0.693726H9.99983C7.9429 0.694194 5.94159 1.36178 4.2963 2.59628C2.651 3.83078 1.45048 5.56561 0.8749 7.54037C0.299324 9.51514 0.379751 11.6233 1.10411 13.5485C1.82847 15.4737 3.15768 17.112 4.89225 18.2175V18.2175ZM9.99983 2.44328H31.0115C32.7246 2.44377 34.3895 3.01114 35.7464 4.05692C37.1033 5.10271 38.0761 6.56812 38.5129 8.22464C38.9497 9.88117 38.8261 11.6357 38.1614 13.2146C37.4966 14.7935 36.3281 16.1081 34.8379 16.9533C34.7035 17.0293 34.5916 17.1396 34.5138 17.273C34.4359 17.4063 34.3949 17.558 34.3949 17.7124V21.2228L30.67 18.1611C30.5111 18.0308 30.3112 17.9608 30.1057 17.9636H23.5561C23.4176 17.9636 23.2811 17.9967 23.158 18.06C23.0348 18.1233 22.9285 18.215 22.8478 18.3276L20.4746 21.6292L17.8079 18.2937C17.7259 18.1915 17.622 18.109 17.5038 18.0523C17.3856 17.9957 17.2561 17.9663 17.1251 17.9664H10.9339C10.7284 17.9639 10.5286 18.0338 10.3695 18.1639L6.63616 21.2228V17.7265C6.63665 17.5716 6.59586 17.4194 6.51799 17.2855C6.44013 17.1516 6.32799 17.0408 6.19313 16.9646C4.69898 16.123 3.52572 14.8101 2.85665 13.2311C2.18757 11.6521 2.06038 9.89592 2.49494 8.237C2.92949 6.57807 3.90133 5.10981 5.25859 4.06162C6.61586 3.01342 8.28211 2.44434 9.99701 2.44328H9.99983Z" fill="white"/>
</svg>
