<svg width="11" height="10" viewBox="0 0 11 10" fill="none" xmlns="http://www.w3.org/2000/svg">
<path d="M2.81338 7.94625C3.50759 8.58468 4.24387 9.17578 5.01726 9.71557C5.16215 9.81383 5.3332 9.86636 5.50827 9.86636C5.68334 9.86636 5.85438 9.81383 5.99927 9.71557C6.77266 9.17578 7.50895 8.58468 8.20315 7.94625C8.83778 7.49094 9.37544 6.91389 9.78482 6.24871C10.1942 5.58353 10.4671 4.84353 10.5876 4.07183C10.6158 3.16421 10.2834 2.28238 9.66308 1.61923C9.04276 0.956078 8.18505 0.565596 7.27758 0.533203C6.6464 0.53508 6.03022 0.725735 5.50827 1.08065C4.98625 0.725892 4.37011 0.535253 3.73895 0.533203C2.83148 0.565596 1.97377 0.956078 1.35346 1.61923C0.733141 2.28238 0.400718 3.16421 0.428903 4.07183C0.549434 4.84353 0.822339 5.58353 1.23172 6.24871C1.64109 6.91389 2.17876 7.49094 2.81338 7.94625V7.94625ZM3.73895 2.27712C3.95127 2.27952 4.16052 2.32823 4.35206 2.41986C4.54361 2.51149 4.71284 2.64383 4.84795 2.80763C4.93007 2.90213 5.03151 2.9779 5.14542 3.02983C5.25934 3.08176 5.38308 3.10863 5.50827 3.10863C5.63346 3.10863 5.75719 3.08176 5.87111 3.02983C5.98503 2.9779 6.08647 2.90213 6.16858 2.80763C6.30369 2.64383 6.47293 2.51149 6.66448 2.41986C6.85602 2.32823 7.06526 2.27952 7.27758 2.27712C7.72136 2.3104 8.13419 2.51708 8.42676 2.85242C8.71933 3.18776 8.8681 3.62481 8.84089 4.06901C8.84089 5.04537 7.00104 6.80904 5.50827 7.91803C4.01832 6.81186 2.1841 5.05102 2.1841 4.07183C2.15684 3.62854 2.30485 3.19228 2.59622 2.8571C2.8876 2.52191 3.29901 2.31463 3.74178 2.27994L3.73895 2.27712Z" fill="#FE6A84"/>
</svg>
