<svg width="45" height="19" viewBox="0 0 45 19" fill="none" xmlns="http://www.w3.org/2000/svg">
<path d="M40.1818 7.82424C40.8656 7.02672 41.241 6.01058 41.24 4.96004V4.48879C41.24 3.31791 40.7748 2.19498 39.9469 1.36705C39.119 0.539107 37.996 0.0739746 36.8251 0.0739746C35.6543 0.0739746 34.5313 0.539107 33.7034 1.36705C32.8755 2.19498 32.4103 3.31791 32.4103 4.48879V4.96004C32.4093 6.01058 32.7847 7.02672 33.4685 7.82424C31.8722 8.23918 30.5041 9.26749 29.6618 10.6856C28.8195 9.26749 27.4515 8.23918 25.8551 7.82424C26.5389 7.02672 26.9144 6.01058 26.9133 4.96004V4.48879C26.9133 3.31791 26.4482 2.19498 25.6203 1.36705C24.7923 0.539107 23.6694 0.0739746 22.4985 0.0739746C21.3276 0.0739746 20.2047 0.539107 19.3768 1.36705C18.5488 2.19498 18.0837 3.31791 18.0837 4.48879V4.96004C18.0827 6.01058 18.4581 7.02672 19.1419 7.82424C17.5455 8.23918 16.1775 9.26749 15.3352 10.6856C14.4929 9.26749 13.1249 8.23918 11.5285 7.82424C12.2123 7.02672 12.5877 6.01058 12.5867 4.96004V4.48879C12.5867 3.31791 12.1216 2.19498 11.2936 1.36705C10.4657 0.539107 9.34277 0.0739746 8.17188 0.0739746C7.001 0.0739746 5.87808 0.539107 5.05014 1.36705C4.2222 2.19498 3.75707 3.31791 3.75707 4.48879V4.96004C3.75604 6.01058 4.13146 7.02672 4.81527 7.82424C3.47646 8.17042 2.29041 8.95119 1.44316 10.0441C0.595906 11.137 0.135373 12.4802 0.133789 13.863V17.5456C0.133789 17.7776 0.225953 18.0001 0.390006 18.1641C0.554059 18.3282 0.776563 18.4204 1.00857 18.4204H43.9885C44.2205 18.4204 44.443 18.3282 44.607 18.1641C44.7711 18.0001 44.8632 17.7776 44.8632 17.5456V13.863C44.8617 12.4802 44.4011 11.137 43.5539 10.0441C42.7066 8.95119 41.5206 8.17042 40.1818 7.82424ZM34.1599 4.48879C34.1599 3.78154 34.4408 3.10327 34.9409 2.60317C35.441 2.10307 36.1193 1.82212 36.8266 1.82212C37.5338 1.82212 38.2121 2.10307 38.7122 2.60317C39.2123 3.10327 39.4932 3.78154 39.4932 4.48879V4.96004C39.4932 5.66728 39.2123 6.34556 38.7122 6.84566C38.2121 7.34576 37.5338 7.62671 36.8266 7.62671C36.1193 7.62671 35.441 7.34576 34.9409 6.84566C34.4408 6.34556 34.1599 5.66728 34.1599 4.96004V4.48879ZM19.8333 4.48879C19.8333 3.78154 20.1142 3.10327 20.6143 2.60317C21.1144 2.10307 21.7927 1.82212 22.4999 1.82212C23.2072 1.82212 23.8854 2.10307 24.3855 2.60317C24.8856 3.10327 25.1666 3.78154 25.1666 4.48879V4.96004C25.1666 5.66728 24.8856 6.34556 24.3855 6.84566C23.8854 7.34576 23.2072 7.62671 22.4999 7.62671C21.7927 7.62671 21.1144 7.34576 20.6143 6.84566C20.1142 6.34556 19.8333 5.66728 19.8333 4.96004V4.48879ZM5.50663 4.48879C5.50663 3.78154 5.78758 3.10327 6.28768 2.60317C6.78777 2.10307 7.46605 1.82212 8.17329 1.82212C8.88054 1.82212 9.55882 2.10307 10.0589 2.60317C10.559 3.10327 10.84 3.78154 10.84 4.48879V4.96004C10.84 5.66728 10.559 6.34556 10.0589 6.84566C9.55882 7.34576 8.88054 7.62671 8.17329 7.62671C7.46605 7.62671 6.78777 7.34576 6.28768 6.84566C5.78758 6.34556 5.50663 5.66728 5.50663 4.96004V4.48879ZM1.88335 13.863C1.88484 12.6735 2.35803 11.5332 3.19914 10.6921C4.04025 9.85095 5.18061 9.37776 6.37012 9.37627H9.97647C11.166 9.37776 12.3063 9.85095 13.1474 10.6921C13.9886 11.5332 14.4617 12.6735 14.4632 13.863V16.6849H1.88335V13.863ZM16.21 13.863C16.2115 12.6735 16.6847 11.5332 17.5258 10.6921C18.3669 9.85095 19.5072 9.37776 20.6968 9.37627H24.3031C25.4926 9.37776 26.633 9.85095 27.4741 10.6921C28.3152 11.5332 28.7884 12.6735 28.7899 13.863V16.6849H16.21V13.863ZM43.1165 16.6849H30.5366V13.863C30.5381 12.6735 31.0113 11.5332 31.8524 10.6921C32.6935 9.85095 33.8339 9.37776 35.0234 9.37627H38.6297C39.8192 9.37776 40.9596 9.85095 41.8007 10.6921C42.6418 11.5332 43.115 12.6735 43.1165 13.863V16.6849Z" fill="#FE6A84"/>
</svg>
