<svg width="5" height="10" viewBox="0 0 5 10" fill="none" xmlns="http://www.w3.org/2000/svg">
<path d="M0.799596 1.98642C1.24485 2.37405 1.60464 2.85004 1.85612 3.38414C2.1076 3.91825 2.24527 4.49881 2.26039 5.08896C2.27552 5.67912 2.16777 6.26597 1.94398 6.81226C1.72019 7.35854 1.38525 7.85233 0.96044 8.26226C0.86957 8.33978 0.795537 8.43508 0.742904 8.5423C0.690271 8.64952 0.660155 8.76638 0.654409 8.88569C0.648662 9.00499 0.667408 9.12421 0.709491 9.23599C0.751574 9.34777 0.816105 9.44975 0.899104 9.53565C0.982102 9.62154 1.08181 9.68953 1.19208 9.73542C1.30236 9.78131 1.42086 9.80413 1.54029 9.80247C1.65972 9.80082 1.77755 9.77473 1.88651 9.7258C1.99547 9.67687 2.09326 9.60615 2.17384 9.51799C2.77239 8.94002 3.24429 8.24396 3.55962 7.47397C3.87494 6.70398 4.0268 5.87687 4.00558 5.04509C3.98435 4.21331 3.7905 3.39501 3.43631 2.64211C3.08213 1.88921 2.57534 1.21812 1.9481 0.67143C1.77163 0.536315 1.55036 0.473434 1.32921 0.495558C1.10806 0.517682 0.903621 0.623153 0.75742 0.790548C0.611219 0.957943 0.534215 1.17471 0.542048 1.39682C0.549881 1.61894 0.641966 1.82974 0.799596 1.98642V1.98642Z" fill="white"/>
</svg>
