<svg width="360" height="361" viewBox="0 0 360 361" fill="none" xmlns="http://www.w3.org/2000/svg">
<circle cx="180" cy="180.057" r="180" fill="url(#paint0_radial_711_1558)"/>
<g clip-path="url(#clip0_711_1558)">
<path d="M248.692 210.892C249.872 245.275 182.937 243.63 147.95 242.487C147.799 232.265 144.743 222.296 139.14 213.745C143.126 216.375 146.464 219.873 148.906 223.976C151.347 228.08 152.828 232.683 153.237 237.441C156.722 237.887 162.391 238.37 169.184 238.51C169.255 229.64 167.152 220.889 163.06 213.02C166.604 215.915 169.481 219.541 171.497 223.65C173.513 227.758 174.619 232.253 174.741 236.828V238.565C179.963 238.565 185.688 238.342 191.468 237.831C192.825 228.159 191.511 218.3 187.667 209.321C190.986 212.47 193.587 216.297 195.294 220.542C197 224.786 197.771 229.349 197.554 233.919C197.489 235.028 197.359 236.133 197.164 237.227C202.708 236.623 208.2 235.607 213.594 234.189C215.958 224.351 215.51 214.047 212.302 204.452C215.349 207.841 217.629 211.848 218.986 216.199C220.343 220.55 220.744 225.142 220.163 229.663C219.996 230.617 219.829 231.515 219.662 232.358C230.33 228.483 237.913 222.48 237.913 213.15C237.913 189.565 201.188 199.675 189.786 201.859C166.433 206.31 117.182 218.809 113.418 189.444C109.878 161.566 152.615 159.856 156.546 158.332C154.687 161.12 122.163 166.528 127.292 187.363C130.833 201.906 159.017 201.683 179.517 199.443C203.771 196.804 247.568 178.888 248.692 210.892Z" fill="white"/>
<path d="M167.464 115.065C165.885 115.344 162.576 117.035 160.486 123.912C159.423 128.592 160.187 133.502 162.623 137.637C162.623 137.637 154.585 134.589 157.726 122.295C159.789 114.313 166.526 114.229 167.464 115.065Z" fill="white"/>
<path d="M173.635 113.959C173.635 113.959 183.968 117.574 184.684 124.488C185.023 126.878 184.668 129.316 183.661 131.51C182.654 133.704 181.039 135.563 179.006 136.866C181.912 136.004 184.379 134.065 185.903 131.445C187.426 128.824 187.891 125.721 187.202 122.769C185.474 113.104 173.635 113.959 173.635 113.959Z" fill="white"/>
<path d="M166.666 120.325C167.448 120.966 168.389 121.387 169.389 121.542C170.389 121.697 171.412 121.582 172.353 121.208C172.788 121.079 173.191 120.861 173.536 120.567C173.882 120.273 174.162 119.91 174.359 119.501C174.556 119.092 174.665 118.647 174.68 118.193C174.694 117.74 174.614 117.289 174.444 116.868C173.908 117.814 173.176 118.635 172.297 119.275C171.518 112.501 169.415 105.946 166.108 99.9832C162.48 94.0399 157.04 89.4178 150.589 86.7969L146.872 90.3188L151.323 90.2631C157.426 93.3756 162.471 98.2259 165.82 104.202C168.454 109.143 170.271 114.478 171.2 120C169.718 120.362 168.185 120.472 166.666 120.325V120.325Z" fill="white"/>
<path d="M148.452 158.184C144.372 146.763 157.085 142.953 175.447 136.216C177.849 135.577 180.05 134.338 181.844 132.616C183.637 130.894 184.963 128.745 185.699 126.37C186.434 123.996 186.555 121.473 186.049 119.039C185.543 116.605 184.428 114.339 182.807 112.454C182.807 112.454 217.19 113.811 215.331 136.076C213.473 158.341 177.659 157.7 174.118 168.182C173.546 169.771 173.318 171.463 173.448 173.146C173.578 174.83 174.063 176.467 174.871 177.949C173.68 177.17 172.666 176.148 171.896 174.951C171.126 173.754 170.616 172.409 170.401 171.002C170.185 169.595 170.268 168.158 170.644 166.785C171.021 165.413 171.682 164.135 172.585 163.034C178.997 153.816 205.109 154.95 208.213 137.647C210.88 122.825 191.486 119.219 191.486 119.219C191.486 119.219 196.96 133.632 176.404 140.332C155.849 147.032 148.563 147.962 148.452 158.184Z" fill="white"/>
<path d="M220.833 146.344C225.609 148.147 229.644 151.496 232.296 155.858C234.948 160.219 236.065 165.343 235.469 170.413C234.01 181.025 224.791 187.437 209.839 187.734C194.887 188.032 178.068 181.908 164.305 193.022C175.912 177.921 194.441 181.48 209.012 180.885C215.973 180.597 226.464 178.042 229.261 169.437C230.062 165.186 229.702 160.797 228.219 156.733C226.736 152.669 224.184 149.08 220.833 146.344Z" fill="white"/>
<path d="M84.871 196.878C84.6413 195.215 83.949 193.651 82.8731 192.362C82.419 191.809 81.826 191.387 81.1548 191.138C80.4836 190.89 79.7585 190.825 79.0538 190.95C78.2752 191.066 77.5278 191.337 76.8559 191.748C76.1839 192.158 75.601 192.699 75.1415 193.338C74.0235 194.823 73.1974 196.507 72.7068 198.3C72.1586 200.214 71.6103 202.333 71.0899 204.638C70.5695 206.942 70.1606 209.089 69.7332 211.078C69.3936 212.956 68.7668 214.771 67.8746 216.458C67.185 217.908 65.9883 219.055 64.5107 219.683C62.9158 220.153 61.2124 220.1 59.6492 219.534C58.0861 218.967 56.7451 217.915 55.822 216.532C52.2426 212.137 50.0267 206.791 49.4472 201.153C48.3651 195.344 48.6321 189.363 50.2278 183.673C51.6867 179.222 53.5917 177.038 55.664 177.01C56.7161 177.03 57.74 177.354 58.6122 177.943C59.4844 178.531 60.1678 179.36 60.5799 180.328C61.8907 182.904 62.6383 185.73 62.7729 188.617C62.8472 189.52 62.8658 190.426 62.8287 191.331C62.2124 190.674 61.4594 190.16 60.6228 189.826C59.7862 189.492 58.8865 189.346 57.9872 189.398C57.089 189.548 56.2462 189.932 55.5432 190.511C54.8403 191.09 54.3019 191.844 53.982 192.697C52.9329 195.092 52.641 197.751 53.1457 200.317C53.4435 202.866 54.3485 205.307 55.7848 207.435C57.0579 209.163 58.3868 209.786 59.7156 209.414C60.41 209.193 61.0485 208.824 61.5874 208.333C62.1262 207.843 62.5528 207.241 62.838 206.571C63.6493 204.901 64.2398 203.133 64.5943 201.311C65.0218 199.304 65.5236 197.111 66.2391 194.741C66.8714 192.529 67.6347 190.357 68.5251 188.236C69.3056 186.331 70.4916 184.619 72.0006 183.218C73.3467 181.931 75.1118 181.172 76.9722 181.081C78.4561 181.064 79.9172 181.447 81.2011 182.191C82.4851 182.936 83.5443 184.013 84.267 185.309C86.3942 188.713 87.7752 192.529 88.3186 196.507C89.208 200.099 89.2239 203.853 88.3651 207.453C88.1564 208.563 87.6995 209.611 87.0284 210.518C86.3573 211.426 85.4895 212.17 84.49 212.694C83.6491 213.033 82.7354 213.151 81.836 213.038C80.9365 212.924 80.0811 212.582 79.3511 212.044C77.4456 210.578 76.1617 208.448 75.7549 206.078C75.5242 205.128 75.3689 204.162 75.2902 203.188C75.9997 203.951 76.8947 204.518 77.8881 204.832C78.8816 205.146 79.9395 205.198 80.9588 204.982C81.7447 204.786 82.4722 204.404 83.0801 203.869C83.6881 203.334 84.1588 202.66 84.4528 201.906C85.0638 200.303 85.2088 198.56 84.871 196.878V196.878Z" fill="#FE6A84"/>
<path d="M72.1493 255.562C70.922 254.661 69.8806 253.531 69.0828 252.235C68.107 250.739 67.7911 249.754 68.0791 249.336C69.9394 246.986 71.9674 244.775 74.1473 242.719C76.489 240.48 78.0037 239.095 78.6357 238.491C70.4952 238.063 64.6408 237.106 61.2769 236.818C60.203 235.66 59.3608 234.307 58.7957 232.832C58.0616 231.075 57.8665 229.979 58.2475 229.598C60.5551 227.448 63.0422 225.498 65.6816 223.771C69.0889 221.448 72.0533 219.342 74.5747 217.452C76.6707 215.982 78.4945 214.158 79.9645 212.062C81.1172 213.48 82.0794 215.042 82.8267 216.709C83.2094 217.587 83.3935 218.539 83.3656 219.497C83.2488 220.248 82.9272 220.952 82.4364 221.532C81.901 222.223 81.3038 222.864 80.6522 223.446C79.8047 224.181 78.9039 224.852 77.9573 225.453C76.8236 226.197 75.7363 226.903 74.6863 227.563C70.7276 230.044 68.0606 231.856 66.6574 232.953C72.4254 233.704 78.2666 233.704 84.0347 232.953C85.1317 231.695 86.0682 230.306 86.8225 228.817C88.1689 229.916 89.3544 231.199 90.3445 232.627C90.8472 233.382 91.1655 234.245 91.2737 235.146C91.2778 235.879 91.0784 236.6 90.6976 237.227C90.2723 237.982 89.781 238.697 89.2293 239.364C88.5001 240.215 87.7113 241.014 86.869 241.753C85.8654 242.663 84.8958 243.528 83.9604 244.345C80.4384 247.421 78.0874 249.633 76.8607 250.915C84.8863 250.893 92.7735 248.823 99.7766 244.903C100.706 248.025 100.706 250.032 99.7766 250.98C97.9347 252.31 95.7986 253.174 93.5504 253.499C89.7755 254.298 85.9451 254.807 82.0925 255.023C77.6042 255.292 74.296 255.367 72.1493 255.562Z" fill="#FE6A84"/>
<path d="M98.6152 267.512C97.0899 266.188 95.724 264.691 94.545 263.052C94.1646 263.363 93.8046 263.698 93.467 264.055C92.649 264.759 91.9911 265.63 91.5375 266.609C91.0839 267.589 90.8451 268.654 90.8372 269.733C90.8776 270.665 91.1126 271.578 91.5271 272.413C91.9417 273.249 92.5265 273.988 93.244 274.584C94.711 275.854 96.4652 276.747 98.355 277.186C100.236 277.615 102.189 277.615 104.07 277.186C105.204 278.31 105.52 279.221 104.999 279.974C102.116 280.581 99.1273 280.469 96.2975 279.647C93.4678 278.825 90.8839 277.319 88.7742 275.262C85.9829 272.855 84.1438 269.53 83.5889 265.886C83.3308 264.232 83.5175 262.539 84.1299 260.981C84.7423 259.423 85.7583 258.056 87.0736 257.021C89.1363 255.256 91.6043 254.03 94.2569 253.452C97.1716 252.845 100.188 252.925 103.066 253.685C106.158 254.4 109.04 255.825 111.486 257.848C113.568 259.279 115.163 261.312 116.058 263.674C116.326 264.579 116.381 265.534 116.22 266.464C116.059 267.394 115.685 268.274 115.128 269.036C114.379 270.205 113.298 271.124 112.023 271.674C110.748 272.224 109.337 272.379 107.973 272.121C104.472 271.527 101.22 269.925 98.6152 267.512V267.512ZM108.939 259.576C108.136 258.951 107.194 258.528 106.193 258.342C105.192 258.156 104.162 258.213 103.187 258.507C100.629 259.1 98.225 260.227 96.134 261.816L96.8124 262.466C98.7247 264.609 101.385 265.939 104.247 266.183C105.239 266.219 106.227 266.022 107.13 265.609C108.033 265.196 108.828 264.578 109.45 263.804C109.949 263.214 110.205 262.457 110.166 261.686C110.128 261.264 109.999 260.856 109.787 260.49C109.575 260.124 109.286 259.809 108.939 259.567V259.576Z" fill="#FE6A84"/>
<path d="M121.754 283.087C119.979 282.187 118.314 281.086 116.791 279.806C116.493 280.195 116.22 280.601 115.974 281.024C115.341 281.882 114.901 282.867 114.683 283.911C114.465 284.955 114.474 286.033 114.71 287.073C114.967 287.953 115.406 288.769 116 289.468C116.595 290.166 117.33 290.731 118.157 291.125C119.886 291.996 121.798 292.439 123.733 292.417C125.664 292.404 127.569 291.963 129.309 291.125C130.665 291.943 131.167 292.76 130.833 293.597C128.175 294.84 125.257 295.425 122.326 295.3C119.395 295.176 116.537 294.346 113.994 292.881C110.753 291.268 108.208 288.534 106.83 285.187C106.2 283.658 105.994 281.988 106.234 280.353C106.475 278.717 107.152 277.177 108.196 275.894C109.803 273.707 111.913 271.938 114.347 270.737C117.026 269.44 119.967 268.775 122.943 268.795C126.093 268.716 129.217 269.385 132.059 270.746C134.406 271.629 136.422 273.216 137.83 275.29C138.296 276.103 138.566 277.013 138.619 277.949C138.672 278.884 138.507 279.819 138.137 280.68C137.673 281.98 136.833 283.112 135.725 283.935C134.617 284.757 133.289 285.231 131.911 285.298C128.384 285.542 124.86 284.775 121.754 283.087ZM129.959 273.032C129.03 272.624 128.016 272.443 127.003 272.505C125.99 272.566 125.006 272.868 124.133 273.385C121.786 274.565 119.71 276.22 118.037 278.245L118.845 278.701C121.21 280.281 124.082 280.914 126.893 280.475C127.863 280.276 128.775 279.856 129.557 279.246C130.339 278.637 130.969 277.856 131.4 276.963C131.746 276.282 131.82 275.494 131.604 274.76C131.475 274.369 131.26 274.01 130.976 273.711C130.691 273.412 130.344 273.18 129.959 273.032V273.032Z" fill="#FE6A84"/>
<path d="M146.928 287.798C145.506 290.289 144.279 292.5 143.267 294.452C142.243 296.418 141.394 298.47 140.73 300.585C140.101 302.127 139.933 303.819 140.246 305.454C137.72 304.502 135.558 302.779 134.067 300.529C133.664 299.613 133.463 298.621 133.478 297.621C133.492 296.62 133.722 295.635 134.15 294.73C135.327 292.057 136.778 289.512 138.481 287.138C140.572 284.007 141.901 281.86 142.56 280.726C140.346 280.343 138.107 280.117 135.86 280.048C136.001 279.55 136.168 279.06 136.362 278.58C136.578 277.922 136.976 277.339 137.511 276.9C138.046 276.46 138.695 276.182 139.382 276.099C141.155 276.025 142.926 276.297 144.595 276.898C145.354 275.384 146.037 273.834 146.64 272.251C146.984 271.322 147.253 270.467 147.467 269.817C147.681 269.166 147.839 268.674 147.959 268.349C149.649 268.93 151.11 270.033 152.132 271.499C152.497 272.194 152.717 272.957 152.776 273.74C152.835 274.523 152.733 275.31 152.476 276.052C152.172 277.06 151.802 278.047 151.37 279.007C153.661 279.719 156.114 279.719 158.404 279.007C158.371 279.475 158.312 279.94 158.228 280.401C158.174 280.962 158.004 281.505 157.729 281.996C157.454 282.487 157.08 282.916 156.629 283.254C155.546 283.719 154.331 283.775 153.21 283.412C151.704 283.068 150.571 282.761 149.79 282.483C149.27 283.533 148.34 285.298 146.928 287.798Z" fill="#FE6A84"/>
<path d="M185.037 270.802C187.136 270.637 189.246 270.903 191.238 271.586C193.229 272.268 195.06 273.352 196.616 274.77C200.087 277.874 202.455 282.023 203.362 286.59C204.337 290.579 203.797 294.787 201.848 298.401C199.256 302.833 195.039 306.08 190.092 307.452C186.936 308.463 183.64 308.971 180.326 308.958C177.127 308.982 173.938 308.613 170.829 307.861C168.724 307.398 166.681 306.69 164.742 305.752L162.883 304.739C162.958 304.497 163.813 302.267 165.197 298.02C167.856 290.101 169.62 281.91 170.457 273.599C170.729 271.851 170.675 270.068 170.299 268.339C172.931 268.946 175.216 270.569 176.655 272.855C179.313 271.704 182.147 271.009 185.037 270.802V270.802ZM178.746 305.454C182.315 305.595 185.837 304.596 188.801 302.601C191.269 300.95 193.142 298.549 194.144 295.753C195.013 293.132 195.255 290.344 194.85 287.612C194.479 284.123 192.989 280.847 190.603 278.273C189.586 277.162 188.337 276.288 186.945 275.713C185.553 275.138 184.051 274.877 182.547 274.946C180.741 274.949 178.946 275.225 177.222 275.764C176.827 280.544 176.16 285.297 175.224 290.001C173.839 297.593 172.957 302.434 172.845 304.571C174.754 305.158 176.74 305.452 178.737 305.445L178.746 305.454Z" fill="#FE6A84"/>
<path d="M214.458 279.184C215.188 277.282 216.613 275.728 218.444 274.835C219.077 274.563 219.762 274.436 220.45 274.462C221.137 274.487 221.811 274.666 222.422 274.983C223.677 275.688 224.659 276.794 225.209 278.124C225.542 278.866 225.723 279.666 225.742 280.478C225.761 281.29 225.618 282.098 225.321 282.854C224.98 283.723 224.442 284.501 223.748 285.125C223.054 285.749 222.225 286.203 221.325 286.451C220.663 286.652 219.973 286.746 219.281 286.729C219.661 286.009 219.879 285.214 219.92 284.4C219.96 283.586 219.821 282.773 219.513 282.018C219.465 281.816 219.373 281.627 219.243 281.466C219.113 281.304 218.948 281.174 218.76 281.085C218.573 280.996 218.368 280.95 218.16 280.95C217.953 280.951 217.748 280.998 217.561 281.089C216.73 281.452 216.066 282.116 215.703 282.947C215.07 284.194 214.617 285.523 214.355 286.897C213.992 288.829 213.867 290.798 213.984 292.76C214.079 295.185 214.473 297.588 215.155 299.916C215.248 300.213 215.712 301.458 216.604 303.633C215.192 304.06 214.281 304.302 213.863 304.404C211.993 304.976 210.01 305.075 208.092 304.692C207.487 304.514 206.946 304.165 206.533 303.687C206.121 303.209 205.856 302.622 205.769 301.997C205.639 301.384 205.63 298.959 205.611 294.712C205.654 291.365 205.343 288.022 204.682 284.741C204.176 282.47 203.356 280.281 202.247 278.236C204.456 278.241 206.621 278.848 208.51 279.992C209.902 280.973 210.918 282.399 211.391 284.035C211.894 285.663 212.206 287.343 212.32 289.043C212.394 285.65 213.12 282.303 214.458 279.184V279.184Z" fill="#FE6A84"/>
<path d="M237.848 283.486C236.073 284.38 234.202 285.069 232.272 285.54C232.434 285.999 232.626 286.446 232.848 286.878C233.244 287.884 233.843 288.797 234.607 289.561C235.371 290.326 236.285 290.924 237.29 291.32C238.171 291.622 239.104 291.741 240.032 291.671C240.96 291.601 241.864 291.342 242.689 290.911C244.386 290.061 245.846 288.803 246.936 287.25C248.01 285.72 248.711 283.96 248.98 282.111C250.449 281.507 251.434 281.553 251.963 282.306C251.505 285.138 250.336 287.807 248.567 290.064C246.797 292.321 244.484 294.093 241.844 295.214C238.582 296.86 234.848 297.313 231.287 296.496C229.659 296.138 228.151 295.367 226.908 294.257C225.664 293.147 224.728 291.735 224.188 290.158C223.236 287.674 222.917 284.991 223.258 282.353C223.639 279.506 224.715 276.796 226.39 274.463C228.115 271.908 230.445 269.82 233.174 268.386C235.303 267.022 237.792 266.329 240.32 266.397C241.461 266.533 242.551 266.951 243.492 267.611C244.433 268.272 245.196 269.155 245.712 270.182C246.228 271.209 246.482 272.348 246.451 273.497C246.42 274.647 246.104 275.77 245.533 276.768C243.689 279.715 241.015 282.052 237.848 283.486V283.486ZM233.88 271.294C233.02 271.778 232.296 272.471 231.776 273.309C231.256 274.148 230.957 275.104 230.906 276.089C230.595 278.637 230.842 281.221 231.631 283.663L232.467 283.291C235.099 282.368 237.266 280.454 238.508 277.957C238.888 277.06 239.045 276.084 238.965 275.113C238.886 274.142 238.573 273.205 238.052 272.382C237.655 271.711 237.028 271.209 236.287 270.969C235.889 270.855 235.473 270.826 235.063 270.882C234.653 270.938 234.26 271.078 233.908 271.294H233.88Z" fill="#FE6A84"/>
<path d="M257.474 274.5C258.25 275.564 259.38 276.315 260.661 276.619C261.28 276.735 261.916 276.706 262.521 276.533C263.126 276.361 263.682 276.049 264.146 275.625C264.99 274.898 265.674 274.005 266.154 273C266.634 271.995 266.899 270.902 266.934 269.789C267.091 267.109 266.576 264.433 265.438 262.002C264.393 259.564 262.88 257.354 260.987 255.497C259.571 254.1 258.063 252.803 256.47 251.612C257.204 250.776 257.716 250.19 258.032 249.865C258.993 248.714 260.221 247.814 261.609 247.245C262.212 247.083 262.847 247.083 263.449 247.247C264.051 247.41 264.6 247.73 265.038 248.174C266.714 250.011 268.266 251.958 269.685 254.001C271.673 256.85 273.946 259.491 276.468 261.881C278.299 263.531 280.634 264.513 283.094 264.669C281.18 266.719 278.671 268.117 275.92 268.664C274.83 268.759 273.733 268.597 272.716 268.192C271.7 267.787 270.792 267.15 270.066 266.332C269.484 265.701 268.935 265.04 268.421 264.353C269.774 267.374 269.917 270.8 268.82 273.924C267.883 277.089 265.987 279.884 263.393 281.925C261.319 283.656 258.655 284.519 255.959 284.332C254.715 284.173 253.522 283.734 252.472 283.046C251.423 282.359 250.543 281.442 249.9 280.364C248.302 277.974 247.261 275.256 246.852 272.409C246.415 269.476 246.621 266.483 247.456 263.637C248.206 260.815 249.786 258.284 251.991 256.37C253.365 255.209 254.91 254.269 256.573 253.582C254.667 256.973 253.825 260.858 254.156 264.734C254.253 268.249 255.409 271.653 257.474 274.5V274.5Z" fill="#FE6A84"/>
<path d="M295.072 233.389C296.586 234.104 298.159 234.686 299.774 235.127C299.18 236.623 298.752 237.58 298.538 238.036C297.783 239.934 296.577 241.621 295.026 242.951C294.579 243.324 294.027 243.548 293.448 243.591C292.868 243.634 292.289 243.495 291.792 243.193C289.749 241.699 287.843 240.025 286.095 238.194C284.073 236.122 281.804 234.305 279.34 232.785C277.639 231.856 276.422 232.116 275.623 233.529C275.16 234.524 275.024 235.639 275.232 236.716C275.453 238.243 275.884 239.732 276.515 241.139C277.357 242.99 278.445 244.718 279.749 246.278C281.101 248.008 282.694 249.535 284.479 250.813C286.052 251.927 287.715 252.91 289.45 253.75C288.642 255.051 288.075 255.887 287.805 256.268C286.762 257.943 285.319 259.332 283.605 260.31C283.027 260.572 282.384 260.655 281.758 260.549C281.132 260.443 280.552 260.153 280.092 259.716C279.814 259.502 278.308 257.625 275.446 254.214C273.262 251.496 270.809 249.005 268.123 246.78C266.264 245.308 264.205 244.106 262.009 243.212C263.718 241.746 265.799 240.782 268.021 240.424C269.837 240.298 271.64 240.814 273.114 241.883C274.159 242.637 275.133 243.486 276.022 244.42C274.304 241.597 273.135 238.476 272.575 235.22C271.96 232.672 272.181 229.994 273.207 227.581C273.541 226.736 274.062 225.977 274.732 225.362C275.401 224.747 276.201 224.292 277.072 224.032C279.055 223.692 281.094 224.019 282.871 224.961C281.494 222.677 280.452 220.208 279.776 217.629C279.156 215.66 279.079 213.56 279.553 211.551C279.928 209.611 281.032 207.889 282.639 206.738C283.384 206.344 284.2 206.103 285.039 206.029C285.879 205.956 286.725 206.052 287.527 206.31C290.206 207.137 292.77 208.302 295.156 209.777C297.382 211.199 299.756 212.374 302.237 213.28C303.399 213.751 304.699 213.751 305.861 213.28C306.985 212.516 307.887 211.468 308.472 210.241C308.352 210.947 308.156 211.932 307.85 213.196C307.288 216.372 306.018 219.38 304.133 221.996C303.561 222.698 302.772 223.189 301.89 223.391C301.007 223.593 300.083 223.495 299.263 223.112C297.169 222.076 295.186 220.831 293.344 219.394C291.296 217.826 289.053 216.53 286.672 215.538C284.72 214.86 283.494 215.343 282.955 216.969C282.576 218.526 282.744 220.166 283.428 221.615C284.406 223.928 285.809 226.037 287.564 227.832C289.681 230.155 292.232 232.043 295.072 233.389V233.389Z" fill="#FE6A84"/>
<path d="M286.523 189.741C286.392 190.969 286.561 192.209 287.015 193.356C287.173 193.85 287.466 194.289 287.86 194.626C288.254 194.962 288.734 195.182 289.246 195.261C289.836 195.319 290.432 195.234 290.984 195.014C291.535 194.795 292.026 194.446 292.415 193.998C293.589 192.829 294.559 191.472 295.286 189.983C296.122 188.32 296.959 186.591 297.776 184.788C298.541 183.066 299.498 181.435 300.629 179.928C301.032 179.3 301.556 178.758 302.17 178.334C302.784 177.909 303.477 177.611 304.207 177.457C306.437 177.457 308.342 179.231 309.783 182.976C311.282 187.358 311.721 192.033 311.065 196.618C310.77 200.727 309.536 204.713 307.459 208.271C305.768 210.799 304.151 211.774 302.711 211.384C301.98 211.169 301.318 210.766 300.79 210.217C300.263 209.668 299.887 208.991 299.7 208.253C299.118 206.361 299.025 204.353 299.431 202.417C299.626 201.312 299.938 200.231 300.36 199.192C301.159 201.051 302.116 202.064 303.278 202.287C303.845 202.402 304.434 202.355 304.977 202.151C305.519 201.947 305.993 201.595 306.344 201.134C307.349 199.832 307.941 198.259 308.045 196.618C308.303 194.882 308.189 193.112 307.71 191.423C307.255 189.974 306.558 189.212 305.647 189.137C305.158 189.119 304.672 189.219 304.229 189.427C303.786 189.636 303.399 189.948 303.101 190.336C302.234 191.31 301.494 192.391 300.899 193.551C300.22 194.834 299.431 196.191 298.548 197.622C297.731 198.939 296.834 200.206 295.862 201.413C295.013 202.484 293.929 203.346 292.693 203.931C291.536 204.486 290.221 204.617 288.976 204.303C287.829 203.934 286.8 203.266 285.997 202.368C285.193 201.47 284.644 200.373 284.404 199.192C283.437 195.892 283.156 192.429 283.577 189.017C283.664 185.922 284.359 182.875 285.622 180.049C286.718 178.098 287.926 177.057 289.339 177.038C290.08 177.051 290.805 177.262 291.437 177.649C292.069 178.036 292.587 178.586 292.935 179.241C293.978 180.978 294.441 183.003 294.254 185.021C294.171 186.305 293.946 187.577 293.585 188.812C293.167 187.78 292.533 186.849 291.727 186.08C291.136 185.486 290.358 185.115 289.525 185.03C288.781 185.03 288.131 185.448 287.554 186.368C286.95 187.396 286.597 188.552 286.523 189.741V189.741Z" fill="#FE6A84"/>
<path d="M150.914 63.2584C132.034 67.6446 114.538 76.6527 99.9997 89.4731C77.986 108.857 63.952 135.723 60.6172 164.865C63.3262 135.413 76.8539 108.01 98.5872 87.9491C113.416 74.3085 131.395 64.5548 150.914 59.5599C150.914 59.5599 153.042 59.0302 153.135 61.0653C153.2 62.7845 150.914 63.2584 150.914 63.2584Z" fill="#FE6A84"/>
<path d="M207.702 64.1319C230.594 70.2246 251.065 83.1935 266.353 101.288C281.641 119.383 291.01 141.733 293.195 165.32V165.422C293.328 166.482 293.867 167.449 294.7 168.118C295.532 168.787 296.592 169.107 297.655 169.009C298.194 168.951 298.715 168.785 299.188 168.523C299.661 168.26 300.077 167.905 300.412 167.479C300.746 167.053 300.992 166.564 301.134 166.042C301.277 165.52 301.314 164.974 301.242 164.437C297.859 134.307 283.403 106.508 260.68 86.4344C245.744 73.1801 227.756 63.8349 208.324 59.2347C208.001 59.0925 207.648 59.0301 207.295 59.0526C206.942 59.075 206.6 59.1817 206.297 59.3638C205.994 59.5458 205.739 59.7978 205.553 60.0987C205.367 60.3997 205.257 60.7407 205.23 61.0932C204.933 63.3885 207.442 64.039 207.702 64.1319Z" fill="#FE6A84"/>
<path d="M163.608 56.9395C163.022 57.0846 162.403 56.9981 161.879 56.6978C161.648 56.5736 161.445 56.4017 161.285 56.1935C161.125 55.9852 161.011 55.7454 160.95 55.4898C160.89 55.118 160.922 54.737 161.043 54.3805C161.165 54.024 161.372 53.7028 161.647 53.4454C162.387 52.6784 163.375 52.1978 164.435 52.0887C165.511 51.8626 166.629 51.9596 167.65 52.3674C168.083 52.5519 168.457 52.8528 168.729 53.2366C169.001 53.6205 169.162 54.0723 169.193 54.5419C169.244 55.8402 168.854 57.1176 168.087 58.1661C167.03 59.7571 165.728 61.1714 164.231 62.3571L164.546 62.2921C165.717 62.069 166.805 61.8181 167.827 61.5486C168.561 61.383 169.275 61.1368 169.955 60.8145C170.045 61.5011 169.912 62.1986 169.574 62.8032C169.429 63.0402 169.233 63.2418 168.999 63.3929C168.766 63.5441 168.502 63.6411 168.226 63.6767C168.068 63.6767 167.529 63.7324 166.591 63.7696C165.654 63.8196 164.722 63.9407 163.803 64.132C162.921 64.3013 162.073 64.6153 161.294 65.0613C161.216 64.6663 161.275 64.2567 161.461 63.8997C161.698 63.3864 162.119 62.9815 162.641 62.766L163.719 61.4464C164.026 61.0654 164.398 60.5729 164.835 59.9503C165.221 59.4129 165.578 58.8545 165.903 58.2776C166.183 57.7551 166.404 57.2036 166.563 56.6328C166.731 56.0729 166.776 55.4831 166.693 54.9043C166.666 54.6592 166.586 54.4228 166.46 54.2111C166.333 53.9995 166.162 53.8175 165.959 53.6777C165.771 53.5453 165.558 53.4516 165.333 53.4021C165.108 53.3527 164.875 53.3484 164.649 53.3896C164.424 53.4184 164.207 53.4915 164.011 53.6048C163.815 53.7181 163.643 53.8692 163.506 54.0494C163.368 54.2402 163.274 54.4591 163.231 54.6904C163.187 54.9218 163.196 55.1598 163.255 55.3876C163.389 55.9602 163.743 56.4572 164.24 56.7722C164.034 56.8457 163.823 56.9017 163.608 56.9395V56.9395Z" fill="#FE6A84"/>
<path d="M177.919 51.1222C178.391 51.0858 178.864 51.1739 179.291 51.3777C179.718 51.5816 180.085 51.894 180.353 52.2838C180.95 53.2055 181.242 54.291 181.19 55.3876C181.199 57.1218 180.757 58.8287 179.907 60.3406C179.509 61.0626 178.945 61.6802 178.263 62.1434C177.535 62.6229 176.689 62.8929 175.819 62.9239C175.318 62.9381 174.821 62.8422 174.362 62.6431C173.902 62.444 173.492 62.1465 173.161 61.7716C172.24 60.7441 171.699 59.4323 171.628 58.0546C171.408 56.5066 171.674 54.9286 172.39 53.5383C172.701 52.925 173.133 52.3808 173.66 51.9385C174.187 51.4962 174.798 51.1648 175.456 50.9642C175.781 50.9642 175.967 51.1687 176.014 51.624C176.611 51.3363 177.257 51.166 177.919 51.1222V51.1222ZM176.831 52.4046C176.334 52.4639 175.863 52.6592 175.469 52.9691C175.076 53.279 174.775 53.6914 174.601 54.1609C174.045 55.2271 173.8 56.4283 173.895 57.6271C173.938 58.6211 174.195 59.594 174.648 60.48C174.784 60.7872 175.009 61.0467 175.294 61.2255C175.578 61.4042 175.91 61.4941 176.246 61.4836C177.064 61.4836 177.696 60.8888 178.16 59.8295C178.638 58.6832 178.86 57.4463 178.811 56.2053C178.858 55.1854 178.651 54.1698 178.207 53.2502C178.078 52.9964 177.882 52.7835 177.639 52.6357C177.395 52.4879 177.116 52.4111 176.831 52.4139V52.4046Z" fill="#FE6A84"/>
<path d="M185.706 55.4154C185.105 55.4191 184.525 55.1892 184.089 54.7742C183.904 54.5953 183.758 54.3798 183.66 54.1414C183.563 53.9031 183.516 53.647 183.522 53.3896C183.542 53.0121 183.653 52.6451 183.848 52.321C184.042 51.9969 184.314 51.7256 184.638 51.531C185.522 50.9712 186.573 50.7378 187.611 50.8712C188.708 50.9063 189.77 51.2688 190.659 51.912C191.028 52.1998 191.31 52.5838 191.474 53.0217C191.638 53.4595 191.677 53.9341 191.589 54.3932C191.332 55.6651 190.65 56.8119 189.656 57.6456C188.258 58.938 186.665 60.0012 184.935 60.7958H185.251C186.44 60.8516 187.556 60.8795 188.606 60.8516C189.357 60.866 190.108 60.7975 190.845 60.6472C190.773 61.3421 190.476 61.9945 190 62.5057C189.803 62.7015 189.564 62.8508 189.302 62.9424C189.04 63.0341 188.761 63.0659 188.485 63.0354C188.327 63.0354 187.797 62.9146 186.877 62.738C185.958 62.5589 185.026 62.4501 184.089 62.4128C183.195 62.37 182.3 62.4768 181.441 62.7287C181.46 62.3275 181.614 61.9444 181.878 61.6415C182.224 61.198 182.725 60.9025 183.281 60.8144L184.638 59.7922C185.028 59.4949 185.502 59.1046 186.069 58.6028C186.574 58.1743 187.054 57.7182 187.509 57.2367C187.926 56.7898 188.29 56.2973 188.596 55.7685C188.893 55.2656 189.076 54.7044 189.135 54.1237C189.172 53.7786 189.107 53.4302 188.947 53.122C188.788 52.8138 188.541 52.5595 188.237 52.391C187.934 52.2224 187.587 52.147 187.241 52.1742C186.895 52.2014 186.565 52.33 186.292 52.5439C186.114 52.6965 185.972 52.8863 185.875 53.0998C185.779 53.3134 185.731 53.5456 185.734 53.7799C185.727 54.3676 185.951 54.9346 186.357 55.3596C186.142 55.3967 185.924 55.4153 185.706 55.4154Z" fill="#FE6A84"/>
<path d="M196.736 56.6978C196.137 56.6272 195.587 56.3275 195.203 55.8614C195.036 55.6558 194.914 55.4167 194.847 55.1603C194.78 54.9038 194.768 54.6359 194.813 54.3746C194.879 54.0068 195.034 53.6607 195.264 53.3661C195.494 53.0714 195.792 52.8371 196.132 52.6833C197.083 52.2323 198.161 52.1271 199.18 52.386C200.27 52.5548 201.286 53.0431 202.098 53.7892C202.439 54.1153 202.682 54.5293 202.802 54.9852C202.922 55.4411 202.913 55.9213 202.777 56.3725C202.36 57.6026 201.542 58.6567 200.454 59.3648C198.898 60.4714 197.18 61.3304 195.361 61.911L195.677 61.9668C196.857 62.1712 197.963 62.3292 199.013 62.4314C199.764 62.5397 200.524 62.5646 201.281 62.5057C201.119 63.1792 200.744 63.7823 200.212 64.2249C199.993 64.3961 199.738 64.5159 199.466 64.5754C199.194 64.6349 198.912 64.6326 198.641 64.5687C198.493 64.5687 197.972 64.3736 197.08 64.0762C196.185 63.7872 195.268 63.5666 194.339 63.4164C193.45 63.267 192.542 63.267 191.653 63.4164C191.719 63.0181 191.919 62.6543 192.22 62.3849C192.622 61.9856 193.16 61.7531 193.726 61.7344L195.194 60.8795C195.621 60.6286 196.123 60.3034 196.764 59.8759C197.318 59.5118 197.852 59.1178 198.363 58.6957C198.809 58.3072 199.211 57.8709 199.561 57.3947C199.92 56.9322 200.17 56.3958 200.296 55.8243C200.354 55.5939 200.365 55.3539 200.327 55.1191C200.289 54.8844 200.204 54.6599 200.076 54.4595C199.948 54.2592 199.78 54.0872 199.583 53.9544C199.386 53.8215 199.163 53.7305 198.93 53.687C198.489 53.5893 198.028 53.6695 197.647 53.91C197.455 54.0398 197.294 54.2103 197.175 54.4095C197.056 54.6086 196.982 54.8315 196.959 55.0623C196.876 55.6386 197.019 56.2249 197.359 56.6978C197.152 56.7152 196.944 56.7152 196.736 56.6978V56.6978Z" fill="#FE6A84"/>
</g>
<defs>
<radialGradient id="paint0_radial_711_1558" cx="0" cy="0" r="1" gradientUnits="userSpaceOnUse" gradientTransform="translate(180 180.057) rotate(90) scale(180)">
<stop stop-color="#FE6A84"/>
<stop offset="0.409375" stop-color="#FE6A84" stop-opacity="0.460417"/>
<stop offset="1" stop-color="#FE6A84" stop-opacity="0"/>
</radialGradient>
<clipPath id="clip0_711_1558">
<rect width="263.448" height="263.448" fill="white" transform="translate(48.2764 48.3344)"/>
</clipPath>
</defs>
</svg>
