<svg width="215" height="41" viewBox="0 0 215 41" fill="none" xmlns="http://www.w3.org/2000/svg">
<g clip-path="url(#clip0_915_2760)">
<path d="M12.5754 3.54991C11.471 3.72258 10.4602 4.27538 9.71552 5.11407C8.95051 5.98549 8.54556 7.11826 8.58363 8.28036C8.54751 9.43085 8.88675 10.5616 9.54951 11.4998C10.1822 12.3716 10.9959 13.0945 11.934 13.6182L15.0354 15.3646C16.1572 16.0025 17.191 16.62 18.1367 17.2173C19.0951 17.8208 19.9093 18.6297 20.5212 19.5864C21.1526 20.5506 21.486 21.6814 21.4795 22.8362C21.4625 24.0379 21.1982 25.2229 20.7034 26.3168C20.2086 27.4106 19.494 28.3894 18.6046 29.1915C16.5199 31.1545 13.8854 32.4244 11.0587 32.8286C8.60256 33.4601 6.00962 33.2791 3.66372 32.3123C2.87828 32.007 2.20071 31.4737 1.71704 30.7801C1.23337 30.0866 0.96542 29.2641 0.947205 28.417C0.904349 26.8321 1.4414 25.2866 2.45638 24.0738C3.45898 22.891 4.83245 22.0875 6.35006 21.7959C6.77128 21.7044 7.20221 21.6661 7.63285 21.682C6.88598 22.894 6.48161 24.288 6.46324 25.7139C6.44567 26.3064 6.54987 26.8961 6.76931 27.4462C6.98875 27.9962 7.3187 28.4948 7.7385 28.9106C8.17803 29.3161 8.71117 29.6049 9.28961 29.7507C9.86805 29.8965 10.4735 29.8949 11.0511 29.7458C12.3434 29.5427 13.5479 28.9618 14.5147 28.0753C14.9385 27.7074 15.2801 27.2533 15.5168 26.7428C15.7535 26.2324 15.88 25.6773 15.888 25.1141C15.9207 24.0833 15.5831 23.0751 14.9373 22.2743C14.2946 21.4981 13.4944 20.869 12.5905 20.4292C11.6598 19.9635 10.6386 19.437 9.52687 18.8498C8.41511 18.2626 7.3939 17.6603 6.46324 17.0427C5.49212 16.3894 4.69013 15.5121 4.12402 14.4839C3.47806 13.2721 3.163 11.9097 3.21097 10.5355C3.19939 9.35848 3.42096 8.19095 3.86276 7.10106C4.30456 6.01118 4.95772 5.02079 5.78411 4.18773C7.68972 2.28657 10.1581 1.06064 12.8169 0.694939C13.9454 0.398963 15.1215 0.334498 16.2753 0.505382C17.429 0.676267 18.5368 1.07901 19.5327 1.68962C20.2037 2.11882 20.7605 2.70618 21.155 3.40081C21.5495 4.09543 21.7696 4.87637 21.7965 5.67596C21.8186 7.17388 21.285 8.62631 20.2999 9.74955C19.3148 10.8728 17.9489 11.5862 16.4691 11.7504C15.9322 11.8307 15.3891 11.8612 14.8467 11.8415C15.9759 10.62 16.6389 9.0356 16.7181 7.3692C16.7712 6.78523 16.6891 6.19682 16.4784 5.6501C16.2676 5.10339 15.9338 4.61325 15.5032 4.2181C15.0922 3.90034 14.6176 3.67605 14.1122 3.5607C13.6067 3.44534 13.0824 3.44166 12.5754 3.54991Z" fill="white"/>
<path d="M39.8235 29.0624C39.1107 29.4553 38.3121 29.664 37.4994 29.6699C36.5788 29.6699 36.0732 29.5332 35.9902 29.1612C35.5375 27.1009 35.1325 24.823 34.7753 22.3274C34.4182 19.8319 34.1842 18.2297 34.0736 17.5211C31.425 23.1703 29.6517 27.2401 28.7462 29.6699C28.0513 30.1123 27.2576 30.3733 26.4371 30.4292C25.5015 30.5127 24.9883 30.376 24.8902 30.004C24.5129 28.4145 24.108 26.0278 23.6754 22.8438C23.2427 19.6598 22.79 16.8757 22.3171 14.4915C22.0253 12.6262 21.4097 10.8271 20.4985 9.17634C21.4751 8.51271 22.5729 8.05073 23.7282 7.81719C24.3062 7.70686 24.9041 7.78674 25.4335 8.04498C25.8514 8.3443 26.1676 8.76583 26.339 9.25227C26.5883 9.85931 26.7852 10.4868 26.9276 11.1277C27.1068 11.9872 27.2328 12.857 27.3049 13.7321C27.4055 14.8002 27.4936 15.8278 27.569 16.8149C27.8457 20.5203 28.0721 23.064 28.2482 24.4459C30.4666 18.9334 32.0211 14.6661 32.9341 11.5985C32.6274 10.3929 32.1684 9.23185 31.5683 8.14369C32.557 7.52617 33.6616 7.12036 34.8131 6.95159C35.3982 6.87674 35.992 6.98826 36.5109 7.27049C36.9274 7.59058 37.2421 8.02598 37.4164 8.52334C37.6648 9.14108 37.8617 9.77857 38.005 10.4292C38.1839 11.2964 38.3099 12.1737 38.3823 13.0564C38.4829 14.1295 38.5709 15.1622 38.6464 16.1543C38.9231 19.8749 39.1494 22.4312 39.3255 23.8233C42.0491 18.2452 43.9723 12.3065 45.0377 6.18469C47.0299 7.24771 48.0561 8.34111 48.0561 9.4421C47.8656 11.2042 47.354 12.9159 46.5469 14.4915C45.5408 16.7592 44.3184 19.3814 42.8796 22.3578C41.4409 25.3343 40.4222 27.5692 39.8235 29.0624Z" fill="white"/>
<path d="M54.6817 19.7534C53.4818 19.7176 52.2897 19.547 51.1276 19.2447C51.1276 19.5028 51.0898 19.8977 51.0898 20.4292C50.9774 22.1048 51.3862 23.774 52.2594 25.2052C52.5588 25.6897 52.9692 26.0949 53.4563 26.3869C53.9434 26.6789 54.493 26.8491 55.059 26.8832C56.1567 26.9147 57.2382 26.6103 58.1603 26.01C59.1987 25.3374 60.0772 24.4431 60.7335 23.3905C61.639 23.6385 62.0942 24.1447 62.0993 24.9091C61.2229 26.4038 59.9635 27.6342 58.4529 28.4716C56.9424 29.3091 55.2359 29.723 53.5121 29.6699C52.4617 29.6417 51.4277 29.4006 50.4722 28.9609C49.5166 28.5213 48.659 27.8921 47.9507 27.111C47.1232 26.1877 46.4863 25.1081 46.077 23.935C45.6676 22.7618 45.494 21.5185 45.5662 20.2773C45.5575 18.1409 45.9812 16.025 46.8113 14.0586C47.6557 12.0719 49.0293 10.3586 50.7804 9.108C52.5093 7.80759 54.6302 7.14537 56.787 7.23252C58.5699 7.16317 60.3106 7.78875 61.6465 8.97892C62.1622 9.52153 62.5647 10.1625 62.8304 10.8641C63.096 11.5657 63.2195 12.3136 63.1934 13.064C63.2737 14.0725 63.087 15.0845 62.6522 15.9968C62.2175 16.9091 61.5502 17.6892 60.7184 18.2576C58.9082 19.3723 56.7992 19.8949 54.6817 19.7534ZM56.2738 9.57117C55.5711 9.59475 54.8902 9.82235 54.3132 10.2265C53.7361 10.6307 53.2876 11.1942 53.0216 11.8491C52.0726 13.6449 51.4829 15.6107 51.286 17.635H51.852C52.7258 17.7334 53.6104 17.645 54.4478 17.3754C55.2853 17.1059 56.0567 16.6613 56.7115 16.0708C57.2254 15.5392 57.6298 14.9107 57.9018 14.2214C58.1737 13.5321 58.3077 12.7956 58.2961 12.0541C58.3099 11.4418 58.1302 10.841 57.783 10.3381C57.6129 10.0959 57.3864 9.89933 57.1233 9.76564C56.8602 9.63195 56.5685 9.56518 56.2738 9.57117Z" fill="white"/>
<path d="M71.3202 20.7101C70.1136 20.6138 68.9215 20.382 67.7661 20.0192C67.7409 20.2723 67.7283 20.6646 67.7283 21.1961C67.6206 22.8905 68.0286 24.5777 68.8979 26.0328C69.1955 26.5307 69.6026 26.9532 70.088 27.2678C70.5733 27.5824 71.1239 27.7808 71.6975 27.8476C72.7846 27.9259 73.8689 27.6604 74.7988 27.0883C75.8365 26.4631 76.717 25.6056 77.372 24.5826C78.2825 24.8711 78.7378 25.3773 78.7378 26.1012C77.8571 27.5671 76.5857 28.7554 75.0678 29.5311C73.55 30.3069 71.8465 30.639 70.1505 30.4899C67.9971 30.3127 65.9994 29.2899 64.5892 27.6425C62.9297 25.7161 62.0752 23.2183 62.2047 20.6722C62.1909 18.5573 62.615 16.4627 63.4498 14.5218C64.3012 12.6126 65.682 10.9912 67.4265 9.85211C69.1943 8.63487 71.331 8.08125 73.4632 8.28795C75.2688 8.31003 77.0014 9.00848 78.3227 10.2469C79.3587 11.3713 79.9142 12.8602 79.8696 14.3927C79.9579 15.3883 79.7739 16.3892 79.3377 17.2872C78.9015 18.1852 78.2295 18.9461 77.3946 19.4876C75.5522 20.5395 73.4228 20.9681 71.3202 20.7101ZM72.9123 10.6038C72.2189 10.5893 71.5374 10.786 70.957 11.1681C70.3766 11.5502 69.9246 12.0999 69.6601 12.745C68.7069 14.5065 68.1166 16.4434 67.9245 18.4398L68.4905 18.4778C69.3478 18.626 70.2269 18.5838 71.0663 18.3543C71.9057 18.1248 72.6852 17.7134 73.35 17.149C73.8637 16.6269 74.2659 16.0046 74.5319 15.3204C74.7979 14.6362 74.9221 13.9045 74.8969 13.1703C74.9095 12.5591 74.7386 11.9584 74.4064 11.4466C74.2403 11.1984 74.0185 10.9928 73.759 10.8464C73.4995 10.7 73.2095 10.6169 72.9123 10.6038Z" fill="white"/>
<path d="M86.6004 18.4018C86.1979 20.619 85.8835 22.5907 85.6571 24.3168C85.4282 26.0791 85.3147 27.8546 85.3176 29.6319C85.2458 30.9797 85.425 32.3291 85.8458 33.6107C84.2527 33.1444 82.849 32.1788 81.8389 30.8544C81.0464 29.4733 80.6665 27.8915 80.7448 26.2986C80.8111 23.9793 81.0762 21.67 81.5371 19.3965C82.0653 16.496 82.4049 14.5319 82.5558 13.5044C81.1235 13.6209 79.7128 13.9273 78.3603 14.4155C78.3074 13.8536 78.2848 13.436 78.2848 13.1551C78.212 12.6444 78.2872 12.1235 78.5014 11.6548C78.7155 11.1861 79.0595 10.7895 79.4922 10.5127C80.5914 10.0542 81.7937 9.90465 82.9708 10.0799C83.1444 8.19684 83.2349 6.8301 83.2349 6.00246C83.2349 5.17482 83.2349 4.48386 83.2349 3.90679C83.2349 3.32972 83.2349 2.92729 83.2349 2.64635C84.621 2.84987 85.8991 3.51565 86.8645 4.53701C87.6642 5.57582 88.066 6.86945 87.9964 8.18165C87.9792 9.02731 87.9163 9.87138 87.8077 10.7101C89.3979 10.9832 91.0333 10.7161 92.456 9.95083C92.5088 10.4672 92.5314 10.8468 92.5314 11.105C92.634 11.9771 92.4049 12.856 91.89 13.5651C91.5854 13.7953 91.2342 13.9555 90.8613 14.0342C90.4884 14.1129 90.1028 14.1083 89.7319 14.0207C88.7258 13.9093 87.9561 13.8106 87.4229 13.7246C87.282 14.6256 87.0078 16.1847 86.6004 18.4018Z" fill="white"/>
<path d="M111.117 3.93717C112.782 4.11536 114.386 4.67034 115.808 5.56056C117.229 6.45078 118.433 7.65315 119.327 9.07764C121.388 12.2843 122.44 16.042 122.345 19.8597C122.426 23.0219 121.626 26.1437 120.036 28.8726C119.256 30.2166 118.215 31.3883 116.974 32.3172C115.733 33.2462 114.318 33.9134 112.815 34.2789C111.07 34.7102 109.261 34.8106 107.48 34.575C105.712 34.3696 103.978 33.9384 102.319 33.2918C101.117 32.8588 99.9694 32.2854 98.9003 31.5833L97.8062 30.824C97.8062 30.6266 98.0828 28.7714 98.6362 25.2584C99.6876 18.6075 100.24 11.8864 100.289 5.15205C100.377 3.68915 100.211 2.22202 99.7983 0.816437C100.863 1.10603 101.86 1.60639 102.731 2.28824C103.602 2.9701 104.329 3.81977 104.869 4.78758C106.857 4.01821 108.997 3.727 111.117 3.93717ZM106.59 31.6061C107.585 31.7623 108.601 31.7164 109.578 31.4712C110.555 31.2261 111.473 30.7866 112.279 30.1786C113.876 28.9553 115.085 27.2905 115.758 25.3874C116.491 23.3297 116.857 21.1574 116.837 18.9713C116.932 16.0941 116.21 13.2492 114.754 10.7709C114.182 9.74229 113.378 8.86304 112.407 8.20371C111.436 7.54437 110.325 7.12333 109.163 6.97437C107.876 6.78375 106.565 6.85606 105.307 7.18698C105.307 8.73595 104.972 12.5907 104.303 18.7511C103.634 24.9116 103.3 28.865 103.3 30.6114C104.33 31.1351 105.443 31.4719 106.59 31.6061Z" fill="white"/>
<path d="M130.639 17.0807C131.038 16.4949 131.568 16.0114 132.187 15.6686C132.805 15.3258 133.495 15.1333 134.2 15.1065C134.704 15.1414 135.191 15.2976 135.622 15.5619C136.053 15.8262 136.414 16.1908 136.675 16.6251C137.258 17.6131 137.547 18.7492 137.505 19.8977C137.521 21.1593 137.114 22.3897 136.351 23.3905C135.995 23.8795 135.513 24.2612 134.957 24.4941C134.401 24.7271 133.792 24.8023 133.197 24.7116C132.759 24.6457 132.337 24.4989 131.952 24.2788C132.753 23.3128 133.17 22.0817 133.121 20.824C133.121 20.0116 132.797 19.5712 132.14 19.5028C131.834 19.5113 131.533 19.592 131.263 19.7383C130.993 19.8847 130.761 20.0927 130.586 20.3457C129.925 21.1263 129.388 22.0048 128.994 22.9501C128.406 24.3617 127.983 25.837 127.733 27.3464C127.38 29.2645 127.209 31.212 127.22 33.1627C127.22 33.4208 127.281 34.499 127.409 36.4201C126.601 36.3821 126.088 36.3441 125.854 36.3214C124.731 36.2787 123.648 35.889 122.753 35.2052C122.42 34.8611 122.163 34.4495 122.001 33.9978C121.838 33.546 121.773 33.0646 121.81 32.5856C121.81 32.0794 122.074 30.1558 122.602 26.8149C123.066 24.1609 123.331 21.4755 123.394 18.7815C123.408 16.8793 123.193 14.9824 122.753 13.1323C124.304 13.6978 125.65 14.7189 126.617 16.0632C127.346 17.2258 127.726 18.5759 127.711 19.9508C127.718 21.3225 127.604 22.692 127.371 24.0435C127.944 21.511 129.059 19.1348 130.639 17.0807Z" fill="white"/>
<path d="M143.142 28.5613C141.931 28.4516 140.738 28.1967 139.588 27.802C139.556 28.1934 139.543 28.5862 139.55 28.9789C139.447 30.6801 139.854 32.3733 140.72 33.8384C141.015 34.3405 141.421 34.7675 141.906 35.0862C142.392 35.4048 142.944 35.6066 143.519 35.676C144.607 35.76 145.693 35.4941 146.621 34.9167C147.66 34.2735 148.539 33.4011 149.194 32.3654C150.099 32.6312 150.552 33.1247 150.552 33.884C149.693 35.3764 148.429 36.5913 146.908 37.3861C145.387 38.181 143.672 38.5228 141.965 38.3715C139.796 38.1604 137.799 37.0928 136.411 35.4026C134.759 33.4358 133.908 30.9134 134.027 28.3411C134.011 26.2506 134.436 24.1805 135.272 22.2667C136.114 20.3701 137.495 18.7665 139.241 17.6577C141.024 16.479 143.153 15.9436 145.278 16.1391C147.071 16.142 148.801 16.8096 150.137 18.0146C150.653 18.559 151.056 19.2012 151.323 19.9038C151.59 20.6064 151.715 21.3554 151.692 22.1072C151.774 23.1128 151.588 24.1224 151.153 25.0314C150.718 25.9405 150.049 26.7161 149.216 27.2781C147.389 28.3721 145.252 28.8235 143.142 28.5613ZM144.727 18.455C144.035 18.4403 143.355 18.6352 142.775 19.0144C142.195 19.3935 141.742 19.9394 141.474 20.581C140.52 22.3311 139.929 24.2583 139.739 26.2454L140.305 26.2986C141.16 26.46 142.041 26.4265 142.882 26.2005C143.723 25.9745 144.503 25.5618 145.164 24.9926C145.681 24.4702 146.087 23.8473 146.357 23.1619C146.627 22.4766 146.755 21.7431 146.734 21.0062C146.747 20.3894 146.567 19.784 146.221 19.275C146.053 19.0305 145.83 18.829 145.57 18.6866C145.311 18.5443 145.022 18.4649 144.727 18.455Z" fill="white"/>
<path d="M155.811 31.5833C155.772 32.607 156.001 33.623 156.475 34.5294C156.65 34.8815 156.917 35.1796 157.246 35.392C157.575 35.6045 157.956 35.7236 158.347 35.7367C159.028 35.7083 159.693 35.5139 160.283 35.17C160.873 34.8261 161.371 34.3431 161.735 33.7625C162.919 32.1704 163.792 30.3668 164.308 28.4474C164.926 26.4374 165.251 24.3478 165.274 22.2439C165.293 20.6488 165.217 19.054 165.048 17.4679C165.802 17.4274 166.33 17.4097 166.632 17.4148C167.657 17.3616 168.674 17.6267 169.545 18.1741C169.9 18.4956 170.174 18.8973 170.344 19.3461C170.515 19.7949 170.577 20.278 170.526 20.7557C170.526 21.2619 170.222 23.2234 169.613 26.6403C169.085 29.3616 168.782 32.1222 168.707 34.8939C168.671 36.7958 169.074 38.6801 169.884 40.3988C168.285 40.2214 166.805 39.4595 165.727 38.2576C164.759 36.8974 164.29 35.2418 164.399 33.5727C164.399 33.2158 164.451 32.5325 164.55 31.515C163.973 33.7684 162.702 35.7804 160.92 37.2629C159.52 38.549 157.692 39.2613 155.796 39.2599C155.008 39.2382 154.235 39.0378 153.535 38.6736C152.835 38.3095 152.225 37.7909 151.752 37.1566C150.659 35.5624 150.127 33.6458 150.243 31.7124C150.236 29.4399 150.653 27.1863 151.473 25.0685C152.246 23.0168 153.514 21.1905 155.162 19.7534C156.657 18.3811 158.626 17.6508 160.648 17.7185C161.885 17.7778 163.095 18.0959 164.202 18.6524C161.598 19.5561 159.426 21.4092 158.113 23.846C156.672 26.1716 155.877 28.8435 155.811 31.5833Z" fill="white"/>
<path d="M187.232 34.4231C187.236 35.7651 187.312 37.106 187.459 38.4398C186.651 38.5537 186.123 38.6145 185.866 38.6372C184.814 38.8107 183.734 38.6207 182.803 38.0981C182.48 37.8486 182.224 37.5222 182.058 37.1484C181.892 36.7746 181.822 36.3652 181.852 35.9569C181.988 33.9411 182.26 31.9369 182.667 29.9584C183.125 27.6864 183.397 25.3806 183.482 23.064C183.482 21.4998 182.976 20.7861 181.973 20.7861C181.251 20.9072 180.602 21.2977 180.154 21.8795C179.404 22.7237 178.779 23.6725 178.298 24.6965C177.635 26.1253 177.146 27.6295 176.842 29.1763C176.461 30.8864 176.264 32.6327 176.253 34.3851C176.247 35.927 176.322 37.468 176.479 39.0017C175.679 39.0776 175.144 39.108 174.895 39.1156C173.826 39.2298 172.749 38.987 171.831 38.4246C171.492 38.1134 171.231 37.7267 171.067 37.2957C170.903 36.8646 170.842 36.4009 170.888 35.9417C170.888 35.6633 171.139 33.7701 171.642 30.2621C172.088 27.4993 172.34 24.7083 172.397 21.9098C172.414 20.022 172.196 18.1395 171.748 16.3062C173.285 16.6506 174.659 17.5132 175.642 18.7511C176.433 19.9607 176.826 21.3896 176.766 22.8362C176.748 23.8686 176.66 24.8986 176.502 25.9189C177.254 23.5511 178.47 21.359 180.079 19.4725C181.138 18.007 182.725 17.0175 184.501 16.7162C185.093 16.621 185.701 16.6992 186.251 16.9415C186.801 17.1838 187.27 17.58 187.602 18.0829C188.339 19.4815 188.674 21.0593 188.568 22.6388C189.408 20.8733 190.518 19.2515 191.858 17.8324C192.73 16.772 193.927 16.0324 195.261 15.7291C195.841 15.5788 196.45 15.5883 197.025 15.7566C197.6 15.925 198.119 16.2459 198.528 16.6858C199.242 17.7543 199.581 19.0312 199.494 20.3153C199.417 22.5942 199.165 24.8637 198.74 27.1034C198.332 29.2027 198.08 31.3295 197.985 33.4664C197.914 34.4219 198.083 35.3801 198.476 36.253C198.874 36.8586 199.461 37.315 200.143 37.5514C199.819 37.6274 199.351 37.7109 198.74 37.7944C197.227 38.1619 195.637 38.0206 194.212 37.392C193.72 37.0068 193.337 36.4983 193.101 35.9173C192.865 35.3363 192.785 34.7033 192.869 34.0814C192.986 32.2028 193.239 30.3351 193.624 28.493C194.042 26.4542 194.294 24.3846 194.378 22.3047C194.378 20.6266 193.873 19.8521 192.869 19.966C192.358 20.1054 191.879 20.3456 191.46 20.6728C191.042 21 190.692 21.4076 190.432 21.8719C189.388 23.4606 188.623 25.2171 188.168 27.0655C187.514 29.4616 187.199 31.9385 187.232 34.4231Z" fill="white"/>
<path d="M208.293 15.8202C207.569 15.9754 206.91 16.352 206.406 16.8984C206.132 17.1826 205.917 17.5191 205.775 17.8882C205.632 18.2573 205.565 18.6514 205.576 19.0473C205.567 19.8942 205.887 20.7112 206.467 21.3252C207.08 21.9889 207.819 22.5232 208.64 22.8969L211.228 24.0966C212.088 24.4999 212.857 25.0732 213.492 25.7823C214.152 26.5106 214.539 27.4477 214.586 28.4322C214.557 29.4069 214.335 30.3659 213.932 31.2527C213.529 32.1394 212.953 32.936 212.239 33.5955C210.666 35.2075 208.632 36.2852 206.421 36.6782C204.599 37.1627 202.667 36.999 200.951 36.2151C200.377 35.9678 199.885 35.5605 199.533 35.0412C199.181 34.5219 198.985 33.9123 198.966 33.2842C198.946 32.1625 199.329 31.0714 200.044 30.2109C200.76 29.3503 201.759 28.7781 202.86 28.5993C203.395 28.4944 203.946 28.4944 204.482 28.5993C203.752 29.4132 203.325 30.4573 203.275 31.553C203.245 31.952 203.301 32.3527 203.438 32.7285C203.574 33.1042 203.789 33.4464 204.067 33.7322C204.359 33.983 204.708 34.1584 205.083 34.243C205.457 34.3277 205.847 34.3192 206.218 34.2181C207.069 34.0672 207.857 33.6656 208.481 33.064C209.021 32.5816 209.353 31.9067 209.406 31.1824C209.46 30.4581 209.231 29.7413 208.768 29.1839C208.321 28.6707 207.774 28.2547 207.161 27.9615C206.522 27.6426 205.823 27.273 205.063 26.8529C204.339 26.4516 203.638 26.008 202.965 25.5241C202.29 25.0224 201.74 24.3701 201.358 23.6183C200.919 22.7596 200.699 21.8047 200.717 20.8392C200.728 19.9287 200.93 19.0309 201.311 18.205C201.693 17.3791 202.243 16.6439 202.928 16.048C204.47 14.6183 206.387 13.662 208.451 13.2918C210.042 12.7853 211.759 12.8661 213.296 13.5195C213.765 13.7809 214.154 14.167 214.42 14.6356C214.686 15.1043 214.819 15.6375 214.805 16.1771C214.802 17.3349 214.423 18.46 213.726 19.3814C213.065 20.3307 212.074 20.9948 210.949 21.2416C210.328 21.3651 209.69 21.3856 209.062 21.3024C209.596 20.7362 210.032 20.0844 210.353 19.3738C210.637 18.7649 210.792 18.1027 210.806 17.43C210.816 17.1534 210.751 16.8793 210.618 16.637C210.485 16.3948 210.289 16.1938 210.051 16.0556C209.515 15.7585 208.887 15.6745 208.293 15.8202Z" fill="white"/>
</g>
<defs>
<clipPath id="clip0_915_2760">
<rect width="213.926" height="40" fill="white" transform="translate(0.947266 0.0571289)"/>
</clipPath>
</defs>
</svg>
