<svg width="264" height="264" viewBox="0 0 264 264" fill="none" xmlns="http://www.w3.org/2000/svg">
<g clip-path="url(#clip0_711_1560)">
<path d="M200.692 162.892C201.872 197.275 134.937 195.63 99.9498 194.487C99.7987 184.265 96.7434 174.296 91.1404 165.745C95.1258 168.375 98.4644 171.873 100.906 175.977C103.347 180.08 104.828 184.683 105.237 189.441C108.722 189.887 114.391 190.37 121.184 190.51C121.255 181.64 119.152 172.889 115.06 165.02C118.604 167.915 121.481 171.541 123.497 175.65C125.513 179.758 126.619 184.253 126.741 188.828V190.565C131.963 190.565 137.688 190.342 143.468 189.831C144.825 180.159 143.511 170.3 139.667 161.321C142.986 164.47 145.587 168.297 147.294 172.542C149 176.786 149.771 181.349 149.554 185.919C149.489 187.028 149.359 188.133 149.164 189.227C154.708 188.623 160.2 187.607 165.594 186.189C167.958 176.351 167.51 166.047 164.302 156.452C167.349 159.841 169.629 163.848 170.986 168.199C172.343 172.55 172.744 177.142 172.163 181.663C171.996 182.617 171.829 183.515 171.662 184.358C182.33 180.483 189.913 174.48 189.913 165.15C189.913 141.565 153.188 151.675 141.786 153.859C118.433 158.31 69.1817 170.809 65.4181 141.444C61.8776 113.566 104.615 111.856 108.546 110.332C106.687 113.12 74.1626 118.528 79.2922 139.363C82.8327 153.906 111.017 153.683 131.517 151.443C155.771 148.804 199.568 130.888 200.692 162.892Z" fill="white"/>
<path d="M119.464 67.0652C117.885 67.344 114.576 69.0353 112.486 75.9119C111.423 80.5922 112.187 85.5018 114.623 89.6372C114.623 89.6372 106.585 86.5892 109.726 74.295C111.789 66.3125 118.526 66.2289 119.464 67.0652Z" fill="white"/>
<path d="M125.635 65.9594C125.635 65.9594 135.968 69.5742 136.684 76.488C137.023 78.8783 136.668 81.3157 135.661 83.51C134.654 85.7044 133.039 87.5634 131.006 88.8659C133.912 88.0044 136.379 86.0651 137.903 83.4446C139.426 80.8242 139.891 77.7207 139.202 74.7689C137.474 65.1045 125.635 65.9594 125.635 65.9594Z" fill="white"/>
<path d="M118.666 72.325C119.448 72.9664 120.389 73.3866 121.389 73.5418C122.389 73.697 123.412 73.5817 124.353 73.2078C124.788 73.0789 125.191 72.8605 125.536 72.5666C125.882 72.2726 126.162 71.9096 126.359 71.5009C126.556 71.0922 126.665 70.6469 126.68 70.1934C126.694 69.74 126.614 69.2885 126.444 68.8681C125.908 69.8143 125.176 70.635 124.297 71.2749C123.518 64.501 121.415 57.9462 118.108 51.9832C114.48 46.0399 109.04 41.4178 102.589 38.7969L98.8721 42.3188L103.323 42.2631C109.426 45.3756 114.471 50.2259 117.82 56.2021C120.454 61.1432 122.271 66.478 123.2 71.9997C121.718 72.3617 120.185 72.4717 118.666 72.325Z" fill="white"/>
<path d="M100.452 110.184C96.3721 98.7628 109.085 94.9528 127.447 88.2156C129.849 87.5766 132.05 86.3381 133.844 84.6162C135.637 82.8942 136.963 80.7451 137.699 78.3704C138.434 75.9956 138.555 73.473 138.049 71.039C137.543 68.6049 136.428 66.3392 134.807 64.4541C134.807 64.4541 169.19 65.8108 167.331 88.0762C165.473 110.341 129.659 109.7 126.118 120.182C125.546 121.771 125.318 123.463 125.448 125.146C125.578 126.83 126.063 128.467 126.871 129.949C125.68 129.17 124.666 128.148 123.896 126.951C123.126 125.754 122.616 124.409 122.401 123.002C122.185 121.595 122.268 120.158 122.644 118.785C123.021 117.413 123.682 116.135 124.585 115.034C130.997 105.816 157.109 106.95 160.213 89.6466C162.88 74.8248 143.486 71.2192 143.486 71.2192C143.486 71.2192 148.96 85.6322 128.404 92.3322C107.849 99.0323 100.563 99.9615 100.452 110.184Z" fill="white"/>
<path d="M172.833 98.3445C177.609 100.147 181.644 103.496 184.296 107.858C186.948 112.219 188.065 117.343 187.469 122.413C186.01 133.025 176.791 139.437 161.839 139.734C146.887 140.032 130.068 133.908 116.305 145.022C127.912 129.921 146.441 133.48 161.012 132.885C167.973 132.597 178.464 130.042 181.261 121.437C182.062 117.186 181.702 112.797 180.219 108.733C178.736 104.669 176.184 101.08 172.833 98.3445Z" fill="white"/>
<path d="M36.871 148.878C36.6413 147.215 35.949 145.651 34.8731 144.362C34.419 143.809 33.826 143.387 33.1548 143.138C32.4836 142.89 31.7585 142.825 31.0538 142.95C30.2752 143.066 29.5278 143.337 28.8559 143.748C28.1839 144.158 27.601 144.699 27.1415 145.338C26.0235 146.823 25.1974 148.507 24.7068 150.3C24.1586 152.214 23.6103 154.333 23.0899 156.638C22.5695 158.942 22.1606 161.089 21.7332 163.078C21.3936 164.956 20.7668 166.771 19.8746 168.458C19.185 169.908 17.9883 171.055 16.5107 171.683C14.9158 172.153 13.2124 172.1 11.6492 171.534C10.0861 170.967 8.74507 169.915 7.822 168.532C4.24257 164.137 2.02668 158.791 1.4472 153.153C0.365075 147.344 0.63214 141.363 2.22779 135.673C3.68674 131.222 5.59175 129.038 7.66402 129.01C8.7161 129.03 9.73995 129.354 10.6122 129.943C11.4844 130.531 12.1678 131.36 12.5799 132.328C13.8907 134.904 14.6383 137.73 14.7729 140.617C14.8472 141.52 14.8658 142.426 14.8287 143.331C14.2124 142.674 13.4594 142.16 12.6228 141.826C11.7862 141.492 10.8865 141.346 9.9872 141.398C9.08901 141.548 8.24618 141.932 7.54322 142.511C6.84026 143.09 6.30187 143.844 5.98204 144.697C4.93285 147.092 4.64103 149.751 5.1457 152.317C5.44346 154.866 6.34849 157.307 7.78483 159.435C9.05793 161.163 10.3868 161.786 11.7156 161.414C12.41 161.193 13.0485 160.824 13.5874 160.333C14.1262 159.843 14.5528 159.241 14.838 158.571C15.6493 156.901 16.2398 155.133 16.5943 153.311C17.0218 151.304 17.5236 149.111 18.2391 146.741C18.8714 144.529 19.6347 142.357 20.5251 140.236C21.3056 138.331 22.4916 136.619 24.0006 135.218C25.3467 133.931 27.1118 133.172 28.9722 133.081C30.4561 133.064 31.9172 133.447 33.2011 134.191C34.4851 134.936 35.5443 136.013 36.267 137.309C38.3942 140.713 39.7752 144.529 40.3186 148.507C41.208 152.099 41.2239 155.853 40.3651 159.453C40.1564 160.563 39.6995 161.611 39.0284 162.518C38.3573 163.426 37.4895 164.17 36.49 164.694C35.6491 165.033 34.7354 165.151 33.836 165.038C32.9365 164.924 32.0811 164.582 31.3511 164.044C29.4456 162.578 28.1617 160.448 27.7549 158.078C27.5242 157.128 27.3689 156.162 27.2902 155.188C27.9997 155.951 28.8947 156.518 29.8881 156.832C30.8816 157.146 31.9395 157.198 32.9588 156.982C33.7447 156.786 34.4722 156.404 35.0801 155.869C35.6881 155.334 36.1588 154.66 36.4528 153.906C37.0638 152.303 37.2088 150.56 36.871 148.878Z" fill="#FE6A84"/>
<path d="M24.1493 207.562C22.922 206.661 21.8806 205.531 21.0828 204.235C20.107 202.739 19.7911 201.754 20.0791 201.336C21.9394 198.986 23.9674 196.775 26.1473 194.719C28.489 192.48 30.0037 191.095 30.6357 190.491C22.4952 190.063 16.6408 189.106 13.2769 188.818C12.203 187.66 11.3608 186.307 10.7957 184.832C10.0616 183.075 9.86646 181.979 10.2475 181.598C12.5551 179.448 15.0422 177.498 17.6816 175.771C21.0889 173.448 24.0533 171.342 26.5747 169.452C28.6707 167.982 30.4945 166.158 31.9645 164.062C33.1172 165.48 34.0794 167.042 34.8267 168.709C35.2094 169.587 35.3935 170.539 35.3656 171.497C35.2488 172.248 34.9272 172.952 34.4364 173.532C33.901 174.223 33.3038 174.864 32.6522 175.446C31.8047 176.181 30.9039 176.852 29.9573 177.453C28.8236 178.197 27.7363 178.903 26.6863 179.563C22.7276 182.044 20.0606 183.856 18.6574 184.953C24.4254 185.704 30.2666 185.704 36.0347 184.953C37.1317 183.695 38.0682 182.306 38.8225 180.817C40.1689 181.916 41.3544 183.199 42.3445 184.627C42.8472 185.382 43.1655 186.245 43.2737 187.146C43.2778 187.879 43.0784 188.6 42.6976 189.227C42.2723 189.982 41.781 190.697 41.2293 191.364C40.5001 192.215 39.7113 193.014 38.869 193.753C37.8654 194.663 36.8958 195.528 35.9604 196.345C32.4384 199.421 30.0874 201.633 28.8607 202.915C36.8863 202.893 44.7735 200.823 51.7766 196.903C52.7058 200.025 52.7058 202.032 51.7766 202.98C49.9347 204.31 47.7986 205.174 45.5504 205.499C41.7755 206.298 37.9451 206.807 34.0925 207.023C29.6042 207.292 26.296 207.367 24.1493 207.562Z" fill="#FE6A84"/>
<path d="M50.6152 219.512C49.0899 218.188 47.724 216.691 46.545 215.052C46.1646 215.363 45.8046 215.698 45.467 216.055C44.649 216.759 43.9911 217.63 43.5375 218.609C43.0839 219.589 42.8451 220.654 42.8372 221.733C42.8776 222.665 43.1126 223.578 43.5271 224.413C43.9417 225.249 44.5265 225.988 45.244 226.584C46.711 227.854 48.4652 228.747 50.355 229.186C52.2358 229.615 54.1891 229.615 56.07 229.186C57.2037 230.31 57.5197 231.221 56.9993 231.974C54.1159 232.581 51.1273 232.469 48.2975 231.647C45.4678 230.825 42.8839 229.319 40.7742 227.262C37.9829 224.855 36.1438 221.53 35.5889 217.886C35.3308 216.232 35.5175 214.539 36.1299 212.981C36.7423 211.423 37.7583 210.056 39.0736 209.021C41.1363 207.256 43.6043 206.03 46.2569 205.452C49.1716 204.845 52.1877 204.925 55.0664 205.685C58.1578 206.4 61.0403 207.825 63.4856 209.848C65.5677 211.279 67.1629 213.312 68.0576 215.674C68.3257 216.579 68.3814 217.534 68.2202 218.464C68.059 219.394 67.6853 220.274 67.1283 221.036C66.3794 222.205 65.2979 223.124 64.0228 223.674C62.7477 224.224 61.3373 224.379 59.9729 224.121C56.472 223.527 53.2202 221.925 50.6152 219.512ZM60.9394 211.576C60.1359 210.951 59.1942 210.528 58.1933 210.342C57.1924 210.156 56.1616 210.213 55.1872 210.507C52.6288 211.1 50.225 212.227 48.134 213.816L48.8124 214.466C50.7247 216.609 53.3847 217.939 56.2465 218.183C57.2392 218.219 58.2265 218.022 59.13 217.609C60.0334 217.196 60.8279 216.578 61.4505 215.804C61.9488 215.214 62.2045 214.457 62.166 213.686C62.1284 213.264 61.9992 212.856 61.7873 212.49C61.5754 212.124 61.286 211.809 60.9394 211.567V211.576Z" fill="#FE6A84"/>
<path d="M73.7537 235.087C71.9794 234.187 70.3144 233.086 68.7914 231.806C68.4934 232.195 68.2203 232.601 67.9736 233.024C67.3414 233.882 66.9014 234.867 66.6833 235.911C66.4652 236.955 66.4743 238.033 66.7098 239.073C66.9665 239.953 67.4063 240.769 68.0005 241.468C68.5946 242.166 69.3297 242.731 70.1574 243.125C71.8857 243.996 73.7979 244.439 75.733 244.417C77.6642 244.404 79.5685 243.963 81.3087 243.125C82.6654 243.943 83.1672 244.76 82.8327 245.597C80.1753 246.84 77.2572 247.425 74.3259 247.3C71.3946 247.176 68.5365 246.346 65.9943 244.881C62.7533 243.268 60.2076 240.534 58.8296 237.187C58.1996 235.658 57.9939 233.988 58.2343 232.353C58.4748 230.717 59.1524 229.177 60.1956 227.894C61.8031 225.707 63.913 223.938 66.3474 222.737C69.0262 221.44 71.967 220.775 74.9432 220.795C78.0933 220.716 81.2173 221.385 84.0593 222.746C86.4058 223.629 88.4216 225.216 89.8301 227.29C90.2957 228.103 90.5658 229.013 90.619 229.949C90.6723 230.884 90.5071 231.819 90.1367 232.68C89.6728 233.98 88.8335 235.112 87.725 235.935C86.6166 236.757 85.2891 237.231 83.9106 237.298C80.3835 237.542 76.8601 236.775 73.7537 235.087ZM81.9592 225.032C81.0297 224.624 80.0164 224.443 79.0032 224.505C77.9901 224.566 77.006 224.868 76.1326 225.385C73.7855 226.565 71.7096 228.22 70.0366 230.245L70.8451 230.701C73.21 232.281 76.0824 232.914 78.8926 232.475C79.8634 232.276 80.7752 231.856 81.557 231.246C82.3387 230.637 82.9692 229.856 83.3995 228.963C83.7465 228.282 83.8196 227.494 83.604 226.76C83.4748 226.369 83.2603 226.01 82.9758 225.711C82.6914 225.412 82.3441 225.18 81.9592 225.032Z" fill="#FE6A84"/>
<path d="M98.9279 239.798C97.5061 242.289 96.2795 244.5 95.2666 246.452C94.2432 248.418 93.3943 250.47 92.7297 252.585C92.1013 254.127 91.9334 255.819 92.2464 257.454C89.7204 256.502 87.5583 254.779 86.0668 252.529C85.6642 251.613 85.4633 250.621 85.4778 249.621C85.4922 248.62 85.7216 247.635 86.1504 246.73C87.3271 244.057 88.7783 241.512 90.4808 239.138C92.5717 236.007 93.9005 233.86 94.5603 232.726C92.3457 232.343 90.1068 232.117 87.8603 232.048C88.0007 231.55 88.1683 231.06 88.3621 230.58C88.5777 229.922 88.9763 229.339 89.5112 228.9C90.0461 228.46 90.6951 228.182 91.3822 228.099C93.1553 228.025 94.9257 228.297 96.5954 228.898C97.3543 227.384 98.0367 225.834 98.6398 224.251C98.9837 223.322 99.2531 222.467 99.4669 221.817C99.6806 221.166 99.8386 220.674 99.9594 220.349C101.649 220.93 103.11 222.033 104.132 223.499C104.497 224.194 104.717 224.957 104.776 225.74C104.835 226.523 104.733 227.31 104.476 228.052C104.172 229.06 103.802 230.047 103.37 231.007C105.661 231.719 108.114 231.719 110.404 231.007C110.371 231.475 110.312 231.94 110.228 232.401C110.174 232.962 110.004 233.505 109.729 233.996C109.454 234.487 109.08 234.916 108.629 235.254C107.546 235.719 106.331 235.775 105.21 235.412C103.704 235.068 102.571 234.761 101.79 234.483C101.27 235.533 100.34 237.298 98.9279 239.798Z" fill="#FE6A84"/>
<path d="M137.037 222.802C139.136 222.637 141.246 222.903 143.238 223.586C145.229 224.268 147.06 225.352 148.616 226.77C152.087 229.874 154.455 234.023 155.362 238.59C156.337 242.579 155.797 246.787 153.848 250.401C151.256 254.833 147.039 258.08 142.092 259.452C138.936 260.463 135.64 260.971 132.326 260.958C129.127 260.982 125.938 260.613 122.829 259.861C120.724 259.398 118.681 258.69 116.742 257.752L114.883 256.739C114.958 256.497 115.813 254.267 117.197 250.02C119.856 242.101 121.62 233.91 122.457 225.599C122.729 223.851 122.675 222.068 122.299 220.339C124.931 220.946 127.216 222.569 128.655 224.855C131.313 223.704 134.147 223.009 137.037 222.802ZM130.746 257.454C134.315 257.595 137.837 256.596 140.801 254.601C143.269 252.95 145.142 250.549 146.144 247.753C147.013 245.132 147.255 242.344 146.85 239.612C146.479 236.123 144.989 232.847 142.603 230.273C141.586 229.162 140.337 228.288 138.945 227.713C137.553 227.138 136.051 226.877 134.547 226.946C132.741 226.949 130.946 227.225 129.222 227.764C128.827 232.544 128.16 237.297 127.224 242.001C125.839 249.593 124.957 254.434 124.845 256.571C126.754 257.158 128.74 257.452 130.737 257.445L130.746 257.454Z" fill="#FE6A84"/>
<path d="M166.458 231.184C167.188 229.282 168.613 227.728 170.444 226.835C171.077 226.563 171.762 226.436 172.45 226.462C173.137 226.487 173.811 226.666 174.422 226.983C175.677 227.688 176.659 228.794 177.209 230.124C177.542 230.866 177.723 231.666 177.742 232.478C177.761 233.29 177.618 234.098 177.321 234.854C176.98 235.723 176.442 236.501 175.748 237.125C175.054 237.749 174.225 238.203 173.325 238.451C172.663 238.652 171.973 238.746 171.281 238.729C171.661 238.009 171.879 237.214 171.92 236.4C171.96 235.586 171.821 234.773 171.513 234.018C171.465 233.816 171.373 233.627 171.243 233.466C171.113 233.304 170.948 233.174 170.76 233.085C170.573 232.996 170.368 232.95 170.16 232.95C169.953 232.951 169.748 232.998 169.561 233.089C168.73 233.452 168.066 234.116 167.703 234.947C167.07 236.194 166.617 237.523 166.355 238.897C165.992 240.829 165.867 242.798 165.984 244.76C166.079 247.185 166.473 249.588 167.155 251.916C167.248 252.213 167.712 253.458 168.604 255.633C167.192 256.06 166.281 256.302 165.863 256.404C163.993 256.976 162.01 257.075 160.092 256.692C159.487 256.514 158.946 256.165 158.533 255.687C158.121 255.209 157.856 254.622 157.769 253.997C157.639 253.384 157.63 250.959 157.611 246.712C157.654 243.365 157.343 240.022 156.682 236.741C156.176 234.47 155.356 232.281 154.247 230.236C156.456 230.241 158.621 230.848 160.51 231.992C161.902 232.973 162.918 234.399 163.391 236.035C163.894 237.663 164.206 239.343 164.32 241.043C164.394 237.65 165.12 234.303 166.458 231.184Z" fill="#FE6A84"/>
<path d="M189.848 235.486C188.073 236.38 186.202 237.069 184.272 237.54C184.434 237.999 184.626 238.446 184.848 238.878C185.244 239.884 185.843 240.797 186.607 241.561C187.371 242.326 188.285 242.924 189.29 243.32C190.171 243.622 191.104 243.741 192.032 243.671C192.96 243.601 193.864 243.342 194.689 242.911C196.386 242.061 197.846 240.803 198.936 239.25C200.01 237.72 200.711 235.96 200.98 234.111C202.449 233.507 203.434 233.553 203.963 234.306C203.505 237.138 202.336 239.807 200.567 242.064C198.797 244.321 196.484 246.093 193.844 247.214C190.582 248.86 186.848 249.313 183.287 248.496C181.659 248.138 180.151 247.367 178.908 246.257C177.664 245.147 176.728 243.735 176.188 242.158C175.236 239.674 174.917 236.991 175.258 234.353C175.639 231.506 176.715 228.796 178.39 226.463C180.115 223.908 182.445 221.82 185.174 220.386C187.303 219.022 189.792 218.329 192.32 218.397C193.461 218.533 194.551 218.951 195.492 219.611C196.433 220.272 197.196 221.155 197.712 222.182C198.228 223.209 198.482 224.348 198.451 225.497C198.42 226.647 198.104 227.77 197.533 228.768C195.689 231.715 193.015 234.052 189.848 235.486ZM185.88 223.294C185.02 223.778 184.296 224.471 183.776 225.309C183.256 226.148 182.957 227.104 182.906 228.089C182.595 230.637 182.842 233.221 183.631 235.663L184.467 235.291C187.099 234.368 189.266 232.454 190.508 229.957C190.888 229.06 191.045 228.084 190.965 227.113C190.886 226.142 190.573 225.205 190.052 224.382C189.655 223.711 189.028 223.209 188.287 222.969C187.889 222.855 187.473 222.826 187.063 222.882C186.653 222.938 186.26 223.078 185.908 223.294H185.88Z" fill="#FE6A84"/>
<path d="M209.474 226.5C210.25 227.564 211.38 228.315 212.661 228.619C213.28 228.735 213.916 228.706 214.521 228.533C215.126 228.361 215.682 228.049 216.146 227.625C216.99 226.898 217.674 226.005 218.154 225C218.634 223.995 218.899 222.902 218.934 221.789C219.091 219.109 218.576 216.433 217.438 214.002C216.393 211.564 214.88 209.354 212.987 207.497C211.571 206.1 210.063 204.803 208.47 203.612C209.204 202.776 209.716 202.19 210.032 201.865C210.993 200.714 212.221 199.814 213.609 199.245C214.212 199.083 214.847 199.083 215.449 199.247C216.051 199.41 216.6 199.73 217.038 200.174C218.714 202.011 220.266 203.958 221.685 206.001C223.673 208.85 225.946 211.491 228.468 213.881C230.299 215.531 232.634 216.513 235.094 216.669C233.18 218.719 230.671 220.117 227.92 220.664C226.83 220.759 225.733 220.597 224.716 220.192C223.7 219.787 222.792 219.15 222.066 218.332C221.484 217.701 220.935 217.04 220.421 216.353C221.774 219.374 221.917 222.8 220.82 225.924C219.883 229.089 217.987 231.884 215.393 233.925C213.319 235.656 210.655 236.519 207.959 236.332C206.715 236.173 205.522 235.734 204.472 235.046C203.423 234.359 202.543 233.442 201.9 232.364C200.302 229.974 199.261 227.256 198.852 224.409C198.415 221.476 198.621 218.483 199.456 215.637C200.206 212.815 201.786 210.284 203.991 208.37C205.365 207.209 206.91 206.269 208.573 205.582C206.667 208.973 205.825 212.858 206.156 216.734C206.253 220.249 207.409 223.653 209.474 226.5Z" fill="#FE6A84"/>
<path d="M247.072 185.389C248.586 186.104 250.159 186.686 251.774 187.127C251.18 188.623 250.752 189.58 250.538 190.036C249.783 191.934 248.577 193.621 247.026 194.951C246.579 195.324 246.027 195.548 245.448 195.591C244.868 195.634 244.289 195.495 243.792 195.193C241.749 193.699 239.843 192.025 238.095 190.194C236.073 188.122 233.804 186.305 231.34 184.785C229.639 183.856 228.422 184.116 227.623 185.529C227.16 186.524 227.024 187.639 227.232 188.716C227.453 190.243 227.884 191.732 228.515 193.139C229.357 194.99 230.445 196.718 231.749 198.278C233.101 200.008 234.694 201.535 236.479 202.813C238.052 203.927 239.715 204.91 241.45 205.75C240.642 207.051 240.075 207.887 239.805 208.268C238.762 209.943 237.319 211.332 235.605 212.31C235.027 212.572 234.384 212.655 233.758 212.549C233.132 212.443 232.552 212.153 232.092 211.716C231.814 211.502 230.308 209.625 227.446 206.214C225.262 203.496 222.809 201.005 220.123 198.78C218.264 197.308 216.205 196.106 214.009 195.212C215.718 193.746 217.799 192.782 220.021 192.424C221.837 192.298 223.64 192.814 225.114 193.883C226.159 194.637 227.133 195.486 228.022 196.42C226.304 193.597 225.135 190.476 224.575 187.22C223.96 184.672 224.181 181.994 225.207 179.581C225.541 178.736 226.062 177.977 226.732 177.362C227.401 176.747 228.201 176.292 229.072 176.032C231.055 175.692 233.094 176.019 234.871 176.961C233.494 174.677 232.452 172.208 231.776 169.629C231.156 167.66 231.079 165.56 231.553 163.551C231.928 161.611 233.032 159.889 234.639 158.738C235.384 158.344 236.2 158.103 237.039 158.029C237.879 157.956 238.725 158.052 239.527 158.31C242.206 159.137 244.77 160.302 247.156 161.777C249.382 163.199 251.756 164.374 254.237 165.28C255.399 165.751 256.699 165.751 257.861 165.28C258.985 164.516 259.887 163.468 260.472 162.241C260.352 162.947 260.156 163.932 259.85 165.196C259.288 168.372 258.018 171.38 256.133 173.996C255.561 174.698 254.772 175.189 253.89 175.391C253.007 175.593 252.083 175.495 251.263 175.112C249.169 174.076 247.186 172.831 245.344 171.394C243.296 169.826 241.053 168.53 238.672 167.538C236.72 166.86 235.494 167.343 234.955 168.969C234.576 170.526 234.744 172.166 235.428 173.615C236.406 175.928 237.809 178.037 239.564 179.832C241.681 182.155 244.232 184.043 247.072 185.389Z" fill="#FE6A84"/>
<path d="M238.523 141.741C238.392 142.969 238.561 144.209 239.015 145.356C239.173 145.85 239.466 146.289 239.86 146.626C240.254 146.962 240.734 147.182 241.246 147.261C241.836 147.319 242.432 147.234 242.984 147.014C243.535 146.795 244.026 146.446 244.415 145.998C245.589 144.829 246.559 143.472 247.286 141.983C248.122 140.32 248.959 138.591 249.776 136.788C250.541 135.066 251.498 133.435 252.629 131.928C253.032 131.3 253.556 130.758 254.17 130.334C254.784 129.909 255.477 129.611 256.207 129.457C258.437 129.457 260.342 131.231 261.783 134.976C263.282 139.358 263.721 144.033 263.065 148.618C262.77 152.727 261.536 156.713 259.459 160.271C257.768 162.799 256.151 163.774 254.711 163.384C253.98 163.169 253.318 162.766 252.79 162.217C252.263 161.668 251.887 160.991 251.7 160.253C251.118 158.361 251.025 156.353 251.431 154.417C251.626 153.312 251.938 152.231 252.36 151.192C253.159 153.051 254.116 154.064 255.278 154.287C255.845 154.402 256.434 154.355 256.977 154.151C257.519 153.947 257.993 153.595 258.344 153.134C259.349 151.832 259.941 150.259 260.045 148.618C260.303 146.882 260.189 145.112 259.71 143.423C259.255 141.974 258.558 141.212 257.647 141.137C257.158 141.119 256.672 141.219 256.229 141.427C255.786 141.636 255.399 141.948 255.101 142.336C254.234 143.31 253.494 144.391 252.899 145.551C252.22 146.834 251.431 148.191 250.548 149.622C249.731 150.939 248.834 152.206 247.862 153.413C247.013 154.484 245.929 155.346 244.693 155.931C243.536 156.486 242.221 156.617 240.976 156.303C239.829 155.934 238.8 155.266 237.997 154.368C237.193 153.47 236.644 152.373 236.404 151.192C235.437 147.892 235.156 144.429 235.577 141.017C235.664 137.922 236.359 134.875 237.622 132.049C238.718 130.098 239.926 129.057 241.339 129.038C242.08 129.051 242.805 129.262 243.437 129.649C244.069 130.036 244.587 130.586 244.935 131.241C245.978 132.978 246.441 135.003 246.254 137.021C246.171 138.305 245.946 139.577 245.585 140.812C245.167 139.78 244.533 138.849 243.727 138.08C243.136 137.486 242.358 137.115 241.525 137.03C240.781 137.03 240.131 137.448 239.554 138.368C238.95 139.396 238.597 140.552 238.523 141.741Z" fill="#FE6A84"/>
<path d="M102.914 15.2584C84.0335 19.6446 66.538 28.6527 51.9997 41.4731C29.986 60.8573 15.952 87.7233 12.6172 116.865C15.3262 87.4128 28.854 60.0097 50.5872 39.9491C65.4165 26.3085 83.3945 16.5548 102.914 11.5599C102.914 11.5599 105.042 11.0302 105.135 13.0653C105.2 14.7845 102.914 15.2584 102.914 15.2584Z" fill="#FE6A84"/>
<path d="M159.702 16.1319C182.594 22.2246 203.065 35.1935 218.353 53.2883C233.641 71.3831 243.01 93.7326 245.195 117.32V117.422C245.328 118.482 245.867 119.449 246.7 120.118C247.532 120.787 248.592 121.107 249.655 121.009C250.194 120.951 250.715 120.785 251.188 120.523C251.661 120.26 252.077 119.905 252.412 119.479C252.746 119.053 252.992 118.564 253.134 118.042C253.277 117.52 253.314 116.974 253.242 116.437C249.859 86.3068 235.403 58.5075 212.68 38.4344C197.744 25.1801 179.756 15.8349 160.324 11.2347C160.001 11.0925 159.648 11.0301 159.295 11.0526C158.942 11.075 158.6 11.1817 158.297 11.3638C157.994 11.5458 157.739 11.7978 157.553 12.0987C157.367 12.3997 157.257 12.7407 157.23 13.0932C156.933 15.3885 159.442 16.039 159.702 16.1319Z" fill="#FE6A84"/>
<path d="M115.608 8.93945C115.022 9.08464 114.403 8.99808 113.879 8.69784C113.648 8.5736 113.445 8.40169 113.285 8.19345C113.125 7.98522 113.011 7.74539 112.95 7.48979C112.89 7.118 112.922 6.73703 113.043 6.38049C113.165 6.02395 113.372 5.70281 113.647 5.44539C114.387 4.67835 115.375 4.19777 116.435 4.08866C117.511 3.86259 118.629 3.95958 119.65 4.36744C120.083 4.55192 120.457 4.85279 120.729 5.23665C121.001 5.62051 121.162 6.07232 121.193 6.54193C121.244 7.84021 120.854 9.1176 120.087 10.1661C119.03 11.7571 117.728 13.1714 116.231 14.3571L116.546 14.2921C117.717 14.069 118.805 13.8181 119.827 13.5486C120.561 13.383 121.275 13.1368 121.955 12.8145C122.045 13.5011 121.912 14.1986 121.574 14.8032C121.429 15.0402 121.233 15.2418 120.999 15.3929C120.766 15.5441 120.502 15.6411 120.226 15.6767C120.068 15.6767 119.529 15.7324 118.591 15.7696C117.654 15.8196 116.722 15.9407 115.803 16.132C114.921 16.3013 114.073 16.6153 113.294 17.0613C113.216 16.6663 113.275 16.2567 113.461 15.8997C113.698 15.3864 114.119 14.9815 114.641 14.766L115.719 13.4464C116.026 13.0654 116.398 12.5729 116.835 11.9503C117.221 11.4129 117.578 10.8545 117.903 10.2776C118.183 9.75514 118.404 9.20356 118.563 8.63279C118.731 8.07288 118.776 7.48312 118.693 6.90435C118.666 6.65919 118.586 6.42276 118.46 6.21111C118.333 5.99945 118.162 5.81754 117.959 5.67771C117.771 5.54526 117.558 5.45159 117.333 5.40213C117.108 5.35268 116.875 5.34843 116.649 5.38964C116.424 5.4184 116.207 5.49154 116.011 5.60481C115.815 5.71807 115.643 5.8692 115.506 6.04942C115.368 6.24024 115.274 6.45913 115.231 6.69044C115.187 6.92176 115.196 7.15981 115.255 7.38757C115.389 7.96017 115.743 8.45723 116.24 8.77218C116.034 8.84572 115.823 8.90168 115.608 8.93945Z" fill="#FE6A84"/>
<path d="M129.919 3.12221C130.391 3.08578 130.864 3.17389 131.291 3.37773C131.718 3.58158 132.085 3.89401 132.353 4.2838C132.95 5.2055 133.242 6.29098 133.19 7.38756C133.199 9.12184 132.757 10.8287 131.907 12.3406C131.509 13.0626 130.945 13.6802 130.263 14.1434C129.535 14.6229 128.689 14.8929 127.819 14.9239C127.318 14.9381 126.821 14.8422 126.362 14.6431C125.902 14.444 125.492 14.1465 125.161 13.7716C124.24 12.7441 123.699 11.4323 123.628 10.0546C123.408 8.50657 123.674 6.92862 124.39 5.53831C124.701 4.92495 125.133 4.38081 125.66 3.9385C126.187 3.49619 126.798 3.16481 127.456 2.96423C127.781 2.96423 127.967 3.16867 128.014 3.62402C128.611 3.33633 129.257 3.16598 129.919 3.12221ZM128.831 4.4046C128.334 4.46391 127.863 4.65924 127.469 4.96911C127.076 5.27897 126.775 5.69137 126.601 6.16092C126.045 7.22707 125.8 8.42831 125.895 9.6271C125.938 10.6211 126.195 11.594 126.648 12.48C126.784 12.7872 127.009 13.0467 127.294 13.2255C127.578 13.4042 127.91 13.4941 128.246 13.4836C129.064 13.4836 129.696 12.8888 130.16 11.8295C130.638 10.6832 130.86 9.44632 130.811 8.20532C130.858 7.1854 130.651 6.16976 130.207 5.25024C130.078 4.99637 129.882 4.78349 129.639 4.63568C129.395 4.48788 129.116 4.41105 128.831 4.4139V4.4046Z" fill="#FE6A84"/>
<path d="M137.706 7.41537C137.105 7.41909 136.525 7.18923 136.089 6.77418C135.904 6.59526 135.758 6.37978 135.66 6.14143C135.563 5.90307 135.516 5.64704 135.522 5.38956C135.542 5.01208 135.653 4.64512 135.848 4.32102C136.042 3.99691 136.314 3.72561 136.638 3.53102C137.522 2.97119 138.573 2.73782 139.611 2.87124C140.708 2.90632 141.77 3.26879 142.659 3.91202C143.028 4.1998 143.31 4.58381 143.474 5.02165C143.638 5.45949 143.677 5.93414 143.589 6.39317C143.332 7.66506 142.65 8.81188 141.656 9.64562C140.258 10.938 138.665 12.0012 136.935 12.7958H137.251C138.44 12.8516 139.556 12.8795 140.606 12.8516C141.357 12.866 142.108 12.7975 142.845 12.6472C142.773 13.3421 142.476 13.9945 142 14.5057C141.803 14.7015 141.564 14.8508 141.302 14.9424C141.04 15.0341 140.761 15.0659 140.485 15.0354C140.327 15.0354 139.797 14.9146 138.877 14.738C137.958 14.5589 137.026 14.4501 136.089 14.4128C135.195 14.37 134.3 14.4768 133.441 14.7287C133.46 14.3275 133.614 13.9444 133.878 13.6415C134.224 13.198 134.725 12.9025 135.281 12.8144L136.638 11.7922C137.028 11.4949 137.502 11.1046 138.069 10.6028C138.574 10.1743 139.054 9.71822 139.509 9.23674C139.926 8.78983 140.29 8.29729 140.596 7.76849C140.893 7.26557 141.076 6.70444 141.135 6.12369C141.172 5.77858 141.107 5.43016 140.947 5.12198C140.788 4.81379 140.541 4.55953 140.237 4.39096C139.934 4.22238 139.587 4.14699 139.241 4.1742C138.895 4.2014 138.565 4.33001 138.292 4.54393C138.114 4.69647 137.972 4.88626 137.875 5.09984C137.779 5.31342 137.731 5.54557 137.734 5.77986C137.727 6.36757 137.951 6.93463 138.357 7.35962C138.142 7.39669 137.924 7.41534 137.706 7.41537Z" fill="#FE6A84"/>
<path d="M148.736 8.69779C148.137 8.62717 147.587 8.32753 147.203 7.86145C147.036 7.6558 146.914 7.41672 146.847 7.16027C146.78 6.90383 146.768 6.63594 146.813 6.37461C146.879 6.00684 147.034 5.66072 147.264 5.36609C147.494 5.07145 147.792 4.83713 148.132 4.68334C149.083 4.23225 150.161 4.12708 151.18 4.38597C152.27 4.55479 153.286 5.04311 154.098 5.78917C154.439 6.11532 154.682 6.52925 154.802 6.98518C154.922 7.44111 154.913 7.92126 154.777 8.37255C154.36 9.60262 153.542 10.6567 152.454 11.3648C150.898 12.4714 149.18 13.3304 147.361 13.911L147.677 13.9668C148.857 14.1712 149.963 14.3292 151.013 14.4314C151.764 14.5397 152.524 14.5646 153.281 14.5057C153.119 15.1792 152.744 15.7823 152.212 16.2249C151.993 16.3961 151.738 16.5159 151.466 16.5754C151.194 16.6349 150.912 16.6326 150.641 16.5687C150.493 16.5687 149.972 16.3736 149.08 16.0762C148.185 15.7872 147.268 15.5666 146.339 15.4164C145.45 15.267 144.542 15.267 143.653 15.4164C143.719 15.0181 143.919 14.6543 144.22 14.3849C144.622 13.9856 145.16 13.7531 145.726 13.7344L147.194 12.8795C147.621 12.6286 148.123 12.3034 148.764 11.8759C149.318 11.5118 149.852 11.1178 150.363 10.6957C150.809 10.3072 151.211 9.87095 151.561 9.39474C151.92 8.93225 152.17 8.39577 152.296 7.82428C152.354 7.59386 152.365 7.35386 152.327 7.11911C152.289 6.88436 152.204 6.65987 152.076 6.45953C151.948 6.25918 151.78 6.08724 151.583 5.95436C151.386 5.82147 151.163 5.73046 150.93 5.68695C150.489 5.58932 150.028 5.66948 149.647 5.90998C149.455 6.0398 149.294 6.21034 149.175 6.40948C149.056 6.60863 148.982 6.8315 148.959 7.06227C148.876 7.63862 149.019 8.22492 149.359 8.69779C149.152 8.7152 148.944 8.7152 148.736 8.69779Z" fill="#FE6A84"/>
</g>
<defs>
<clipPath id="clip0_711_1560">
<rect width="263.448" height="263.448" fill="white" transform="translate(0.276367 0.334351)"/>
</clipPath>
</defs>
</svg>
